<svg xmlns="http://www.w3.org/2000/svg" enable-background="new 0 0 1364 960" viewBox="0 0 1364 960"><path fill="#cbeafa" d="M1139.4,145C1013.66,38.61,831.63,9.03,730.48,55.68c-165.62,76.39-123.37,207.38-408.07,220.09   c-122.28,5.46-218.9,115.85-218.84,260.49c0.12,337.09,405.62,393.68,584.47,389.22c153.7-3.84,426.37-94.61,516.2-245.36   C1283.63,546.9,1292.94,274.9,1139.4,145z" class="colorcbeafa svgShape"/><path fill="#cbeafa" d="M855.48 399.98c10.09-11.68 6.4-39.29 20.5-41.55 3.6-.58 7.73.96 10.69-1.47 3.62-2.98 3.04-9.83 5.63-14.09 4.34-7.14 14.87-2.45 18.4 5.71 3.53 8.16 2.73 17.69 3.47 26.72.74 9.02 4.32 19.36 11.67 21.65 8.19 2.55 15.09-6.27 19.98-14.19 2.61-4.22 5.21-8.45 7.82-12.67 1.52-2.47 3.11-5.13 3.19-8.26.1-3.85-2.06-7.3-4.12-10.37-6.22-9.3-12.44-18.6-18.66-27.9-1.68-2.52-3.39-5.08-4.46-8.02-3.52-9.64.53-20.26 4.5-29.25 2.2-4.97 6.98-10.64 10.78-6.98 1.74 1.68 2.14 4.57 2.93 7.06 3.37 10.56 14.48 14.28 23.72 13.67 15.98-1.06 30.42-10.1 44.74-18.06 10.39-5.78 20.98-11.08 31.74-15.88 6.03-2.69 6.66-1.87 11.88 2.59 4.3 3.68 8.9 6.8 13.72 9.32 1.83.96 3.83 1.84 5.74 1.38 2.46-.59 4.09-3.19 5.9-5.22 4.85-5.46 11.77-7.31 18.36-8.97 15.6-3.92 31.21-7.84 46.81-11.76 4.32 9.38 9.52 18.21 15.47 26.26-5.27 1.58-2.02 11.37 1.99 16.07 10.68 12.48 21.36 24.97 32.04 37.45-3.47.6-6.94 1.19-10.41 1.79-1.87 6.57 5.97 13.25 4.46 19.97-1.49 6.62-9.61 5.61-14.93 2.63-12.06-6.75-23.05-16.58-35.66-21.46-12.61-4.88-28.21-3.33-35.57 9.29-6.84 11.72-4.21 28.02-6.39 42.28-1.97 12.9-7.97 26.24-3.3 38.45 2.85 7.45 9.26 12.72 11.16 20.56 2.93 12.12-6.07 22.79-8.4 34.83-1.55 8.04-.07 16.79-1.9 24.73-2.85 12.37-12.99 19.87-23 24.23-10.01 4.36-20.9 6.87-29.46 14.34-9.02 7.88-14.35 20.31-21.5 30.58-7.15 10.27-18.09 18.97-29.18 15.31 4.81-8.77-5.35-19.97-14.26-20.96-8.91-.99-18.48 2.3-26.42-3-8.56-5.72-11.34-19.09-10.88-30.6.46-11.52 3.18-22.91 1.74-34.4-.43-3.47-1.33-7.08-3.45-9.57-2.37-2.79-5.77-3.68-8.83-5.12-8.43-3.97-15.16-13.24-17.25-23.77-6.37 7.92-18.14 2.24-24.85-5.97-6.71-8.21-12.12-19.04-21.09-22.8-5.86-2.46-12.2-1.37-18.26-2.71s-12.66-6.93-12.22-14.24C840.63 408.64 850.21 406.09 855.48 399.98zM714.2 199.28c3-2.26 4.62-6.38 7.19-9.29 6.52-7.37 17.03-5.42 26.13-3.9 14.47 2.41 28.82 2.23 43.17.41 10.45-1.32 18.45 5.04 27.77 10.65 7.14 4.3 14.02 9.25 20.56 14.8 2.22 1.88 4.58 4.19 5 7.37.42 3.25-1.35 6.15-1.99 9.29-1.38 6.75 2.49 13.55 6.14 19.23-9.73-4.32-20.44 3.46-25.02 14.21-4.58 10.75-4.53 23.59-4.3 35.88.24 12.29.49 25.09-3.74 36.05-4.31 11.17-12.71 19-20.83 26.42-2.67 2.44-5.53 4.97-8.93 5.31-6.28.62-11.61-6.49-13.93-13.69-2.31-7.2-2.85-15.11-5.85-21.96-9.36-21.39-37.7-23.29-45.72-45.4-4.89-13.47-.64-31.25-9.5-41.5-3.41-3.94-8.2-5.87-11.34-10.12-3.14-4.25-2.88-12.75 1.7-13.31-7.39-1.91-13.63-9.79-14.84-18.74C693.75 194.52 706.1 205.36 714.2 199.28zM638.46 237.2c-7.87 2.68-15.98 10.29-14.65 20.18-4.03 1.01-7.4-4.08-9.28-8.62-1.88-4.55-4.2-9.97-8.33-10.6-2.31-.35-4.63 1-6.88.25-4.98-1.66-3.97-11.53.57-14.14 4.53-2.61 9.99-.77 15.09-.02 9.05 1.33 18.32-1.07 25.89-6.71l5.5 5.47c2.89 1.72 2.74 7.11.56 9.76C644.76 235.42 641.47 236.18 638.46 237.2zM726.71 326.56c7.89-1.22 15.91 8.57 14.78 18.03-3.33 3.12-8.4 3.34-12.12.52-3.72-2.82-5.83-8.48-5.06-13.54L726.71 326.56zM654.57 368.89c-.42 1.77-.37 3.68-.71 5.48-.91 4.81-4.85 8.38-9 8.16-4.15-.23-8.07-4.23-8.96-9.14-1.17-6.46 2.47-12.77 1.68-19.3-.87-7.18-6.78-12.14-12.5-14.63-2.53-1.1-5.95-1.55-7.19 1.21-.58 1.29-.44 2.89-.29 4.38.53 5.07 1.05 10.13 1.58 15.2-10.04 1.87-18.31-10.24-23.25-21.26-.92-2.06-1.84-4.17-3.26-5.79-5-5.7-14.4-3.4-18.21-10.29-2.25-4.07-1.19-9.66 1.37-13.2 3.75-5.17 9.92-7.36 15.04-10 4.06-2.09 8.4-5.05 12.91-5.64 8.65-1.14 18.61 7.91 22.12 17.12.89 2.41 1.5 5 2.78 7.16 3.88 6.56 11.69 6.43 18.16 8.09 12.74 3.28 23.76 18.05 23.06 33.52C663.75 360.29 656.23 361.83 654.57 368.89zM147.55 418.18c.04-10.15 7.8-17.51 15.69-20.74 7.89-3.23 16.59-3.9 24.01-8.37 9.31-5.62 16.6-17.12 27.19-17.48 7.24-.24 13.96 4.95 21.11 6.84 23.44 6.18 42.8-23.48 66.59-23.24 7.52.08 15.15 3.2 22.49 1.63 7.35-1.57 14.09-11.23 10.18-19.15 14.46 2.35 29.19 1.08 42.96-3.72-2.19-9.46-4.37-18.91-6.56-28.36 13.05-2.32 26.16-4.26 39.31-5.82 2.92-.35 5.96-.66 8.79.54 3.65 1.55 6.32 5.33 9.12 8.59 10.86 12.66 26.43 19.17 41.06 17.16.92 4.8-.91 10.04-4.36 12.45 11.65 1.27 21.13 16.91 18.42 30.39 14.03.84 12.47-31.16 26.02-34.81 4.55-1.22 9.42 1.42 14.07.69 4.64-.73 8.33-8.79 4.18-11.67 11.73-.23 19.6 20.77 11.43 30.49 14.7-3.97 27.18 13.65 38.15 26.88 21.75 26.22 50.72 40.58 78.38 54.72 12.47 6.38 23.92 12.02 37.15 14.8 11.48 2.41 15.95 10.27 23.07 20.77 2.51 3.71 5.42 6.92 9.07 8.88 3.56 1.92 7.48 2.44 10.42 5.84 4.63 5.35 5.69 15.03 1.75 20.88-4.59 6.84-14.73 6.59-19.59-.47-2.47-3.59-3.54-8.28-5.97-11.91-7.27-10.87-21.24-6.81-31.59-1.71-11.39 5.62-23.52 11.97-29.71 24.71-1.1 2.27-2.07 4.8-3.91 6.21-5.11 3.92-11.71-3.87-12.99-11.21-1.28-7.34-.34-15.51-3.95-21.74-5.45-9.42-17-8.1-26.04-5.66-3.53 2.75-1.83 9.87 1.55 13.21 3.38 3.35 7.85 4.78 11.12 8.29 8.62 9.25 4.75 27.11 11.9 38.02 7.72 11.79 22.51 8.7 34.56 6.8 12.05-1.9 28.79 3.48 28.97 18.17.19 16.65-20.14 18.83-29.21 30.95-5.81 7.76-6.84 19.93-13.5 26.65-6.24 6.29-15.45 5.9-23.24 9.01-7.41 2.96-13.55 9.15-20.82 12.54-18.56 8.65-42.83-5.46-49.44-28.74-1.64-5.78-2.36-12.03-5.15-17.18-4.8-8.86-14.48-12.06-23.08-11.69-25.54 1.07-48.89 26.07-73.71 17.11-3.72-1.34-7.34-3.44-11.18-3.73-13.54-1.01-19.71 18.67-29.53 29.36-15.29 16.64-39.75 10.68-60.26 3.77-8.93-3.01-19.33-7.68-21.94-18.38-1.05-4.34-.71-9.4-3.25-12.79-1.82-2.43-4.66-3.29-6.79-5.33-6.79-6.52-2.68-19.15 1.79-27.62 4.47-8.47 8.06-21.58.88-27.44-2.79-2.28-6.36-2.42-9.62-1.89-5.48.89-10.72 3.43-16.28 3.49-5.56.05-11.93-3.46-13.3-10.02-1.63-7.81 4.51-14.79 4.25-22.76-.24-7.3-5.57-12.85-9.74-18.37-4.18-5.51-7.54-14.2-3.73-19.68 3.27-4.7 10.71-4.99 11.62-11.1.92-6.14-5.75-9.83-10.91-11.1-18.91-4.66-37.82-9.31-56.74-13.97-1.21 9.51 6.06 17.47 11.12 25.28 5.06 7.8 6.85 21.9-.79 24.6-9.26 3.28-13.5-13.98-20.32-22.74-6.21-7.98-16.1-8.99-24.57-12.72-8.47-3.73-17.02-14.81-12.94-24.1C163.86 439.79 147.49 431.28 147.55 418.18zM909 221.09c.12 3.08-1.79 5.4-3.93 6.57-4.33 2.37-11.74 3.33-16.32.99-7.08-3.59-8.9-14.55-13.75-21.79-5.79-8.63-15.46-11.36-24.12-14.92-7.25-2.98-19.21-9.96-19.53-20.87 5.77-.96 11.95-.62 17.81-.9 4.58-.21 9.16-.51 13.75-.41 5.89.13 12.06.8 17.43 4.3 5.27 3.43 9.1 9.21 12.36 15.11 2.23 4.04 4.65 8.31 5.95 12.9 1.34 4.73 1.85 10.05 5.63 13.05C906.38 216.8 908.87 217.56 909 221.09zM1013.91 251c-4.2 1.93-8.35-3.13-12.34-6.01-4.5-3.24-10.19-3.8-14.87-1.47-1.4-1.83.22-4.78 2.16-5.36 1.94-.59 4.06.06 6.01-.48 2.95-.82 4.83-4.1 7.32-6.09 2.49-1.99 6.96-1.76 7.66 1.85l-2.53-.35c3.56.9 7.18 3.06 8.98 6.91C1018.09 243.84 1017.22 249.47 1013.91 251z" class="colorcbeafa svgShape"/><path fill="#cbeafa" d="M975.87 258.36c3.16-1.4 6.75-2.43 9.93-.76 3.18 1.67 5.14 7.12 2.84 10.03l5.31-.25c-2.78 4.85-7.79 7.04-12.63 8.29-4.18 1.08-8.57 1.64-12.8.4-4.23-1.24-8.29-4.53-10.06-9.35-.34-.93-.6-1.95-.44-2.93.58-3.63 5-2.68 8.1-2.48C969.54 261.54 972.71 259.76 975.87 258.36zM855.81 294.44c-.96-.52-2.02-.77-2.89-1.48-.97-.79-1.62-2.07-1.97-3.41-1.46-5.55 1.8-11.09 5.59-14.4 3.79-3.31 8.35-5.56 11.27-9.96 1.47-2.21 2.47-4.9 4.16-6.87 3.68-4.28 9.57-4.13 14.8-3.55 1.75.2 3.59.4 5.18-.41 2.62-1.32 3.79-4.9 5.83-7.25 1.34-1.55 4.34-2.56 6.02-.9 1.88 1.87.82 5.77 4.23 3.31 1.29-.93 6.96-9.66 8.27-6.2 1.08 2.84-2.6 9.55-3.65 11.74-2.58 5.4-5.76 9.72-10.17 13.01-6.45 4.82-14.93 4.98-20.97 10.32-3.69 3.23-5.72 10.08-2.7 14.49 2.04 2.97 5.46 3.7 8.45 5.01 2.98 1.31 6.18 4.37 5.7 8.07-.34 2.65-2.54 4.36-4.73 4.79-2.2.44-4.47-.08-6.72-.19-3.65-.18-7.41.8-10.21 3.48-2.83 2.71-4.7 7.1-8.22 8.29-2.67.91-5.85-.52-7.47-3.37-1.62-2.84-1.53-6.87.2-9.44.8-1.18 1.88-2.05 2.66-3.25C860.83 302.71 859.42 296.4 855.81 294.44zM935.46 238.6c-1.35-.26-2.77-.69-3.77-1.85-1-1.16-1.37-3.25-.44-4.4.35-.43.82-.67 1.28-.91 3.8-1.92 7.6-3.85 11.41-5.77l-.46 1.37c2.91 1.53 3.03 6.97.8 9.48C942.03 239.02 938.56 239.2 935.46 238.6zM958.75 229.15c-.69-2.73-1.37-5.47-2.06-8.2 2.49.34 5.03-.82 6.63-3.03l.98-3.19c1.21 2.08 3 3.68 4.99 4.46 2.24.88 4.71.77 6.82 2.06 2.11 1.29 3.53 5.06 1.79 6.83C971.52 228.43 965.13 228.79 958.75 229.15zM921.45 194.02c-1.43 1.42-2.85 2.84-4.28 4.26-.63.63-1.34 1.29-2.18 1.24-.79-.05-1.48-.73-2.02-1.45-3.15-4.15-3.59-10.84-1.01-15.25 2.11-3.6 6.05-5.32 9.74-4.6 2.6-.67 5.47 3.25 5.15 6.73C926.5 188.8 923.89 191.59 921.45 194.02zM920.08 317.45c-4.27 1.8-9.42.6-13.01-3.03-4.61-4.67-6.17-12.23-7.46-19.22 3.73-3.67 9.13-4.79 13.85-2.86l-.99 1.06c.28 5.93.55 11.86.83 17.79C916.35 310.89 919.5 313.79 920.08 317.45zM429.39 286.03c-2.92-1.54-5.11-4.71-6.51-8.16 3.17-2.86 6.89-4.87 10.82-5.84-.01-.08-.01-.16-.02-.24 4.4.8 7.3 8.48 4.36 12.54C436.01 287.11 432.31 287.56 429.39 286.03zM411.37 258.65c.11 1.41.22 2.83.33 4.24-.29-.05-.58-.08-.87-.07L411.37 258.65zM711.21 397.06c-3.92 1.43-5.64 7.96-3.2 12.11 1.34 2.27 3.75 4.27 3.4 6.95-.31 2.38-2.6 3.35-4.55 3.89-3.81 1.05-7.87 2.04-11.65.48-3.78-1.56-6.95-6.69-5.57-11.06 1.28-4.06 5.61-5.52 7.25-9.38 1.02-2.41.81-5.34 1.32-7.99.51-2.65 2.39-5.37 4.63-4.69.14-2.14-.87-4.37-2.44-5.48 5.65-.74 11.74 3.94 13.51 10.59.27 1.03.44 2.21-.05 3.08C713.3 396.55 712.17 396.71 711.21 397.06zM686.91 383.28c.06.04.12.09.18.14-.32.04-.65.09-.97.17L686.91 383.28zM260.31 338.15c-.95.05-1.99.07-2.75-.67-1.74-1.68-.18-4.94 1.61-6.37 2.84-2.28 6.23-3.61 9.71-3.8l1.38.57c2.18-2.08 5.6-2.1 7.94-.04 2.34 2.06 3.41 6.01 2.49 9.19C273.89 337.41 267.1 337.78 260.31 338.15z" class="colorcbeafa svgShape"/><path fill="#239dd3" d="M392.25 736.61c-3.28.08-6.54.14-9.71.14-2.32.02-4.71-.02-7.06-.07h-.03c-.76 0-1.39.6-1.41 1.38-.01.77.6 1.41 1.38 1.43 2.37.05 4.8.05 7.13.07 3.19 0 6.48-.04 9.79-.14.77-.02 1.39-.67 1.37-1.44C393.67 737.21 393.02 736.59 392.25 736.61zM358.72 735.85c-5.73-.45-11.33-1.08-16.64-1.87-.77-.12-1.48.41-1.6 1.18-.12.77.41 1.48 1.19 1.6 5.37.8 11.04 1.44 16.84 1.91h.11c.73 0 1.35-.56 1.4-1.29C360.07 736.59 359.49 735.91 358.72 735.85zM427.29 735.6c-.08-.77-.74-1.32-1.55-1.25-5.66.59-11.29 1.08-16.72 1.46-.77.05-1.37.72-1.31 1.49.05.74.67 1.3 1.41 1.3h.1c5.47-.37 11.13-.87 16.83-1.46C426.82 737.06 427.38 736.37 427.29 735.6zM460.66 730.97c-.13-.76-.84-1.28-1.61-1.15-5.59.93-11.18 1.78-16.62 2.52-.76.11-1.3.82-1.2 1.58.1.71.7 1.22 1.39 1.22.06 0 .13-.01.19-.02 5.45-.74 11.08-1.59 16.69-2.52C460.26 732.46 460.78 731.73 460.66 730.97zM325.65 730.82c-5.6-1.35-10.98-2.93-16-4.72-.73-.26-1.54.12-1.8.85-.25.73.13 1.54.86 1.8 5.1 1.82 10.59 3.44 16.29 4.81.12.02.22.03.33.03.64 0 1.21-.43 1.37-1.08C326.87 731.75 326.4 731 325.65 730.82zM294.27 719.61c-4.98-2.4-9.91-5.09-14.69-7.99-.66-.4-1.53-.19-1.93.47-.4.67-.19 1.54.48 1.94 4.84 2.93 9.86 5.67 14.92 8.1.19.1.4.14.6.14.52 0 1.03-.29 1.27-.79C295.25 720.79 294.97 719.94 294.27 719.61zM265.71 702.3c-4.45-3.3-8.81-6.86-12.96-10.57-.57-.52-1.46-.47-1.98.11-.52.58-.47 1.47.12 1.99 4.2 3.76 8.63 7.37 13.15 10.73.25.18.55.28.84.28.43 0 .86-.2 1.13-.57C266.46 703.64 266.33 702.75 265.71 702.3zM240.8 680.03c-3.8-4.07-7.45-8.35-10.85-12.72-.48-.61-1.36-.72-1.97-.24-.61.48-.72 1.36-.24 1.97 3.44 4.44 7.15 8.78 11 12.91.28.3.66.45 1.03.45.35 0 .69-.13.96-.37C241.29 681.5 241.33 680.61 240.8 680.03zM220.33 653.65c-3.01-4.73-5.78-9.62-8.25-14.52-.35-.7-1.2-.97-1.88-.62-.7.35-.97 1.2-.63 1.89 2.51 4.99 5.34 9.96 8.39 14.76.28.42.72.65 1.19.65.26 0 .52-.06.75-.21C220.56 655.18 220.75 654.31 220.33 653.65zM205.38 623.85c-1.98-5.3-3.64-10.65-4.92-15.93-.18-.75-.94-1.22-1.69-1.03-.75.18-1.22.94-1.03 1.69 1.3 5.38 3 10.85 5.02 16.25.21.56.74.91 1.31.91.16 0 .33-.03.49-.1C205.28 625.38 205.65 624.57 205.38 623.85zM197.04 580.49c0-1.87.05-3.75.15-5.57.04-.77-.55-1.43-1.32-1.47-.75-.05-1.43.55-1.47 1.32-.11 1.87-.16 3.79-.16 5.72 0 3.7.19 7.51.58 11.32.07.72.69 1.26 1.4 1.26.04 0 .1 0 .14-.01.77-.07 1.33-.76 1.26-1.54C197.23 587.81 197.04 584.1 197.04 580.49zM204.26 541.03c-.71-.33-1.54-.02-1.86.69-2.35 5.12-4.23 10.55-5.57 16.15-.18.75.29 1.51 1.04 1.69.12.02.22.04.33.04.64 0 1.22-.43 1.37-1.08 1.29-5.42 3.11-10.69 5.39-15.63C205.27 542.18 204.97 541.35 204.26 541.03zM224.53 514.4c-.52-.57-1.41-.61-1.98-.08-4.27 3.9-8.12 8.17-11.45 12.68-.46.62-.33 1.5.3 1.97.25.18.54.28.84.28.42 0 .85-.2 1.13-.57 3.22-4.36 6.95-8.5 11.08-12.29C225.01 515.86 225.05 514.97 224.53 514.4zM252.9 496.48c-.33-.7-1.17-1.01-1.86-.68-1.18.55-2.34 1.1-3.48 1.67-4.02 1.98-7.88 4.15-11.47 6.46-.66.41-.84 1.28-.42 1.94.26.41.72.65 1.19.65.25 0 .52-.07.75-.22 3.51-2.26 7.27-4.37 11.19-6.31 1.13-.55 2.28-1.1 3.43-1.64C252.92 498.02 253.23 497.19 252.9 496.48zM584.38 490.53c-5.54-.97-11.08-1.93-16.63-2.85-.76-.13-1.48.39-1.61 1.15-.13.76.39 1.48 1.15 1.61 5.53.92 11.07 1.87 16.6 2.85.08.02.17.02.24.02.67 0 1.26-.48 1.39-1.15C585.65 491.4 585.14 490.67 584.38 490.53zM284.57 485.09c-.21-.75-.99-1.19-1.74-.97-5.56 1.59-10.98 3.34-16.12 5.21-.73.26-1.1 1.07-.84 1.8.2.57.74.92 1.31.92.16 0 .33-.03.49-.08 5.06-1.85 10.42-3.58 15.93-5.15C284.35 486.61 284.78 485.84 284.57 485.09zM551.11 484.99c-5.56-.87-11.11-1.71-16.65-2.5-.77-.12-1.48.41-1.6 1.19-.11.76.42 1.48 1.2 1.59 5.53.8 11.07 1.63 16.62 2.5.07.01.15.02.22.02.68 0 1.28-.5 1.39-1.19C552.41 485.83 551.89 485.1 551.11 484.99zM517.79 480.17c-5.65-.74-11.27-1.45-16.73-2.11-.78-.07-1.47.47-1.57 1.23-.08.77.47 1.47 1.23 1.57 5.45.65 11.08 1.36 16.71 2.1.06.01.12.01.18.01.7 0 1.3-.51 1.39-1.22C519.1 480.98 518.56 480.28 517.79 480.17zM317.49 477.99c-.13-.76-.83-1.28-1.61-1.15-5.69.94-11.28 2-16.62 3.18-.76.17-1.24.91-1.07 1.67.14.66.72 1.1 1.37 1.1.11 0 .2-.01.31-.03 5.29-1.17 10.83-2.22 16.47-3.16C317.09 479.47 317.61 478.75 317.49 477.99zM484.27 476.19c-5.65-.59-11.29-1.13-16.8-1.63-.77-.05-1.45.51-1.51 1.28-.07.77.5 1.45 1.27 1.51 5.49.5 11.12 1.04 16.76 1.63.04 0 .1.01.15.01.71 0 1.31-.54 1.39-1.26C485.61 476.96 485.05 476.27 484.27 476.19zM349.43 472.78c-5.72.47-11.38 1.03-16.81 1.68-.77.08-1.32.78-1.23 1.56.08.71.69 1.24 1.39 1.24.05 0 .12 0 .17-.01 5.4-.65 11.02-1.21 16.71-1.67.77-.05 1.35-.73 1.28-1.5C350.88 473.3 350.21 472.72 349.43 472.78zM450.66 473.21c-5.69-.41-11.35-.76-16.85-1.06-.78-.05-1.44.56-1.48 1.33-.03.77.56 1.43 1.33 1.47 5.48.29 11.13.65 16.8 1.05h.1c.73 0 1.35-.56 1.4-1.3C452.01 473.93 451.43 473.26 450.66 473.21zM383.17 471.17c-5.73.1-11.41.29-16.88.54-.77.03-1.37.69-1.33 1.47.03.75.66 1.33 1.4 1.33h.07c5.44-.26 11.09-.45 16.8-.54.77-.01 1.39-.66 1.38-1.43C384.58 471.77 383.93 471.19 383.17 471.17zM416.94 471.44c-5.7-.18-11.37-.3-16.88-.35 0 0 0 0-.01 0-.77 0-1.4.62-1.4 1.4-.01.77.61 1.41 1.39 1.41 5.48.05 11.14.16 16.82.35h.04c.75 0 1.38-.6 1.41-1.37C418.32 472.11 417.72 471.46 416.94 471.44zM198.56 346.9l18.5-7.87c1.96-.83 4.23-.53 5.9.79 39.56 31.26 58.84 46.71 150.84 81.97l-120.88 46.34-57.28-113.24C194.12 351.88 195.46 348.21 198.56 346.9zM603.28 292.34l42.44-17.69c4.8-2 9.93-3.05 15.13-3.08l164.54-1.16-123.2 44.86-98.5-18.86C601.62 296.01 601.33 293.16 603.28 292.34z" class="color239dd3 svgShape"/><path fill="#ffffff" d="M1103.73,247.01c13.31,74.35-540.9,221.46-602.61,233.63c-61.71,12.18-284.86,47.99-282.28-3.27      c1.64-32.6,701-265.17,736.93-271.61c14.94-2.68,41.88-2.61,68.74,1.15c15.01,2.09,29.99,5.33,42.85,9.9      c13.63,4.83,24.88,11.14,31.19,19.12C1101.21,239.32,1103.01,243.01,1103.73,247.01z" class="colorfff svgShape"/><path fill="#239dd3" d="M628.38 558.11l58.1-153.76 143.28-44.76-91.91 142.32c-8.4 13.01-20.59 23.14-34.93 29.02l-72.08 29.57C629.33 561.12 627.8 559.64 628.38 558.11zM234.44 534.62l18.49-48.81 60.89 15.63-77.19 35.24C235.31 537.27 233.93 535.97 234.44 534.62z" class="color239dd3 svgShape"/><path fill="#239dd3" d="M1103.73,247.01c13.33,74.35-540.9,221.46-602.61,233.63c-61.71,12.18-284.86,47.99-282.28-3.27      c83.43,13.85,231.63-4.94,470.91-81.88c278.95-89.69,383.92-134.83,389.61-173.71C1082.03,225.17,1100.43,228.64,1103.73,247.01      z" class="color239dd3 svgShape"/><path fill="#c1e3f3" d="M500.69 391.13L500.69 391.13c6.29-2.15 13.13 1.2 15.28 7.48l0 0c2.15 6.29-1.2 13.13-7.48 15.28l0 0c-6.29 2.15-13.13-1.2-15.28-7.48l0 0C491.06 400.13 494.41 393.28 500.69 391.13zM548.01 374.92L548.01 374.92c6.29-2.15 13.13 1.2 15.28 7.48l0 0c2.15 6.29-1.2 13.13-7.48 15.28l0 0c-6.29 2.15-13.13-1.2-15.28-7.48l0 0C538.37 383.92 541.72 377.08 548.01 374.92zM595.33 358.71L595.33 358.71c6.29-2.15 13.13 1.2 15.28 7.48v0c2.15 6.29-1.2 13.13-7.48 15.28l0 0c-6.29 2.15-13.13-1.2-15.28-7.48l0 0C585.69 367.71 589.04 360.87 595.33 358.71zM642.64 342.51L642.64 342.51c6.29-2.15 13.13 1.2 15.28 7.48h0c2.15 6.29-1.2 13.13-7.48 15.28l0 0c-6.29 2.15-13.13-1.2-15.28-7.48l0 0C633.01 351.5 636.36 344.66 642.64 342.51zM689.96 326.3L689.96 326.3c6.29-2.15 13.13 1.2 15.28 7.48l0 0c2.15 6.29-1.2 13.13-7.48 15.28l0 0c-6.29 2.15-13.13-1.2-15.28-7.48l0 0C680.32 335.29 683.68 328.45 689.96 326.3zM737.28 310.09L737.28 310.09c6.29-2.15 13.13 1.2 15.28 7.48l0 0c2.15 6.29-1.2 13.13-7.48 15.28l0 0c-6.29 2.15-13.13-1.2-15.28-7.48l0 0C727.64 319.08 730.99 312.24 737.28 310.09zM784.6 293.88L784.6 293.88c6.29-2.15 13.13 1.2 15.28 7.48l0 0c2.15 6.29-1.2 13.13-7.48 15.28l0 0c-6.29 2.15-13.13-1.2-15.28-7.48l0 0C774.96 302.88 778.31 296.04 784.6 293.88zM831.91 277.67L831.91 277.67c6.29-2.15 13.13 1.2 15.28 7.48l0 0c2.15 6.29-1.2 13.13-7.48 15.28l0 0c-6.29 2.15-13.13-1.2-15.28-7.48l0 0C822.28 286.67 825.63 279.83 831.91 277.67zM983.97 221.39L983.97 221.39c6.29-2.15 13.13 1.2 15.28 7.48v0c2.15 6.29-1.2 13.13-7.48 15.28l0 0c-6.29 2.15-13.13-1.2-15.28-7.48l0 0C974.33 230.38 977.68 223.54 983.97 221.39zM947.38 233.92L947.38 233.92c6.29-2.15 13.13 1.2 15.28 7.48l0 0c2.15 6.29-1.2 13.13-7.48 15.28h0c-6.29 2.15-13.13-1.2-15.28-7.48l0 0C937.74 242.92 941.09 236.08 947.38 233.92z" class="colorc1e3f3 svgShape"/><g fill="#000000" class="color000 svgShape"><path fill="#239dd3" d="M459.73,483.78L459.73,483.78c-10.54,3.61-22-2.01-25.61-12.54l-6.87-20.05     c-3.61-10.54,2.01-22,12.54-25.61l0,0c10.54-3.61,22,2.01,25.61,12.54l6.87,20.05C475.89,468.7,470.27,480.17,459.73,483.78z" class="color239dd3 svgShape"/></g><g fill="#000000" class="color000 svgShape"><path fill="#239dd3" d="M909.81,343.75L909.81,343.75c-10.54,3.61-22-2.01-25.61-12.54l-12.17-35.52     c-3.61-10.54,2.01-22,12.54-25.61l0,0c10.54-3.61,22,2.01,25.61,12.54l12.17,35.52C925.96,328.67,920.35,340.14,909.81,343.75z" class="color239dd3 svgShape"/></g><path fill="#239dd3" d="M1017.79,209.21l6.7-2.29c15.01,2.09,29.99,5.33,42.85,9.9l-42.02,14.39c-1.35,0.46-2.82-0.26-3.28-1.61    l-5.86-17.1C1015.72,211.14,1016.44,209.67,1017.79,209.21z" class="color239dd3 svgShape"/><g fill="#000000" class="color000 svgShape"><path fill="#1ca0ac" d="M1074.65,587.33V712.7c-0.15-0.02-0.31-0.02-0.46-0.02c-2.75,0-5.07,1.92-5.67,4.49     c-0.19,0.78-0.87,1.34-1.68,1.34H851.65c0-7.89-6.41-14.3-14.3-14.3V595.72c0-0.85,0.62-1.6,1.47-1.7     c5.77-0.67,10.35-5.25,11.02-11.02c0.1-0.85,0.85-1.47,1.71-1.47h215.29c0.8,0,1.49,0.56,1.68,1.34     c0.61,2.57,2.92,4.49,5.67,4.49C1074.34,587.36,1074.5,587.35,1074.65,587.33z" class="color1ca0ac svgShape"/><path fill="#6bc6d0" d="M1162.72,650.01C1162.72,650.02,1162.72,650.02,1162.72,650.01c0,7.45,4.67,13.76,11.16,16.01     c0.68,0.24,1.14,0.89,1.14,1.61v36.74c0,0.86-0.62,1.61-1.47,1.71c-5.75,0.67-10.32,5.23-11.01,10.96     c-0.1,0.84-0.85,1.46-1.71,1.46h-79.3c-0.8,0-1.49-0.56-1.68-1.34c-0.57-2.42-2.66-4.27-5.21-4.47V587.33     c2.55-0.2,4.64-2.05,5.21-4.47c0.19-0.78,0.87-1.34,1.68-1.34h79.3c0.86,0,1.61,0.62,1.71,1.46c0.69,5.74,5.26,10.29,11.01,10.96     c0.85,0.1,1.47,0.85,1.47,1.7v36.74c0,0.72-0.46,1.38-1.14,1.61C1167.39,636.25,1162.72,642.57,1162.72,650.01z" class="color6bc6d0 svgShape"/><path fill="#f2f2f2" d="M1169.42 631.07c.83-.47 1.35-1.34 1.35-2.29v-28.69c0-1.08-.68-2.03-1.69-2.43-4.4-1.76-7.91-5.29-9.67-9.71-.4-1.01-1.35-1.7-2.43-1.7h-67.66c-1.46 0-2.64 1.18-2.64 2.64v122.25c0 1.46 1.18 2.64 2.64 2.64h67.71c1.08 0 2.02-.68 2.42-1.68 1.77-4.37 5.27-7.85 9.64-9.61 1-.4 1.68-1.34 1.68-2.41v-28.83c0-.95-.52-1.83-1.35-2.29-6.64-3.72-10.95-10.91-10.95-18.94S1162.78 634.79 1169.42 631.07zM1157.29 650.01c0 8.33 4.43 15.98 11.55 19.97.46.26.75.74.75 1.26v28.83c0 .57-.37 1.09-.94 1.32-4.66 1.87-8.41 5.61-10.3 10.26-.23.57-.75.94-1.33.94h-67.71c-.8 0-1.45-.65-1.45-1.45V588.89c0-.8.65-1.45 1.45-1.45h67.66c.58 0 1.11.37 1.34.95 1.87 4.71 5.63 8.49 10.32 10.37.58.23.95.75.95 1.33v28.69c0 .52-.29 1.01-.75 1.26C1161.71 634.04 1157.29 641.69 1157.29 650.01zM1062.56 586.25H856.3c-1.08 0-2.02.68-2.42 1.69-1.76 4.39-5.27 7.9-9.66 9.66-1 .4-1.69 1.34-1.69 2.42v99.99c0 1.08.68 2.02 1.69 2.42 4.39 1.76 7.9 5.27 9.66 9.66.4 1 1.34 1.69 2.42 1.69h206.26c1.46 0 2.64-1.18 2.64-2.64V588.89C1065.2 587.43 1064.02 586.25 1062.56 586.25zM1064.02 711.14c0 .8-.65 1.45-1.45 1.45H856.3c-.58 0-1.1-.37-1.33-.94-1.87-4.68-5.63-8.44-10.32-10.32-.57-.23-.94-.75-.94-1.33v-99.99c0-.58.37-1.1.94-1.33 4.68-1.87 8.44-5.63 10.32-10.32.23-.57.75-.94 1.33-.94h206.26c.8 0 1.45.65 1.45 1.45V711.14z" class="colorf2f2f2 svgShape"/><rect width="5.72" height="2.44" x="1071.79" y="596.08" fill="#f2f2f2" class="colorf2f2f2 svgShape"/><rect width="5.72" height="2.44" x="1071.79" y="606.62" fill="#f2f2f2" class="colorf2f2f2 svgShape"/><rect width="5.72" height="2.44" x="1071.79" y="617.17" fill="#f2f2f2" class="colorf2f2f2 svgShape"/><rect width="5.72" height="2.44" x="1071.79" y="627.71" fill="#f2f2f2" class="colorf2f2f2 svgShape"/><rect width="5.72" height="2.44" x="1071.79" y="638.25" fill="#f2f2f2" class="colorf2f2f2 svgShape"/><rect width="5.72" height="2.44" x="1071.79" y="648.8" fill="#f2f2f2" class="colorf2f2f2 svgShape"/><rect width="5.72" height="2.44" x="1071.79" y="659.34" fill="#f2f2f2" class="colorf2f2f2 svgShape"/><rect width="5.72" height="2.44" x="1071.79" y="669.88" fill="#f2f2f2" class="colorf2f2f2 svgShape"/><rect width="5.72" height="2.44" x="1071.79" y="680.43" fill="#f2f2f2" class="colorf2f2f2 svgShape"/><rect width="5.72" height="2.44" x="1071.79" y="690.97" fill="#f2f2f2" class="colorf2f2f2 svgShape"/><rect width="5.72" height="2.44" x="1071.79" y="701.52" fill="#f2f2f2" class="colorf2f2f2 svgShape"/><rect width="48.58" height="2.67" x="1097.54" y="623.65" fill="#bcbec0" class="colorbcbec0 svgShape"/><rect width="48.58" height="2.67" x="1097.54" y="642.5" fill="#bcbec0" class="colorbcbec0 svgShape"/><rect width="48.58" height="2.67" x="1097.54" y="648.37" fill="#bcbec0" class="colorbcbec0 svgShape"/><rect width="48.58" height="2.67" x="1097.54" y="654.25" fill="#bcbec0" class="colorbcbec0 svgShape"/><rect width="48.58" height="2.67" x="1097.54" y="680.93" fill="#bcbec0" class="colorbcbec0 svgShape"/><rect width="48.58" height="2.67" x="1097.54" y="686.93" fill="#bcbec0" class="colorbcbec0 svgShape"/><rect width="48.58" height="2.67" x="1097.54" y="692.94" fill="#bcbec0" class="colorbcbec0 svgShape"/><rect width="48.58" height="2.67" x="1097.54" y="698.95" fill="#bcbec0" class="colorbcbec0 svgShape"/><rect width="48.58" height="8.55" x="1097.54" y="629.53" fill="#bcbec0" class="colorbcbec0 svgShape"/><rect width="48.58" height="16.72" x="1097.54" y="660.84" fill="#bcbec0" class="colorbcbec0 svgShape"/><path fill="#bcbec0" d="M1129.95 604.47l-5.35-.78c-.13-.02-.24-.1-.3-.22l-2.39-4.85c-.15-.3-.57-.3-.71 0l-2.39 4.85c-.06.12-.17.2-.3.22l-5.35.78c-.33.05-.46.45-.22.68l3.87 3.77c.09.09.14.22.11.35l-.91 5.33c-.06.33.29.57.58.42l4.78-2.51c.12-.06.25-.06.37 0l4.78 2.51c.29.15.63-.09.58-.42l-.91-5.33c-.02-.13.02-.26.11-.35l3.87-3.77C1130.41 604.92 1130.28 604.52 1129.95 604.47zM1141.37 609.67c.24-.23.11-.63-.22-.68l-2.67-.39c-.13-.02-.24-.1-.3-.22l-1.19-2.42c-.15-.3-.57-.3-.71 0l-1.19 2.42c-.06.12-.17.2-.3.22l-2.67.39c-.33.05-.46.45-.22.68l1.93 1.88c.09.09.14.22.11.35l-.46 2.66c-.06.33.29.57.58.42l2.39-1.25c.12-.06.25-.06.37 0l2.39 1.25c.29.15.63-.09.58-.42l-.46-2.66c-.02-.13.02-.26.11-.35L1141.37 609.67zM1111.56 608.99l-2.67-.39c-.13-.02-.24-.1-.3-.22l-1.19-2.42c-.15-.3-.57-.3-.71 0l-1.19 2.42c-.06.12-.17.2-.3.22l-2.67.39c-.33.05-.46.45-.22.68l1.93 1.88c.09.09.14.22.11.35l-.46 2.66c-.06.33.29.57.58.42l2.39-1.25c.12-.06.25-.06.37 0l2.39 1.25c.29.15.63-.09.58-.42l-.46-2.66c-.02-.13.02-.26.11-.35l1.93-1.88C1112.01 609.44 1111.88 609.04 1111.56 608.99z" class="colorbcbec0 svgShape"/><g fill="#000000" class="color000 svgShape"><path fill="#ffffff" d="M890.57 641.66v5.69h-9.36v29.43h-7.04v-29.43h-9.36v-5.69H890.57zM902.74 641.66v35.12h-7.04v-35.12H902.74zM910.32 650.05c1.56-2.69 3.69-4.78 6.39-6.28 2.7-1.5 5.73-2.25 9.08-2.25 3.92 0 7.36.99 10.31 2.97 2.95 1.98 5.01 4.72 6.19 8.21h-8.1c-.8-1.65-1.94-2.89-3.4-3.71-1.46-.82-3.14-1.24-5.06-1.24-2.05 0-3.87.47-5.46 1.41-1.59.94-2.83 2.27-3.72 3.98-.89 1.71-1.33 3.73-1.33 6.03 0 2.28.44 4.28 1.33 6.01.89 1.73 2.13 3.07 3.72 4.01 1.59.94 3.41 1.41 5.46 1.41 1.91 0 3.6-.42 5.06-1.26 1.46-.84 2.59-2.09 3.4-3.73h8.1c-1.17 3.53-3.23 6.27-6.16 8.24-2.94 1.96-6.38 2.94-10.34 2.94-3.35 0-6.38-.75-9.08-2.25-2.7-1.5-4.83-3.59-6.39-6.26-1.56-2.67-2.34-5.7-2.34-9.1C907.98 655.78 908.76 652.73 910.32 650.05zM968.15 676.78l-12.78-15.65v15.65h-7.04v-35.12h7.04v15.75l12.78-15.75h8.5l-14.49 17.41 14.89 17.71H968.15zM988.73 647.35v8.8h11.82v5.58h-11.82v9.31h13.33v5.74h-20.38v-35.17h20.38v5.74H988.73zM1032.35 641.66v5.69h-9.36v29.43h-7.04v-29.43h-9.36v-5.69H1032.35zM967.35 620.32c-.11 0-.22.01-.32.02-.05.01-.11.02-.16.03-.98.22-1.71 1.09-1.71 2.14 0 1.21.98 2.19 2.19 2.19 1.21 0 2.19-.98 2.19-2.19C969.54 621.3 968.56 620.32 967.35 620.32zM967.35 624.18c-.92 0-1.67-.75-1.67-1.67 0-.92.75-1.67 1.67-1.67s1.67.75 1.67 1.67C969.02 623.43 968.27 624.18 967.35 624.18z" class="colorfff svgShape"/><path fill="#ffffff" d="M966.52 622.03c.03 0 .05-.01.07-.04 0 0 0 0 0 0l0 0c.03-.04.06-.08.1-.12.03-.03.03-.08.01-.11 0 0-.01-.01-.01-.01 0 0 0 0 0 0 0 0 0 0 0 0 0 0 0 0-.01 0-.01-.01-.01-.01-.02-.01-.03-.01-.07-.01-.09.02-.03.03-.06.06-.08.1-.01.02-.03.03-.04.05-.01.02-.02.04-.01.07 0 .02.02.04.04.06 0 0 .01 0 .01 0C966.49 622.02 966.5 622.03 966.52 622.03 966.52 622.03 966.52 622.03 966.52 622.03L966.52 622.03C966.52 622.03 966.52 622.03 966.52 622.03zM966.84 623.28C966.84 623.28 966.84 623.27 966.84 623.28c-.01-.01-.02-.02-.02-.02-.04-.03-.08-.06-.11-.09-.03-.03-.09-.03-.12 0-.01.01-.01.02-.02.03-.01.02-.01.04 0 .06 0 .01.01.02.02.03.03.03.06.06.1.08.02.01.03.03.05.04.01 0 .02.01.02.01 0 0 .01 0 .01 0 0 0 .01 0 .01 0 .03 0 .06-.01.07-.04.02-.03.02-.07 0-.1C966.85 623.29 966.85 623.29 966.84 623.28zM967.28 621.59c.02 0 .04 0 .06 0 .03 0 .06-.02.07-.05.01-.01.01-.03.01-.04 0-.05-.04-.09-.09-.09-.06 0-.13.01-.19.02-.05.01-.08.05-.07.1 0 .01.01.02.01.03.02.03.04.04.07.04 0 0 .01 0 .01 0 0 0 0 0 0 0C967.21 621.6 967.25 621.59 967.28 621.59zM967.51 623.42c-.02 0-.04.01-.06.01-.03 0-.05 0-.08.01-.01 0-.02 0-.02 0-.02 0-.04.01-.06.02 0 0-.01.01-.01.01-.01.01-.02.03-.02.05 0 0 0 0 0 0s0 0 0 0c0 .05.04.08.08.09 0 0 0 0 0 0h0l0 0c.05 0 .1 0 .15-.01.01 0 .02 0 .04 0 .05-.01.08-.05.07-.1C967.6 623.44 967.56 623.41 967.51 623.42zM967.93 621.8C967.93 621.8 967.94 621.8 967.93 621.8 967.94 621.8 967.94 621.8 967.93 621.8c.03.02.05.04.07.06 0 0 .01.01.01.01.01.01.03.02.05.02.02 0 .03-.01.05-.02 0 0 .01 0 .01-.01 0 0 0 0 0 0 0 0 0 0 0 0 .02-.02.03-.04.02-.07 0-.02-.01-.04-.03-.06-.02-.02-.04-.04-.07-.06 0 0 0 0-.01-.01-.02-.02-.05-.04-.07-.05-.01-.01-.03-.01-.04-.01-.03 0-.06.01-.08.04-.01.02-.02.04-.01.06 0 .02.02.05.04.06 0 0 0 0 0 0 0 0 0 0 0 0C967.89 621.77 967.91 621.78 967.93 621.8zM968.26 623.09c0-.01 0-.01 0-.02 0-.02-.01-.03-.03-.05 0 0-.01-.01-.01-.01-.01 0-.01 0-.02-.01-.01-.01-.03-.01-.04-.01-.02 0-.05.01-.06.04-.03.04-.06.09-.1.12 0 0-.01.01-.01.01-.02.03-.02.08.01.11.02.02.04.03.06.03s.04-.01.06-.03c.04-.04.09-.09.12-.15 0-.01.01-.01.01-.02 0 0 0-.01 0-.01C968.26 623.1 968.26 623.1 968.26 623.09zM966.43 622.61c0-.03 0-.06-.01-.09 0-.01 0-.02-.01-.03-.01-.02-.03-.04-.05-.05-.01 0-.02-.01-.03 0-.04 0-.07.02-.08.06 0 .01-.01.02-.01.03 0 .06.01.13.02.19 0 .03.02.05.04.06.01.01.03.01.04.01.01 0 .01 0 .02 0 .04-.01.06-.04.07-.07 0-.01 0-.02 0-.03C966.44 622.66 966.44 622.63 966.43 622.61zM968.4 622.26c-.02-.01-.04-.02-.07-.02-.01 0-.02.01-.03.01-.03.02-.04.05-.04.09 0 .02.01.04.01.06 0 .03.01.07.01.1 0 .01 0 .02.01.03 0 0 0 .01.01.01 0 .01.01.01.01.02 0 0 0 0 0 0 .02.01.04.02.06.02 0 0 0 0 0 0s0 0 0 0c.05 0 .09-.04.09-.09 0-.06-.01-.13-.02-.19C968.43 622.29 968.41 622.27 968.4 622.26zM975.97 620.86c0-.03 0-.05 0-.08 0 0 0-.01 0-.01 0-.05-.05-.11-.1-.1-.05 0-.1.05-.1.1 0 .07.01.14.02.21 0 0 0 0 0 0 0 0 0 0 0 0 .01.05.05.08.1.08.01 0 .01 0 .02 0 .05-.01.09-.06.08-.11 0-.01 0-.03-.01-.04C975.98 620.88 975.97 620.87 975.97 620.86zM976.42 621.61c-.05-.03-.1-.07-.14-.11-.04-.04-.1-.04-.14 0-.02.02-.03.04-.03.07s.01.05.03.07c.05.05.11.09.16.14.02.01.04.02.06.02.03 0 .06-.02.08-.04.02-.02.02-.05.02-.07C976.46 621.65 976.44 621.62 976.42 621.61zM976.99 619.52c-.07 0-.14.01-.21.02-.05.01-.09.06-.08.12 0 0 0 0 0 0 0 0 0 0 0 0 .01.05.05.08.1.08.01 0 .01 0 .02 0 .06-.01.12-.02.18-.02.05 0 .1-.05.1-.1 0 0 0 0 0 0 0 0 0 0 0 0C977.09 619.57 977.05 619.52 976.99 619.52L976.99 619.52zM976.9 621.88C976.9 621.88 976.9 621.88 976.9 621.88 976.9 621.88 976.9 621.88 976.9 621.88c0 .05.04.1.1.1.07 0 .14-.01.21-.02.05-.01.09-.06.08-.11 0 0 0 0 0 0 0 0 0 0 0 0-.01-.05-.06-.09-.11-.08-.06.01-.12.02-.18.02C976.95 621.79 976.9 621.83 976.9 621.88zM977.73 621.48c-.02.02-.03.04-.03.07 0 .03.01.05.03.07.02.02.04.03.07.03s.05-.01.07-.03c.05-.05.1-.11.14-.16.02-.02.02-.05.02-.07 0-.02-.02-.05-.04-.06-.04-.03-.11-.02-.14.02C977.81 621.39 977.77 621.44 977.73 621.48zM978.03 620.66c0 .03 0 .06 0 .08 0 0 0 0 0 .01 0 .05.04.1.1.1s.1-.04.1-.1c0-.04 0-.07 0-.11 0-.01 0-.01 0-.02 0-.03-.01-.06-.01-.09 0 0 0 0 0 0 0 0 0 0 0 0-.01-.05-.06-.09-.11-.08-.05.01-.09.06-.08.11 0 .02 0 .03.01.05C978.03 620.63 978.03 620.65 978.03 620.66zM976.15 620.17c.03-.05.07-.1.11-.14.02-.02.03-.04.03-.07 0-.03-.01-.05-.03-.07-.04-.04-.1-.04-.14 0-.05.05-.1.11-.14.17-.02.02-.02.05-.02.07 0 .02.02.05.04.06.02.01.04.02.06.02C976.1 620.21 976.13 620.2 976.15 620.17zM977.59 619.9c.05.03.1.07.14.11.02.02.04.03.07.03.03 0 .05-.01.07-.03.02-.02.03-.04.03-.07 0-.03-.01-.05-.03-.07-.05-.05-.11-.1-.16-.14-.04-.03-.11-.02-.14.02-.02.02-.02.05-.02.07C977.55 619.86 977.57 619.89 977.59 619.9zM930.29 620.37c-.05-.01-.11-.02-.16-.03-.11-.02-.21-.02-.32-.02-1.21 0-2.19.98-2.19 2.19 0 1.21.98 2.19 2.19 2.19s2.19-.98 2.19-2.19C932 621.46 931.27 620.59 930.29 620.37zM929.81 624.18c-.92 0-1.67-.75-1.67-1.67 0-.92.75-1.67 1.67-1.67s1.67.75 1.67 1.67C931.47 623.43 930.72 624.18 929.81 624.18z" class="colorfff svgShape"/><path fill="#ffffff" d="M930.82 622.43c-.01 0-.02 0-.03 0-.02.01-.04.03-.05.05 0 .01-.01.02-.01.03 0 .03 0 .06 0 .08 0 .03-.01.05-.01.08 0 .01 0 .02 0 .03.01.03.03.06.07.07.01 0 .01 0 .02 0 .02 0 .03-.01.05-.02 0 0 .01 0 .01 0 0 0 0 0 0 0 .01-.01.03-.03.03-.05.01-.06.02-.13.02-.19 0-.01 0-.02-.01-.03C930.89 622.46 930.85 622.43 930.82 622.43zM930 621.43c-.06-.01-.13-.02-.19-.02-.03 0-.06.02-.07.04 0 0-.01.01-.01.01 0 .01-.01.02-.01.03 0 .01 0 .02.01.03.01.04.04.06.08.06.02 0 .04 0 .07 0 .03 0 .06.01.09.01 0 0 0 0 0 0 .01 0 .01 0 .01 0 .03 0 .05-.01.07-.04.01-.01.01-.02.02-.04C930.08 621.48 930.05 621.44 930 621.43zM929.81 623.43c-.01 0-.02 0-.02 0-.03 0-.05 0-.08-.01-.02 0-.04 0-.06-.01-.05-.01-.09.02-.1.07-.01.05.02.09.07.1.01 0 .02 0 .04 0 .05.01.1.01.15.01l0 0 0 0c0 0 0 0 .01 0 .03 0 .06-.02.08-.05 0-.01.01-.02.01-.03C929.89 623.47 929.85 623.43 929.81 623.43zM929.3 621.63c-.02-.03-.05-.04-.08-.04-.01 0-.03.01-.04.01-.02.02-.04.03-.06.05-.03.02-.06.05-.08.07-.04.03-.04.09 0 .12 0 0 0 0 0 0 0 0 0 0 0 0 0 0 .01.01.01.01.02.01.03.02.05.02.02 0 .03-.01.05-.02 0 0 .01-.01.01-.01.02-.02.04-.03.06-.05.02-.02.04-.04.07-.05 0 0 0 0 0 0 .02-.01.03-.03.03-.05C929.32 621.67 929.32 621.65 929.3 621.63zM928.88 622.51c0-.04 0-.07.01-.11 0-.02 0-.04.01-.05.01-.04-.01-.07-.04-.09-.01-.01-.02-.01-.03-.01-.02 0-.05 0-.07.01-.02.01-.03.03-.04.06-.01.06-.02.13-.02.19 0 .05.04.09.09.09 0 0 0 0 0 0 0 0 0 0 0 0 .02 0 .05-.01.06-.02 0 0 0 0 0 0 .01-.01.01-.02.02-.02 0 0 0 0 0 0C928.88 622.53 928.88 622.52 928.88 622.51zM930.59 623.2c0-.01-.01-.02-.02-.03-.03-.03-.09-.04-.12 0-.03.03-.07.06-.11.09-.01 0-.01.01-.02.01 0 0-.01.01-.01.01 0 0-.01.01-.01.01-.02.03-.02.07 0 .1.02.03.04.04.07.04 0 0 .01 0 .01 0 .01 0 .01 0 .01 0 .01 0 .02-.01.02-.01.02-.01.03-.02.05-.04.03-.03.07-.05.1-.08.01-.01.02-.02.02-.04C930.6 623.24 930.6 623.22 930.59 623.2zM929.15 623.16c-.04-.04-.07-.08-.1-.12-.02-.02-.04-.03-.06-.04-.01 0-.03 0-.04.01-.01 0-.01 0-.02.01-.01 0-.01.01-.01.01-.01.01-.02.03-.02.04 0 .01 0 .02 0 .02 0 0 0 .01 0 .01 0 0 0 .01.01.01 0 .01 0 .01.01.02.04.05.08.1.12.15.02.02.04.03.06.03s.04-.01.06-.03c.03-.03.03-.08.01-.11C929.16 623.17 929.16 623.16 929.15 623.16zM930.71 621.89c-.01-.02-.02-.03-.04-.05-.03-.03-.05-.07-.09-.1-.02-.03-.06-.03-.09-.02-.01 0-.02.01-.03.02 0 0-.01.01-.01.02-.02.03-.02.08.01.11.04.04.07.08.1.12 0 0 0 0 0 0 .02.03.04.04.07.04.02 0 .03 0 .05-.02C930.73 621.98 930.74 621.93 930.71 621.89zM920.07 619.62C920.07 619.62 920.07 619.62 920.07 619.62 920.07 619.62 920.07 619.62 920.07 619.62c0 .05.04.1.1.1.06 0 .12.01.18.02.01 0 .01 0 .02 0 .05 0 .09-.03.1-.08 0 0 0 0 0 0 0 0 0 0 0 0 .01-.05-.03-.11-.08-.12-.07-.01-.14-.02-.21-.02h0C920.11 619.52 920.07 619.57 920.07 619.62zM920.16 621.79c-.06 0-.12 0-.18-.02-.05-.01-.1.03-.11.08 0 0 0 0 0 0 0 0 0 0 0 0-.01.05.03.1.08.11.07.01.14.02.21.02.05 0 .1-.04.1-.1 0 0 0 0 0 0s0 0 0 0C920.25 621.83 920.21 621.79 920.16 621.79zM919.59 619.77c-.03-.04-.09-.06-.14-.02-.06.04-.11.09-.16.14-.02.02-.03.04-.03.07 0 .03.01.05.03.07.02.02.04.03.07.03s.05-.01.07-.03c.04-.04.09-.08.14-.11.02-.02.04-.04.04-.06C919.61 619.82 919.61 619.79 919.59 619.77zM919.42 621.48c-.04-.04-.08-.09-.12-.14-.03-.04-.09-.06-.14-.02-.02.02-.04.04-.04.06 0 .02 0 .05.02.07.04.06.09.11.14.16.02.02.04.03.07.03s.05-.01.07-.03c.02-.02.03-.04.03-.07C919.45 621.53 919.44 621.5 919.42 621.48zM919.14 620.57c.01-.05-.03-.1-.08-.11-.05-.01-.1.03-.11.08 0 0 0 0 0 0s0 0 0 0c-.01.07-.02.14-.02.21 0 .06.04.1.1.1.05 0 .1-.04.1-.1 0 0 0 0 0 0s0 0 0 0C919.12 620.69 919.13 620.63 919.14 620.57zM920.71 621.74c.02.03.05.04.08.04.02 0 .04-.01.06-.02.06-.04.11-.09.16-.14.02-.02.03-.04.03-.07 0-.03-.01-.05-.03-.07-.04-.04-.1-.04-.14 0-.04.04-.09.08-.14.11-.02.02-.04.04-.04.06C920.69 621.69 920.69 621.72 920.71 621.74zM920.89 620.03c.04.04.08.09.11.14.02.03.05.04.08.04.02 0 .04-.01.06-.02.02-.02.04-.04.04-.06s0-.05-.02-.07c-.04-.06-.09-.11-.14-.17-.04-.04-.1-.04-.14 0-.02.02-.03.04-.03.07C920.86 619.99 920.87 620.01 920.89 620.03zM921.17 620.94c-.01.05.03.1.08.11.01 0 .01 0 .02 0 .05 0 .09-.03.1-.08 0 0 0 0 0 0s0 0 0 0c.01-.07.02-.14.02-.21 0-.05-.04-.1-.1-.1-.05-.01-.09.03-.1.08 0 0 0 .01 0 .01C921.19 620.83 921.18 620.89 921.17 620.94z" class="colorfff svgShape"/><path fill="#ffffff" d="M991.49,613.35l-33.55,3.47c-0.41-2.92-1.32-4.95-2.37-6.35c12.87-2.4,10.59-2.97,10.59-2.97l-12.27,1.27      c-1.85-1.4-3.59-1.47-3.59-1.47h-0.9l-0.69-9.74c-0.01-0.07-0.06-0.12-0.13-0.12s-0.12,0.05-0.13,0.12l-0.69,9.74h-0.9      c0,0-1.75,0.07-3.59,1.47L931,607.51c0,0-2.28,0.57,10.59,2.97c-1.06,1.4-1.97,3.43-2.38,6.35l-33.55-3.47      c0,0-4.05,1.01,14.29,4.95c0,0,0,0,0,0c-1.26,0.1-2.26,1.16-2.26,2.45c0,1.36,1.1,2.46,2.46,2.46s2.46-1.1,2.46-2.46      c0-0.93-0.51-1.74-1.28-2.16c4.58,0.96,10.44,2.09,17.93,3.41c1.4,6.87,8.33,7.06,9.02,7.04c0.69,0.02,8.03-0.17,9.56-7.03      c7.5-1.32,13.37-2.45,17.96-3.41c-0.76,0.42-1.28,1.23-1.28,2.16c0,1.36,1.1,2.46,2.46,2.46s2.46-1.1,2.46-2.46      c0-1.29-0.99-2.35-2.26-2.45c0,0,0,0,0,0C995.54,614.36,991.49,613.35,991.49,613.35z M922.02,620.75      c0,1.03-0.84,1.87-1.87,1.87c-1.03,0-1.87-0.84-1.87-1.87c0-1.03,0.84-1.87,1.87-1.87      C921.19,618.88,922.02,619.72,922.02,620.75z M978.87,620.75c0,1.03-0.84,1.87-1.87,1.87c-1.03,0-1.87-0.84-1.87-1.87      c0-1.03,0.84-1.87,1.87-1.87C978.03,618.88,978.87,619.72,978.87,620.75z M946.19,614.8h-4.69c-0.25,0-0.42-0.23-0.36-0.47      c0.25-0.98,0.68-1.89,1.35-2.7c0.25-0.31,0.64-0.48,1.03-0.48h1.84h0.83v0.15V614.8z M950.5,614.8h-3.75v-3.65h3.75V614.8z       M950.97,611.3v-0.14h0.83h1.84c0.4,0,0.78,0.17,1.03,0.48c0.67,0.81,1.1,1.72,1.35,2.7c0.06,0.24-0.12,0.47-0.36,0.47h-4.69      V611.3z" class="colorfff svgShape"/><g fill="#000000" class="color000 svgShape"><circle cx="887.98" cy="694.94" r="3.93" fill="#ffffff" class="colorfff svgShape"/><circle cx="912.22" cy="694.94" r="3.93" fill="#ffffff" class="colorfff svgShape"/><circle cx="936.46" cy="694.94" r="3.93" fill="#ffffff" class="colorfff svgShape"/><circle cx="960.7" cy="694.94" r="3.93" fill="#ffffff" class="colorfff svgShape"/><circle cx="984.93" cy="694.94" r="3.93" fill="#ffffff" class="colorfff svgShape"/><circle cx="1009.17" cy="694.94" r="3.93" fill="#ffffff" class="colorfff svgShape"/></g></g></g><g fill="#000000" class="color000 svgShape"><path fill="#f0a394" d="M325.13,660.53c6.56,7.13,12.81,13.75,15.76,15.64c7.29,4.67,36.22,34.38,48.58,29.27      c5.38-2.22,5.74-9.6-8.87-23.43c-14.61-13.83-41.09-34.68-49.3-28.29C329.35,655.24,327.14,657.65,325.13,660.53z" class="colorf0a394 svgShape"/><path fill="#f4a887" d="M302.7,707.41c9.58,3.08,27.64-9.61,31.37-12.34c-1.17,0-4.27-1.01-12.45-5.81      c-10.71-6.28,6.6-17.43,17.37-20.52c-7.58-12.08-28.46-32.02-30.02-31.54c-2.63,0.8-15.71,16.62-17.05,19.52      C290.58,659.62,291.98,703.97,302.7,707.41z" class="colorf4a887 svgShape"/><path fill="#f4a887" d="M378.66,640.22c0,0,50.26,29.21,43.37,37.59c-6.88,8.38-33.44-0.86-45.86-12.61      c-12.41-11.75-18.74-18.19-22.56-19.7c-3.82-1.51-10.99,4.22-22.41,1.22c-11.42-3.01-24.93-4.22-24.93-4.22l30.36-24.43      C336.63,618.07,372.99,631.82,378.66,640.22z" class="colorf4a887 svgShape"/><path fill="#f4a887" d="M408.85,696.49c5-7.51-28.85-46.1-38.91-50.99c-10.05-4.89-56.57-4.24-56.57-4.24l2.14,22.59      c0,0,35.51-0.2,37.47,3.72c1.96,3.92,33.73,25.59,40.36,28.65C399.97,699.26,405.14,702.05,408.85,696.49z" class="colorf4a887 svgShape"/><path fill="#f2ced0" d="M334.75,694.57c0,0-0.24,0.18-0.68,0.51C334.91,695.08,334.75,694.57,334.75,694.57z" class="colorf2ced0 svgShape"/><path fill="#ffbc99" d="M416.11,642.22c-0.65,1.21-1.83,2.38-3.55,3.48c-0.1,0.07-0.21,0.13-0.32,0.2      c-0.9-0.57-1.83-1.02-2.8-1.36c-1.21-0.43-2.47-0.69-3.78-0.79c-2.47-0.2-5.12,0.17-7.87,0.98c-0.01,0.01-0.01,0-0.01,0      c-0.64,0.19-1.29,0.4-1.95,0.65c-0.01,0-0.01,0-0.01,0c-0.27,0.09-0.54,0.19-0.81,0.3c-0.4,0.15-0.79,0.31-1.19,0.48      c-0.33,0.14-0.66,0.29-1,0.45h-0.01c-0.7,0.31-1.41,0.65-2.12,1.01c-0.32,0.16-0.64,0.32-0.95,0.5      c-0.34,0.18-0.68,0.37-1.03,0.56c-7.32-1.17-15.93-3.9-25.6-8.86c-9.76-5-17.77-10.87-17.77-10.87s-0.51,0.48-1.41,1.33      c-1.57,1.45-4.32,3.97-7.75,6.91c-1.54,1.32-3.21,2.73-4.96,4.16c-1.68,1.37-3.44,2.77-5.24,4.13c-1.34,1.02-2.7,2.03-4.06,2.99      c-2.49,1.78-5,3.43-7.4,4.84c-1.3,0.75-2.57,1.44-3.8,2.03c-13.79,6.65-14.33,43.43-8.38,49.21v0.01      c-0.37,0.62-0.77,1.3-1.19,2.02c0,0,0,0,0,0.01c-9.1,15.91-25.65,54.54,18.31,68.39c2.22,0.7,4.36,1.32,6.44,1.86      c-15.82,5.19-32.35,29.25-46.72,56.6c-22.39-13.1-43.54-27.94-62.89-44.7c8.14-24.24,11.54-45.32,12.28-55.66      c3.74-52.23,23.31-79.86,34.29-91.77c10.48-11.36,14.93-5.68,24-12.29c7.55-5.5,33.67-22.86,49.32-27.85      c3.06-0.98,5.71-1.48,7.75-1.33c0.08,0.01,0.16,0.01,0.24,0.02c16.69,1.66,34.39,20.15,65.05,32.93      c4.13,1.72,6.53,3.78,7.24,5.9C416.86,639.86,416.74,641.05,416.11,642.22z" class="colorffbc99 svgShape"/><path fill="#ffc4b8" d="M388.72,648.69c10.83,1.73,18.87,0.07,23.53-2.78C405.83,641.82,397.54,643.78,388.72,648.69z" class="colorffc4b8 svgShape"/><path fill="#386a99" d="M889.56,394.84H362.09c-14.31,0-25.91,11.6-25.91,25.91v335.64c0,14.31,11.6,25.91,25.91,25.91h527.47      c14.31,0,25.91-11.6,25.91-25.91V420.74C915.47,406.43,903.87,394.84,889.56,394.84z" class="color386a99 svgShape"/><path fill="#ffffff" d="M361.18,774.54c-9.51,0-17.25-8.14-17.25-18.16V420.74c0-10.01,7.74-18.16,17.25-18.16h501.14      c9.51,0,17.25,8.14,17.25,18.16v335.64c0,10.01-7.74,18.16-17.25,18.16H361.18z" class="colorfff svgShape"/><polygon fill="#c8e7ff" points="478.9 605.9 481.74 611.67 488.11 612.59 483.5 617.08 484.59 623.41 478.9 620.42 473.21 623.41 474.3 617.08 469.69 612.59 476.05 611.67" class="colorc8e7ff svgShape"/><polygon fill="#c8e7ff" points="453.37 605.9 456.22 611.67 462.58 612.59 457.97 617.08 459.06 623.41 453.37 620.42 447.68 623.41 448.77 617.08 444.16 612.59 450.53 611.67" class="colorc8e7ff svgShape"/><polygon fill="#c8e7ff" points="427.84 605.9 430.69 611.67 437.05 612.59 432.45 617.08 433.53 623.41 427.84 620.42 422.15 623.41 423.24 617.08 418.64 612.59 425 611.67" class="colorc8e7ff svgShape"/><polygon fill="#c8e7ff" points="402.31 605.9 405.16 611.67 411.52 612.59 406.92 617.08 408 623.41 402.31 620.42 396.62 623.41 397.71 617.08 393.11 612.59 399.47 611.67" class="colorc8e7ff svgShape"/><polygon fill="#c8e7ff" points="506.76 605.9 509.61 611.67 515.97 612.59 511.37 617.08 512.45 623.41 506.76 620.42 501.07 623.41 502.16 617.08 497.56 612.59 503.92 611.67" class="colorc8e7ff svgShape"/><path fill="#c8e7ff" d="M571.95 658.1H394.74c-.9 0-1.63-.73-1.63-1.63v-.27c0-.9.73-1.63 1.63-1.63h177.21c.9 0 1.63.73 1.63 1.63v.27C573.58 657.36 572.85 658.1 571.95 658.1zM481.71 676.27h-86.97c-.9 0-1.63-.73-1.63-1.63v-.27c0-.9.73-1.63 1.63-1.63h86.97c.9 0 1.63.73 1.63 1.63v.27C483.35 675.54 482.61 676.27 481.71 676.27zM481.71 642.22h-86.97c-.9 0-1.63-.73-1.63-1.63v-.27c0-.9.73-1.63 1.63-1.63h86.97c.9 0 1.63.73 1.63 1.63v.27C483.35 641.49 482.61 642.22 481.71 642.22zM546.73 676.27h-54.29c-.9 0-1.63-.73-1.63-1.63v-.27c0-.9.73-1.63 1.63-1.63h54.29c.9 0 1.63.73 1.63 1.63v.27C548.36 675.54 547.63 676.27 546.73 676.27z" class="colorc8e7ff svgShape"/><polygon fill="#c8e7ff" points="554.73 609.01 554.73 609.01 554.73 609.01" class="colorc8e7ff svgShape"/><path fill="#c8e7ff" d="M562.74 595.39c-7.72-.08-14.13 6.15-14.27 13.86-.05 2.98.81 5.75 2.34 8.05v.01c2.11 2.5 4.14 5.19 6.01 7.93 1.88 2.74 3.58 5.54 5.04 8.27.3.57 1.12.56 1.4-.01 2.64-5.32 7.66-11.31 11.37-16.57 1.33-2.16 2.1-4.7 2.1-7.41C576.73 601.76 570.48 595.46 562.74 595.39zM567.44 617.04c-1.39.9-3.06 1.42-4.84 1.42-1.68 0-3.26-.46-4.61-1.27-2.6-1.57-4.34-4.42-4.34-7.67 0-4.95 4.01-8.95 8.95-8.95s8.95 4 8.95 8.95C571.55 612.67 569.91 615.45 567.44 617.04zM559.3 639.69c0-1.82 1.48-3.3 3.3-3.3 1.82 0 3.3 1.48 3.3 3.3 0 1.82-1.48 3.3-3.3 3.3C560.78 642.99 559.3 641.52 559.3 639.69z" class="colorc8e7ff svgShape"/><polygon fill="#c8e7ff" points="747.98 609.01 747.98 609.01 747.98 609.01" class="colorc8e7ff svgShape"/><path fill="#c8e7ff" d="M755.99 595.39c-7.72-.08-14.13 6.15-14.27 13.86-.05 2.98.81 5.75 2.34 8.05v.01c2.1 2.5 4.14 5.19 6.01 7.93 1.87 2.74 3.59 5.54 5.04 8.27.3.57 1.12.56 1.4-.01 2.64-5.32 7.66-11.31 11.37-16.57 1.33-2.16 2.1-4.7 2.1-7.41C769.98 601.76 763.73 595.46 755.99 595.39zM760.69 617.04c-1.39.9-3.06 1.42-4.84 1.42-1.69 0-3.26-.46-4.61-1.27-2.6-1.57-4.34-4.42-4.34-7.67 0-4.95 4.01-8.95 8.95-8.95s8.95 4 8.95 8.95C764.8 612.67 763.16 615.45 760.69 617.04zM752.55 639.69c0-1.82 1.48-3.3 3.3-3.3 1.82 0 3.3 1.48 3.3 3.3 0 1.82-1.48 3.3-3.3 3.3C754.02 642.99 752.55 641.52 752.55 639.69z" class="colorc8e7ff svgShape"/><path fill="#386a99" d="M742.02,640.46h-9.56c-0.44,0-0.8,0.35-0.8,0.79s0.36,0.8,0.8,0.8h9.56c0.44,0,0.8-0.36,0.8-0.8      S742.46,640.46,742.02,640.46z M722.89,640.46h-9.56c-0.44,0-0.8,0.35-0.8,0.79s0.36,0.8,0.8,0.8h9.56c0.44,0,0.8-0.36,0.8-0.8      S723.33,640.46,722.89,640.46z M703.76,640.46h-9.56c-0.44,0-0.8,0.35-0.8,0.79s0.36,0.8,0.8,0.8h9.56c0.44,0,0.8-0.36,0.8-0.8      S704.2,640.46,703.76,640.46z M684.63,640.46h-9.56c-0.45,0-0.8,0.35-0.8,0.79s0.35,0.8,0.8,0.8h9.56c0.44,0,0.8-0.36,0.8-0.8      S685.07,640.46,684.63,640.46z M665.5,640.46h-9.57c-0.44,0-0.79,0.35-0.79,0.79s0.35,0.8,0.79,0.8h9.57      c0.44,0,0.8-0.36,0.8-0.8S665.94,640.46,665.5,640.46z M646.37,640.46h-9.57c-0.44,0-0.79,0.35-0.79,0.79s0.35,0.8,0.79,0.8      h9.57c0.44,0,0.8-0.36,0.8-0.8S646.81,640.46,646.37,640.46z M627.24,640.46h-9.57c-0.44,0-0.79,0.35-0.79,0.79      s0.35,0.8,0.79,0.8h9.57c0.44,0,0.8-0.36,0.8-0.8S627.68,640.46,627.24,640.46z M608.11,640.46h-9.57      c-0.44,0-0.79,0.35-0.79,0.79s0.35,0.8,0.79,0.8h9.57c0.44,0,0.8-0.36,0.8-0.8S608.55,640.46,608.11,640.46z M588.98,640.46      h-9.57c-0.44,0-0.79,0.35-0.79,0.79s0.35,0.8,0.79,0.8h9.57c0.44,0,0.79-0.36,0.79-0.8S589.42,640.46,588.98,640.46z" class="color386a99 svgShape"/><path fill="#6bc6d0" d="M727.55,659.48H602.42c-8.28,0-14.99,6.71-14.99,14.99v6.44c0,8.28,6.71,14.99,14.99,14.99h125.13     c8.28,0,14.99-6.71,14.99-14.99v-6.44C742.54,666.19,735.83,659.48,727.55,659.48z" class="color6bc6d0 svgShape"/><path fill="#ffffff" d="M649.29 676.67v-.07c.91-.38 1.58-.99 2.02-1.85.44-.85.66-1.95.66-3.31v-1.05c0-2.06-.49-3.58-1.47-4.57s-2.54-1.49-4.67-1.49h-6.25v26.34h6.51c2.06 0 3.62-.53 4.69-1.6 1.07-1.06 1.6-2.61 1.6-4.64v-2.26C652.38 679.21 651.35 677.38 649.29 676.67zM643.72 668.09h2c.73 0 1.26.22 1.6.64.34.43.51 1.12.51 2.07v1.47c0 1-.21 1.72-.62 2.15-.42.42-1.04.64-1.87.64h-1.62V668.09zM648.24 684.31c0 .96-.18 1.63-.53 2.02-.35.39-.89.58-1.62.58h-2.37v-8.09h1.85c.95 0 1.64.23 2.05.7.41.46.62 1.29.62 2.5V684.31zM666.76 664.33v20.4c0 .9-.19 1.55-.55 1.95-.36.41-.88.61-1.56.61s-1.2-.2-1.56-.61c-.37-.4-.55-1.05-.55-1.95v-20.4h-4.14v20.1c0 2.13.53 3.77 1.58 4.91 1.06 1.14 2.59 1.71 4.59 1.71 2.01 0 3.54-.57 4.6-1.71 1.05-1.14 1.58-2.78 1.58-4.91v-20.1H666.76zM686.36 664.33l-2.82 9.67h-.07l-2.83-9.67h-4.4l5.01 15.13v11.21h4.14v-11.21l5-15.13H686.36z" class="colorfff svgShape"/><path fill="#c8e7ff" d="M757.4 432.69H409.87c-1.97 0-3.56-1.59-3.56-3.56v-8.55c0-1.97 1.59-3.56 3.56-3.56H757.4c1.97 0 3.56 1.59 3.56 3.56v8.55C760.96 431.1 759.37 432.69 757.4 432.69zM396.63 432.69h-30.75c-1.19 0-2.15-.96-2.15-2.15v-11.37c0-1.19.96-2.15 2.15-2.15h30.75c1.19 0 2.15.96 2.15 2.15v11.37C398.78 431.73 397.82 432.69 396.63 432.69zM803.3 432.69h-27.93c-1.87 0-3.39-1.52-3.39-3.39v-8.21c0-1.87 1.52-3.39 3.39-3.39h27.93c1.87 0 3.39 1.52 3.39 3.39v8.21C806.69 431.18 805.17 432.69 803.3 432.69z" class="colorc8e7ff svgShape"/><circle cx="592.97" cy="744.64" r="4.55" fill="#fdba35" class="colorfdba35 svgShape"/><circle cx="612.18" cy="744.64" r="4.55" fill="#e04b45" class="colore04b45 svgShape"/><circle cx="631.39" cy="744.64" r="4.55" fill="#386a99" class="color386a99 svgShape"/><path fill="#c8e7ff" d="M858.98 420.69h-36.69c-.58 0-1.05-.47-1.05-1.05v-.17c0-.58.47-1.05 1.05-1.05h36.69c.58 0 1.05.47 1.05 1.05v.17C860.03 420.22 859.56 420.69 858.98 420.69zM858.98 426.33h-36.69c-.58 0-1.05-.47-1.05-1.05v-.17c0-.58.47-1.05 1.05-1.05h36.69c.58 0 1.05.47 1.05 1.05v.17C860.03 425.86 859.56 426.33 858.98 426.33zM858.98 431.98h-36.69c-.58 0-1.05-.47-1.05-1.05v-.17c0-.58.47-1.05 1.05-1.05h36.69c.58 0 1.05.47 1.05 1.05v.17C860.03 431.51 859.56 431.98 858.98 431.98z" class="colorc8e7ff svgShape"/><rect width="72.28" height="56.08" x="788.97" y="456.99" fill="#c8e7ff" class="colorc8e7ff svgShape"/><path fill="#c8e7ff" d="M857.46 527.24h-65.58c-1.42 0-2.57-.77-2.57-1.73l0 0c0-.95 1.15-1.72 2.57-1.72h65.58c1.42 0 2.57.77 2.57 1.72l0 0C860.03 526.47 858.88 527.24 857.46 527.24zM857.46 541.45h-65.58c-1.42 0-2.57-.77-2.57-1.73l0 0c0-.95 1.15-1.72 2.57-1.72h65.58c1.42 0 2.57.77 2.57 1.72l0 0C860.03 540.68 858.88 541.45 857.46 541.45z" class="colorc8e7ff svgShape"/><rect width="72.28" height="56.08" x="788.97" y="553.11" fill="#c8e7ff" class="colorc8e7ff svgShape"/><path fill="#c8e7ff" d="M857.46 623.37h-65.58c-1.42 0-2.57-.77-2.57-1.73l0 0c0-.95 1.15-1.72 2.57-1.72h65.58c1.42 0 2.57.77 2.57 1.72l0 0C860.03 622.59 858.88 623.37 857.46 623.37zM857.46 637.58h-65.58c-1.42 0-2.57-.77-2.57-1.73l0 0c0-.95 1.15-1.72 2.57-1.72h65.58c1.42 0 2.57.77 2.57 1.72l0 0C860.03 636.8 858.88 637.58 857.46 637.58z" class="colorc8e7ff svgShape"/><rect width="72.28" height="56.08" x="788.97" y="649.23" fill="#c8e7ff" class="colorc8e7ff svgShape"/><g fill="#000000" class="color000 svgShape"><path fill="#c8e7ff" d="M857.46 719.49h-65.58c-1.42 0-2.57-.77-2.57-1.73l0 0c0-.95 1.15-1.72 2.57-1.72h65.58c1.42 0 2.57.77 2.57 1.72l0 0C860.03 718.71 858.88 719.49 857.46 719.49zM857.46 733.7h-65.58c-1.42 0-2.57-.77-2.57-1.73l0 0c0-.95 1.15-1.72 2.57-1.72h65.58c1.42 0 2.57.77 2.57 1.72l0 0C860.03 732.93 858.88 733.7 857.46 733.7z" class="colorc8e7ff svgShape"/></g><g fill="#000000" class="color000 svgShape"><path fill="#c1e3f3" d="M744.01 514.66c-.47-.33-1.05-.45-1.62-.4l-157.78 16.33 1.45 22.58C745.82 525.73 746.82 516.65 744.01 514.66zM384.44 514.66c-2.8 1.99-1.81 11.08 157.95 38.52l1.45-22.58-157.78-16.33C385.49 514.2 384.9 514.33 384.44 514.66z" class="colorc1e3f3 svgShape"/><path fill="#239dd3" d="M744.01 514.66c-.36-.25-.79-.38-1.22-.4-4.33 3.98-31.36 13.29-157.16 32.11l.44 6.81C745.82 525.73 746.82 516.65 744.01 514.66zM384.44 514.66c.36-.25.79-.38 1.22-.4 4.33 3.98 31.36 13.29 157.16 32.11l-.44 6.81C382.63 525.73 381.63 516.65 384.44 514.66zM572.58 496.56l64.89-6.72c0 0 11.71 2.91-64.29 15.97L572.58 496.56zM555.87 496.56l-64.89-6.72c0 0-11.71 2.91 64.29 15.97L555.87 496.56zM638.59 552.39c0 .22.03.45.06.67.04.2-.09.39-.29.42-.02 0-.05.01-.07.01-.17 0-.33-.12-.36-.3-.05-.26-.08-.52-.08-.79 0-.2.16-.37.36-.37C638.42 551.99 638.59 552.18 638.59 552.39zM638.97 550.33c-.07 0-.14-.02-.21-.06-.17-.12-.21-.34-.09-.51.15-.22.32-.42.51-.61.14-.14.37-.15.51 0 .14.14.15.37.01.51-.16.16-.3.33-.42.51C639.2 550.27 639.08 550.33 638.97 550.33zM640.28 555.51c.17.12.21.34.09.51-.07.1-.18.16-.3.16-.07 0-.14-.02-.21-.06-.22-.15-.43-.32-.61-.5-.14-.14-.15-.37-.01-.52.14-.14.37-.15.52-.01C639.92 555.24 640.09 555.39 640.28 555.51zM642.4 548.5c-.22 0-.45.02-.66.06-.02 0-.05.01-.07.01-.17 0-.33-.13-.36-.3-.04-.2.1-.39.29-.42.26-.05.52-.07.79-.08.2 0 .37.16.37.36C642.77 548.33 642.6 548.5 642.4 548.5zM643.52 556.42c.04.2-.1.39-.29.42-.26.05-.53.07-.79.07-.2 0-.37-.16-.37-.36 0-.2.17-.37.37-.37.22 0 .45-.02.67-.06C643.29 556.09 643.49 556.22 643.52 556.42zM645.13 549.61c-.16-.15-.33-.3-.51-.42-.17-.12-.21-.35-.09-.51.12-.17.35-.2.51-.09.22.15.42.32.61.5.15.14.15.37.01.52-.07.07-.17.11-.26.11C645.29 549.72 645.2 549.68 645.13 549.61zM646.09 554.45c.17.11.2.35.09.51-.15.22-.32.42-.51.61-.07.07-.17.11-.26.11s-.19-.04-.26-.11c-.14-.14-.14-.37 0-.52.16-.15.3-.33.43-.51C645.7 554.37 645.93 554.33 646.09 554.45zM646.93 551.53c.05.26.07.53.07.79 0 .2-.16.37-.37.37-.2 0-.36-.16-.37-.36 0-.22-.02-.45-.06-.66-.04-.2.09-.39.29-.43C646.7 551.2 646.9 551.33 646.93 551.53z" class="color239dd3 svgShape"/><path fill="#239dd3" d="M642.43,543.2c-0.63,0-1.25,0.06-1.84,0.19c-4.16,0.85-7.3,4.53-7.3,8.95c0,5.05,4.1,9.14,9.14,9.14         c5.05,0,9.14-4.09,9.14-9.14C651.57,547.29,647.48,543.2,642.43,543.2z M642.43,559.29c-3.82,0-6.94-3.12-6.94-6.95         c0-3.83,3.12-6.95,6.94-6.95c3.83,0,6.95,3.12,6.95,6.95C649.38,556.17,646.26,559.29,642.43,559.29z" class="color239dd3 svgShape"/><path fill="#239dd3" d="M638.59 552.39c0 .22.03.45.06.67.04.2-.09.39-.29.42-.02 0-.05.01-.07.01-.17 0-.33-.12-.36-.3-.05-.26-.08-.52-.08-.79 0-.2.16-.37.36-.37C638.42 551.99 638.59 552.18 638.59 552.39zM638.97 550.33c-.07 0-.14-.02-.21-.06-.17-.12-.21-.34-.09-.51.15-.22.32-.42.51-.61.14-.14.37-.15.51 0 .14.14.15.37.01.51-.16.16-.3.33-.42.51C639.2 550.27 639.08 550.33 638.97 550.33zM640.28 555.51c.17.12.21.34.09.51-.07.1-.18.16-.3.16-.07 0-.14-.02-.21-.06-.22-.15-.43-.32-.61-.5-.14-.14-.15-.37-.01-.52.14-.14.37-.15.52-.01C639.92 555.24 640.09 555.39 640.28 555.51zM642.4 548.5c-.22 0-.45.02-.66.06-.02 0-.05.01-.07.01-.17 0-.33-.13-.36-.3-.04-.2.1-.39.29-.42.26-.05.52-.07.79-.08.2 0 .37.16.37.36C642.77 548.33 642.6 548.5 642.4 548.5zM643.52 556.42c.04.2-.1.39-.29.42-.26.05-.53.07-.79.07-.2 0-.37-.16-.37-.36 0-.2.17-.37.37-.37.22 0 .45-.02.67-.06C643.29 556.09 643.49 556.22 643.52 556.42zM645.13 549.61c-.16-.15-.33-.3-.51-.42-.17-.12-.21-.35-.09-.51.12-.17.35-.2.51-.09.22.15.42.32.61.5.15.14.15.37.01.52-.07.07-.17.11-.26.11C645.29 549.72 645.2 549.68 645.13 549.61zM646.09 554.45c.17.11.2.35.09.51-.15.22-.32.42-.51.61-.07.07-.17.11-.26.11s-.19-.04-.26-.11c-.14-.14-.14-.37 0-.52.16-.15.3-.33.43-.51C645.7 554.37 645.93 554.33 646.09 554.45zM647 552.32c0 .2-.16.37-.37.37-.2 0-.36-.16-.37-.36 0-.22-.02-.45-.06-.66-.04-.2.09-.39.29-.43.19-.04.39.1.42.29C646.98 551.79 647 552.06 647 552.32zM678.34 545.07c0 .25.02.5.07.75.04.22-.1.44-.33.48-.03.01-.05.01-.08.01-.19 0-.37-.14-.4-.33-.06-.29-.08-.58-.09-.88 0-.23.18-.41.41-.42C678.14 544.63 678.33 544.84 678.34 545.07zM678.75 542.76c-.08 0-.16-.02-.23-.07-.19-.13-.23-.38-.1-.57.17-.25.35-.48.56-.69.16-.16.42-.16.58 0 .16.16.16.42 0 .58-.17.18-.33.37-.48.58C679.01 542.7 678.88 542.76 678.75 542.76zM680.22 548.58c.19.13.23.38.11.57-.08.12-.21.18-.34.18-.08 0-.16-.02-.23-.07-.25-.17-.48-.36-.69-.56-.17-.16-.17-.42-.01-.58.16-.17.42-.17.58-.01C679.82 548.28 680.01 548.44 680.22 548.58zM682.61 540.72c-.25 0-.5.02-.75.07-.02 0-.05.01-.07.01-.19 0-.37-.14-.4-.33-.04-.23.11-.44.33-.48.29-.05.58-.08.88-.08h0c.23 0 .41.18.41.41C683.01 540.53 682.83 540.71 682.61 540.72zM683.86 549.59c.04.22-.11.44-.33.48-.29.05-.59.07-.89.07-.23 0-.41-.18-.41-.41s.18-.41.41-.41c.25 0 .5-.02.75-.06C683.61 549.22 683.82 549.37 683.86 549.59zM685.66 541.96c-.18-.17-.37-.33-.58-.48-.19-.13-.23-.39-.1-.57.13-.19.38-.23.57-.1.24.17.47.36.69.57.16.16.17.42 0 .58-.08.08-.19.12-.29.12C685.85 542.08 685.74 542.04 685.66 541.96zM686.74 547.38c.19.13.23.39.1.57-.17.24-.36.47-.57.68-.08.08-.19.12-.29.12-.1 0-.21-.04-.29-.12-.16-.16-.16-.42 0-.58.17-.17.33-.37.48-.57C686.3 547.3 686.56 547.25 686.74 547.38zM687.68 544.11c.05.29.08.59.08.89 0 .23-.18.41-.41.41-.23 0-.41-.18-.41-.41 0-.25-.02-.5-.07-.74-.04-.23.11-.44.33-.48C687.42 543.74 687.64 543.89 687.68 544.11z" class="color239dd3 svgShape"/><path fill="#239dd3" d="M683.5,534.8L683.5,534.8c-0.29-0.02-0.57-0.03-0.86-0.03c-1.78,0-3.44,0.45-4.9,1.26h-0.01         c-3.18,1.73-5.34,5.11-5.34,8.99c0,5.66,4.59,10.25,10.25,10.25c5.66,0,10.25-4.59,10.25-10.25         C692.89,539.65,688.76,535.25,683.5,534.8z M682.64,552.81c-4.3,0-7.79-3.49-7.79-7.79s3.49-7.79,7.79-7.79         c4.3,0,7.79,3.49,7.79,7.79S686.94,552.81,682.64,552.81z" class="color239dd3 svgShape"/><path fill="#239dd3" d="M678.34 545.07c0 .25.02.5.07.75.04.22-.1.44-.33.48-.03.01-.05.01-.08.01-.19 0-.37-.14-.4-.33-.06-.29-.08-.58-.09-.88 0-.23.18-.41.41-.42C678.14 544.63 678.33 544.84 678.34 545.07zM678.75 542.76c-.08 0-.16-.02-.23-.07-.19-.13-.23-.38-.1-.57.17-.25.35-.48.56-.69.16-.16.42-.16.58 0 .16.16.16.42 0 .58-.17.18-.33.37-.48.58C679.01 542.7 678.88 542.76 678.75 542.76zM680.22 548.58c.19.13.23.38.11.57-.08.12-.21.18-.34.18-.08 0-.16-.02-.23-.07-.25-.17-.48-.36-.69-.56-.17-.16-.17-.42-.01-.58.16-.17.42-.17.58-.01C679.82 548.28 680.01 548.44 680.22 548.58zM682.61 540.72c-.25 0-.5.02-.75.07-.02 0-.05.01-.07.01-.19 0-.37-.14-.4-.33-.04-.23.11-.44.33-.48.29-.05.58-.08.88-.08h0c.23 0 .41.18.41.41C683.01 540.53 682.83 540.71 682.61 540.72zM683.86 549.59c.04.22-.11.44-.33.48-.29.05-.59.07-.89.07-.23 0-.41-.18-.41-.41s.18-.41.41-.41c.25 0 .5-.02.75-.06C683.61 549.22 683.82 549.37 683.86 549.59zM685.66 541.96c-.18-.17-.37-.33-.58-.48-.19-.13-.23-.39-.1-.57.13-.19.38-.23.57-.1.24.17.47.36.69.57.16.16.17.42 0 .58-.08.08-.19.12-.29.12C685.85 542.08 685.74 542.04 685.66 541.96zM686.74 547.38c.19.13.23.39.1.57-.17.24-.36.47-.57.68-.08.08-.19.12-.29.12-.1 0-.21-.04-.29-.12-.16-.16-.16-.42 0-.58.17-.17.33-.37.48-.57C686.3 547.3 686.56 547.25 686.74 547.38zM687.76 545c0 .23-.18.41-.41.41-.23 0-.41-.18-.41-.41 0-.25-.02-.5-.07-.74-.04-.23.11-.44.33-.48.22-.04.44.1.48.33C687.73 544.41 687.76 544.7 687.76 545z" class="color239dd3 svgShape"/><g fill="#000000" class="color000 svgShape"><path fill="#239dd3" d="M489.86 552.39c0 .22-.03.45-.06.67-.04.2.09.39.29.42.02 0 .05.01.07.01.17 0 .33-.12.36-.3.05-.26.08-.52.08-.79 0-.2-.16-.37-.36-.37C490.03 551.99 489.86 552.18 489.86 552.39zM489.48 550.33c.07 0 .14-.02.21-.06.17-.12.21-.34.09-.51-.15-.22-.32-.42-.51-.61-.14-.14-.37-.15-.51 0-.14.14-.15.37-.01.51.16.16.3.33.42.51C489.25 550.27 489.37 550.33 489.48 550.33zM488.17 555.51c-.17.12-.21.34-.09.51.07.1.18.16.3.16.07 0 .14-.02.21-.06.22-.15.43-.32.61-.5.14-.14.15-.37.01-.52-.14-.14-.37-.15-.52-.01C488.53 555.24 488.36 555.39 488.17 555.51zM486.05 548.5c.22 0 .45.02.66.06.02 0 .05.01.07.01.17 0 .33-.13.36-.3.04-.2-.1-.39-.29-.42-.26-.05-.52-.07-.79-.08-.2 0-.37.16-.37.36C485.69 548.33 485.85 548.5 486.05 548.5zM484.93 556.42c-.04.2.1.39.29.42.26.05.53.07.79.07.2 0 .37-.16.37-.36 0-.2-.17-.37-.37-.37-.22 0-.45-.02-.67-.06C485.16 556.09 484.96 556.22 484.93 556.42zM483.32 549.61c.16-.15.33-.3.51-.42.17-.12.21-.35.09-.51-.12-.17-.35-.2-.51-.09-.22.15-.42.32-.61.5-.15.14-.15.37-.01.52.07.07.17.11.26.11C483.16 549.72 483.25 549.68 483.32 549.61zM482.36 554.45c-.17.11-.2.35-.09.51.15.22.32.42.51.61.07.07.17.11.26.11.09 0 .19-.04.26-.11.14-.14.14-.37 0-.52-.16-.15-.3-.33-.43-.51C482.76 554.37 482.53 554.33 482.36 554.45zM481.52 551.53c-.05.26-.07.53-.07.79 0 .2.16.37.37.37.2 0 .36-.16.37-.36 0-.22.02-.45.06-.66.04-.2-.09-.39-.29-.43C481.75 551.2 481.55 551.33 481.52 551.53z" class="color239dd3 svgShape"/><path fill="#239dd3" d="M487.86,543.39c-0.6-0.13-1.21-0.19-1.84-0.19c-5.05,0-9.14,4.09-9.14,9.14c0,5.05,4.09,9.14,9.14,9.14         c5.04,0,9.14-4.09,9.14-9.14C495.16,547.92,492.02,544.24,487.86,543.39z M486.02,559.29c-3.83,0-6.95-3.12-6.95-6.95         c0-3.83,3.12-6.95,6.95-6.95s6.94,3.12,6.94,6.95C492.96,556.17,489.85,559.29,486.02,559.29z" class="color239dd3 svgShape"/><path fill="#239dd3" d="M489.86 552.39c0 .22-.03.45-.06.67-.04.2.09.39.29.42.02 0 .05.01.07.01.17 0 .33-.12.36-.3.05-.26.08-.52.08-.79 0-.2-.16-.37-.36-.37C490.03 551.99 489.86 552.18 489.86 552.39zM489.48 550.33c.07 0 .14-.02.21-.06.17-.12.21-.34.09-.51-.15-.22-.32-.42-.51-.61-.14-.14-.37-.15-.51 0-.14.14-.15.37-.01.51.16.16.3.33.42.51C489.25 550.27 489.37 550.33 489.48 550.33zM488.17 555.51c-.17.12-.21.34-.09.51.07.1.18.16.3.16.07 0 .14-.02.21-.06.22-.15.43-.32.61-.5.14-.14.15-.37.01-.52-.14-.14-.37-.15-.52-.01C488.53 555.24 488.36 555.39 488.17 555.51zM486.05 548.5c.22 0 .45.02.66.06.02 0 .05.01.07.01.17 0 .33-.13.36-.3.04-.2-.1-.39-.29-.42-.26-.05-.52-.07-.79-.08-.2 0-.37.16-.37.36C485.69 548.33 485.85 548.5 486.05 548.5zM484.93 556.42c-.04.2.1.39.29.42.26.05.53.07.79.07.2 0 .37-.16.37-.36 0-.2-.17-.37-.37-.37-.22 0-.45-.02-.67-.06C485.16 556.09 484.96 556.22 484.93 556.42zM483.32 549.61c.16-.15.33-.3.51-.42.17-.12.21-.35.09-.51-.12-.17-.35-.2-.51-.09-.22.15-.42.32-.61.5-.15.14-.15.37-.01.52.07.07.17.11.26.11C483.16 549.72 483.25 549.68 483.32 549.61zM482.36 554.45c-.17.11-.2.35-.09.51.15.22.32.42.51.61.07.07.17.11.26.11.09 0 .19-.04.26-.11.14-.14.14-.37 0-.52-.16-.15-.3-.33-.43-.51C482.76 554.37 482.53 554.33 482.36 554.45zM481.45 552.32c0 .2.16.37.37.37.2 0 .36-.16.37-.36 0-.22.02-.45.06-.66.04-.2-.09-.39-.29-.43-.19-.04-.39.1-.42.29C481.47 551.79 481.45 552.06 481.45 552.32zM450.12 545.07c0 .25-.02.5-.07.75-.04.22.1.44.33.48.03.01.05.01.08.01.19 0 .37-.14.4-.33.06-.29.08-.58.09-.88 0-.23-.18-.41-.41-.42C450.31 544.63 450.12 544.84 450.12 545.07zM449.7 542.76c.08 0 .16-.02.23-.07.19-.13.23-.38.1-.57-.17-.25-.35-.48-.56-.69-.16-.16-.42-.16-.58 0-.16.16-.16.42 0 .58.17.18.33.37.48.58C449.44 542.7 449.57 542.76 449.7 542.76zM448.23 548.58c-.19.13-.23.38-.11.57.08.12.21.18.34.18.08 0 .16-.02.23-.07.25-.17.48-.36.69-.56.17-.16.17-.42.01-.58-.16-.17-.42-.17-.58-.01C448.63 548.28 448.44 548.44 448.23 548.58zM445.85 540.72c.25 0 .5.02.75.07.02 0 .05.01.07.01.19 0 .37-.14.4-.33.04-.23-.11-.44-.33-.48-.29-.05-.58-.08-.88-.08h0c-.23 0-.41.18-.41.41C445.44 540.53 445.62 540.71 445.85 540.72zM444.59 549.59c-.04.22.11.44.33.48.29.05.59.07.89.07.23 0 .41-.18.41-.41s-.18-.41-.41-.41c-.25 0-.5-.02-.75-.06C444.85 549.22 444.63 549.37 444.59 549.59zM442.79 541.96c.18-.17.37-.33.58-.48.19-.13.23-.39.1-.57-.13-.19-.38-.23-.57-.1-.24.17-.47.36-.69.57-.16.16-.17.42 0 .58.08.08.19.12.29.12C442.6 542.08 442.71 542.04 442.79 541.96zM441.71 547.38c-.19.13-.23.39-.1.57.17.24.36.47.57.68.08.08.19.12.29.12.1 0 .21-.04.29-.12.16-.16.16-.42 0-.58-.17-.17-.33-.37-.48-.57C442.15 547.3 441.89 547.25 441.71 547.38zM440.77 544.11c-.05.29-.08.59-.08.89 0 .23.18.41.41.41.23 0 .41-.18.41-.41 0-.25.02-.5.07-.74.04-.23-.11-.44-.33-.48C441.03 543.74 440.81 543.89 440.77 544.11z" class="color239dd3 svgShape"/><path fill="#239dd3" d="M450.72,536.03L450.72,536.03c-1.47-0.81-3.13-1.26-4.91-1.26c-0.29,0-0.57,0.01-0.85,0.03h-0.01         c-5.26,0.45-9.38,4.85-9.38,10.22c0,5.66,4.58,10.25,10.24,10.25c5.66,0,10.25-4.59,10.25-10.25         C456.06,541.14,453.9,537.76,450.72,536.03z M445.81,552.81c-4.29,0-7.79-3.49-7.79-7.79s3.5-7.79,7.79-7.79         c4.3,0,7.79,3.49,7.79,7.79S450.11,552.81,445.81,552.81z" class="color239dd3 svgShape"/><path fill="#239dd3" d="M450.12 545.07c0 .25-.02.5-.07.75-.04.22.1.44.33.48.03.01.05.01.08.01.19 0 .37-.14.4-.33.06-.29.08-.58.09-.88 0-.23-.18-.41-.41-.42C450.31 544.63 450.12 544.84 450.12 545.07zM449.7 542.76c.08 0 .16-.02.23-.07.19-.13.23-.38.1-.57-.17-.25-.35-.48-.56-.69-.16-.16-.42-.16-.58 0-.16.16-.16.42 0 .58.17.18.33.37.48.58C449.44 542.7 449.57 542.76 449.7 542.76zM448.23 548.58c-.19.13-.23.38-.11.57.08.12.21.18.34.18.08 0 .16-.02.23-.07.25-.17.48-.36.69-.56.17-.16.17-.42.01-.58-.16-.17-.42-.17-.58-.01C448.63 548.28 448.44 548.44 448.23 548.58zM445.85 540.72c.25 0 .5.02.75.07.02 0 .05.01.07.01.19 0 .37-.14.4-.33.04-.23-.11-.44-.33-.48-.29-.05-.58-.08-.88-.08h0c-.23 0-.41.18-.41.41C445.44 540.53 445.62 540.71 445.85 540.72zM444.59 549.59c-.04.22.11.44.33.48.29.05.59.07.89.07.23 0 .41-.18.41-.41s-.18-.41-.41-.41c-.25 0-.5-.02-.75-.06C444.85 549.22 444.63 549.37 444.59 549.59zM442.79 541.96c.18-.17.37-.33.58-.48.19-.13.23-.39.1-.57-.13-.19-.38-.23-.57-.1-.24.17-.47.36-.69.57-.16.16-.17.42 0 .58.08.08.19.12.29.12C442.6 542.08 442.71 542.04 442.79 541.96zM441.71 547.38c-.19.13-.23.39-.1.57.17.24.36.47.57.68.08.08.19.12.29.12.1 0 .21-.04.29-.12.16-.16.16-.42 0-.58-.17-.17-.33-.37-.48-.57C442.15 547.3 441.89 547.25 441.71 547.38zM440.69 545c0 .23.18.41.41.41.23 0 .41-.18.41-.41 0-.25.02-.5.07-.74.04-.23-.11-.44-.33-.48-.22-.04-.44.1-.48.33C440.72 544.41 440.69 544.7 440.69 545z" class="color239dd3 svgShape"/></g><path fill="#c1e3f3" d="M603.63,531.82c-4.35-41.68-32.24-42.83-32.24-42.83h-14.3c0,0-27.9,1.15-32.24,42.83      c-4.87,46.7,34.79,47.83,38.2,47.73C566.46,579.65,608.5,578.52,603.63,531.82z" class="colorc1e3f3 svgShape"/><path fill="#239dd3" d="M563.7,448.42l-3.18,44.82h7.41l-3.18-44.82c-0.02-0.29-0.25-0.52-0.52-0.52l0,0      C563.95,447.9,563.72,448.13,563.7,448.42z" class="color239dd3 svgShape"/><g fill="#000000" class="color000 svgShape"><path fill="#ffffff" d="M593.72,520.23h-19.53v-15.2h11.12c1.65,0,3.25,0.71,4.3,1.98c2.79,3.37,4.59,7.16,5.63,11.25       C595.49,519.26,594.74,520.23,593.72,520.23z" class="colorfff svgShape"/><rect width="15.61" height="15.2" x="556.63" y="505.03" fill="#ffffff" class="colorfff svgShape"/><path fill="#ffffff" d="M534.74,520.23h19.53v-15.2h-11.12c-1.65,0-3.25,0.71-4.3,1.98c-2.79,3.37-4.59,7.16-5.63,11.25       C532.97,519.26,533.71,520.23,534.74,520.23z" class="colorfff svgShape"/></g><path fill="#c1e3f3" d="M586.1,494.95c3.51,15.66,8.13,57.83-35.21,82.75c6.05,1.78,11.04,1.88,12.16,1.85      c3.41,0.09,45.45-1.03,40.58-47.73C601.48,511.19,593.56,500.5,586.1,494.95z" class="colorc1e3f3 svgShape"/></g><g fill="#000000" class="color000 svgShape"><path fill="#1ca0ac" d="M495.42,696.86v57.8c-0.07-0.01-0.14-0.01-0.21-0.01c-1.27,0-2.34,0.89-2.62,2.07       c-0.09,0.36-0.4,0.62-0.77,0.62h-99.22c0-3.64-2.95-6.59-6.59-6.59v-50.02c0-0.39,0.29-0.74,0.68-0.78       c2.66-0.31,4.77-2.42,5.08-5.08c0.05-0.39,0.39-0.68,0.79-0.68h99.27c0.37,0,0.69,0.26,0.77,0.62       c0.28,1.19,1.35,2.07,2.62,2.07C495.28,696.87,495.35,696.87,495.42,696.86z" class="color1ca0ac svgShape"/><path fill="#6bc6d0" d="M536.03,725.76C536.03,725.76,536.03,725.76,536.03,725.76c0,3.43,2.15,6.35,5.15,7.38       c0.32,0.11,0.53,0.41,0.53,0.74v16.94c0,0.4-0.29,0.74-0.68,0.79c-2.65,0.31-4.76,2.41-5.08,5.05       c-0.05,0.39-0.39,0.67-0.79,0.67h-36.56c-0.37,0-0.69-0.26-0.77-0.62c-0.26-1.12-1.23-1.97-2.4-2.06v-57.8       c1.18-0.09,2.14-0.94,2.4-2.06c0.09-0.36,0.4-0.62,0.77-0.62h36.56c0.4,0,0.74,0.29,0.79,0.67c0.32,2.65,2.42,4.75,5.08,5.05       c0.39,0.05,0.68,0.39,0.68,0.78v16.94c0,0.33-0.21,0.64-0.53,0.74C538.18,719.41,536.03,722.33,536.03,725.76z" class="color6bc6d0 svgShape"/><path fill="#f2f2f2" d="M539.11 717.02c.39-.21.63-.61.63-1.05v-13.23c0-.5-.32-.94-.78-1.12-2.03-.81-3.65-2.44-4.46-4.48-.19-.46-.62-.78-1.12-.78h-31.2c-.67 0-1.22.54-1.22 1.21v56.38c0 .67.55 1.21 1.22 1.21h31.22c.5 0 .93-.31 1.11-.77.82-2.02 2.43-3.62 4.45-4.43.46-.19.78-.62.78-1.12v-13.29c0-.44-.24-.84-.63-1.06-3.06-1.71-5.05-5.03-5.05-8.73S536.05 718.74 539.11 717.02zM533.52 725.76c0 3.84 2.04 7.37 5.33 9.21.21.12.34.34.34.58v13.29c0 .27-.17.51-.43.61-2.15.86-3.88 2.59-4.75 4.73-.11.27-.35.44-.61.44h-31.22c-.37 0-.67-.31-.67-.67v-56.38c0-.37.3-.67.67-.67h31.2c.27 0 .51.18.61.44.87 2.17 2.6 3.92 4.76 4.78.27.11.44.35.44.62v13.23c0 .24-.13.46-.34.58C535.56 718.39 533.52 721.92 533.52 725.76zM489.84 696.36h-95.1c-.24 0-.46.07-.65.19-.21.14-.37.34-.47.59-.24.59-.55 1.15-.93 1.67-.87 1.23-2.09 2.21-3.52 2.78-.47.19-.78.62-.78 1.12v46.1c0 .5.31.93.78 1.12 2.02.81 3.64 2.43 4.45 4.45.19.47.62.78 1.12.78h95.1c.67 0 1.22-.54 1.22-1.21v-56.38C491.06 696.9 490.51 696.36 489.84 696.36zM490.51 753.95c0 .36-.3.67-.67.67h-95.1c-.27 0-.51-.18-.61-.44-.87-2.16-2.6-3.89-4.76-4.76-.27-.1-.44-.34-.44-.61v-46.1c0-.27.17-.51.44-.61 1.35-.54 2.53-1.42 3.44-2.54.55-.66 1-1.41 1.32-2.22.1-.27.34-.44.61-.44h95.1c.37 0 .67.3.67.67V753.95z" class="colorf2f2f2 svgShape"/><rect width="2.64" height="1.12" x="494.1" y="700.89" fill="#f2f2f2" class="colorf2f2f2 svgShape"/><rect width="2.64" height="1.12" x="494.1" y="705.75" fill="#f2f2f2" class="colorf2f2f2 svgShape"/><rect width="2.64" height="1.12" x="494.1" y="710.61" fill="#f2f2f2" class="colorf2f2f2 svgShape"/><rect width="2.64" height="1.12" x="494.1" y="715.47" fill="#f2f2f2" class="colorf2f2f2 svgShape"/><rect width="2.64" height="1.12" x="494.1" y="720.34" fill="#f2f2f2" class="colorf2f2f2 svgShape"/><rect width="2.64" height="1.12" x="494.1" y="725.2" fill="#f2f2f2" class="colorf2f2f2 svgShape"/><rect width="2.64" height="1.12" x="494.1" y="730.06" fill="#f2f2f2" class="colorf2f2f2 svgShape"/><rect width="2.64" height="1.12" x="494.1" y="734.92" fill="#f2f2f2" class="colorf2f2f2 svgShape"/><rect width="2.64" height="1.12" x="494.1" y="739.78" fill="#f2f2f2" class="colorf2f2f2 svgShape"/><rect width="2.64" height="1.12" x="494.1" y="744.64" fill="#f2f2f2" class="colorf2f2f2 svgShape"/><rect width="2.64" height="1.12" x="494.1" y="749.51" fill="#f2f2f2" class="colorf2f2f2 svgShape"/><rect width="22.4" height="1.23" x="505.97" y="713.6" fill="#bcbec0" class="colorbcbec0 svgShape"/><rect width="22.4" height="1.23" x="505.97" y="722.29" fill="#bcbec0" class="colorbcbec0 svgShape"/><rect width="22.4" height="1.23" x="505.97" y="725" fill="#bcbec0" class="colorbcbec0 svgShape"/><rect width="22.4" height="1.23" x="505.97" y="727.71" fill="#bcbec0" class="colorbcbec0 svgShape"/><rect width="22.4" height="1.23" x="505.97" y="740.01" fill="#bcbec0" class="colorbcbec0 svgShape"/><rect width="22.4" height="1.23" x="505.97" y="742.78" fill="#bcbec0" class="colorbcbec0 svgShape"/><rect width="22.4" height="1.23" x="505.97" y="745.55" fill="#bcbec0" class="colorbcbec0 svgShape"/><rect width="22.4" height="1.23" x="505.97" y="748.32" fill="#bcbec0" class="colorbcbec0 svgShape"/><rect width="22.4" height="3.94" x="505.97" y="716.31" fill="#bcbec0" class="colorbcbec0 svgShape"/><rect width="22.4" height="7.71" x="505.97" y="730.75" fill="#bcbec0" class="colorbcbec0 svgShape"/><path fill="#bcbec0" d="M520.91 704.76l-2.47-.36c-.06-.01-.11-.05-.14-.1l-1.1-2.23c-.07-.14-.26-.14-.33 0l-1.1 2.23c-.03.05-.08.09-.14.1l-2.47.36c-.15.02-.21.21-.1.31l1.78 1.74c.04.04.06.1.05.16l-.42 2.46c-.03.15.13.26.27.19l2.21-1.16c.05-.03.12-.03.17 0l2.21 1.16c.13.07.29-.04.27-.19l-.42-2.46c-.01-.06.01-.12.05-.16l1.78-1.74C521.13 704.97 521.07 704.78 520.91 704.76zM526.18 707.16c.11-.11.05-.29-.1-.31l-1.23-.18c-.06-.01-.11-.05-.14-.1l-.55-1.11c-.07-.14-.26-.14-.33 0l-.55 1.11c-.03.05-.08.09-.14.1l-1.23.18c-.15.02-.21.21-.1.31l.89.87c.04.04.06.1.05.16l-.21 1.23c-.03.15.13.26.27.19l1.1-.58c.05-.03.12-.03.17 0l1.1.58c.13.07.29-.04.27-.19l-.21-1.23c-.01-.06.01-.12.05-.16L526.18 707.16zM512.43 706.84l-1.23-.18c-.06-.01-.11-.05-.14-.1l-.55-1.11c-.07-.14-.26-.14-.33 0l-.55 1.11c-.03.05-.08.09-.14.1l-1.23.18c-.15.02-.21.21-.1.31l.89.87c.04.04.06.1.05.16l-.21 1.23c-.03.15.13.26.27.19l1.1-.58c.05-.03.12-.03.17 0l1.1.58c.13.07.29-.04.27-.19l-.21-1.23c-.01-.06.01-.12.05-.16l.89-.87C512.64 707.05 512.58 706.87 512.43 706.84z" class="colorbcbec0 svgShape"/><g fill="#000000" class="color000 svgShape"><path fill="#ffffff" d="M398.66 721.91v2.62h4.31v13.57h3.25v-13.57h4.32v-2.62H398.66zM412.9 721.91v16.19h3.25v-16.19H412.9zM429.08 734.67c-.67.39-1.45.58-2.33.58-.94 0-1.78-.22-2.51-.65-.74-.43-1.31-1.05-1.72-1.85s-.62-1.72-.62-2.77c0-1.06.21-1.99.62-2.78s.98-1.4 1.72-1.84c.73-.43 1.57-.65 2.51-.65.88 0 1.66.19 2.33.57.68.38 1.2.95 1.57 1.71h3.74c-.55-1.61-1.5-2.87-2.86-3.78-1.36-.91-2.94-1.37-4.75-1.37-1.55 0-2.95.35-4.19 1.04-1.25.69-2.23 1.65-2.95 2.89-.72 1.24-1.08 2.65-1.08 4.21 0 1.57.36 2.97 1.08 4.2.72 1.23 1.7 2.19 2.95 2.88 1.24.7 2.64 1.04 4.19 1.04 1.82 0 3.41-.45 4.76-1.36 1.36-.9 2.3-2.17 2.85-3.79h-3.74C430.28 733.71 429.76 734.28 429.08 734.67zM443.55 729.94l6.68-8.03h-3.92l-5.89 7.26v-7.26h-3.25v16.19h3.25v-7.21l5.89 7.21h4.11L443.55 729.94zM461.95 724.53v-2.64h-9.4v16.21h9.4v-2.64h-6.15v-4.29h5.45v-2.58h-5.45v-4.06H461.95zM464.03 721.91v2.62h4.32v13.57h3.25v-13.57h4.31v-2.62H464.03zM445.94 712.07c-.05 0-.1 0-.15.01-.03 0-.05.01-.08.01-.45.11-.78.5-.78.99 0 .56.45 1.01 1.01 1.01s1.01-.45 1.01-1.01S446.5 712.07 445.94 712.07zM445.94 713.85c-.42 0-.77-.35-.77-.77 0-.43.35-.77.77-.77.43 0 .77.34.77.77C446.71 713.5 446.37 713.85 445.94 713.85z" class="colorfff svgShape"/><path fill="#ffffff" d="M445.56 712.85c.01 0 .03-.01.03-.02 0 0 0 0 0 0l0 0c.01-.02.03-.04.05-.06.01-.01.01-.03 0-.05 0 0 0 0 0-.01 0 0 0 0 0 0l0 0c0 0 0 0 0 0 0 0-.01-.01-.01-.01-.01-.01-.03 0-.04.01-.01.01-.03.03-.04.04-.01.01-.01.02-.02.02-.01.01-.01.02-.01.03 0 .01.01.02.02.03 0 0 0 0 0 0C445.54 712.85 445.55 712.85 445.56 712.85 445.56 712.85 445.56 712.85 445.56 712.85L445.56 712.85C445.56 712.85 445.56 712.85 445.56 712.85zM445.71 713.43C445.71 713.43 445.7 713.43 445.71 713.43 445.7 713.43 445.7 713.43 445.71 713.43c-.03-.02-.05-.04-.06-.05-.02-.02-.04-.02-.06 0 0 0-.01.01-.01.01 0 .01 0 .02 0 .03 0 .01 0 .01.01.01.01.01.03.03.04.04.01.01.02.01.02.02 0 0 .01 0 .01.01 0 0 0 0 .01 0 0 0 0 0 .01 0 .01 0 .03-.01.03-.02C445.72 713.47 445.72 713.45 445.71 713.43 445.71 713.44 445.71 713.44 445.71 713.43zM445.91 712.65c.01 0 .02 0 .03 0 .01 0 .03-.01.03-.02 0-.01.01-.01.01-.02 0-.02-.02-.04-.04-.04-.03 0-.06 0-.09.01-.02 0-.04.03-.03.05 0 .01 0 .01.01.01.01.01.02.02.03.02 0 0 0 0 .01 0 0 0 0 0 0 0C445.88 712.66 445.89 712.65 445.91 712.65zM446.01 713.5c-.01 0-.02 0-.03 0-.01 0-.02 0-.04 0 0 0-.01 0-.01 0-.01 0-.02 0-.03.01 0 0 0 0 0 .01-.01.01-.01.01-.01.02 0 0 0 0 0 0l0 0c0 .02.02.04.04.04 0 0 0 0 0 0l0 0 0 0c.02 0 .05 0 .07-.01.01 0 .01 0 .02 0 .02 0 .04-.02.03-.05C446.06 713.51 446.04 713.49 446.01 713.5zM446.21 712.75C446.21 712.75 446.21 712.75 446.21 712.75 446.21 712.75 446.21 712.75 446.21 712.75c.01.01.02.02.03.03 0 0 0 0 .01 0 .01 0 .01.01.02.01.01 0 .02 0 .02-.01 0 0 0 0 .01 0 0 0 0 0 0 0 0 0 0 0 0 0 .01-.01.01-.02.01-.03 0-.01 0-.02-.01-.03-.01-.01-.02-.02-.03-.03 0 0 0 0 0 0-.01-.01-.02-.02-.03-.03-.01 0-.01-.01-.02-.01-.01 0-.03 0-.04.02-.01.01-.01.02-.01.03 0 .01.01.02.02.03 0 0 0 0 0 0 0 0 0 0 0 0C446.19 712.73 446.2 712.74 446.21 712.75zM446.36 713.34C446.36 713.34 446.36 713.34 446.36 713.34c0-.02-.01-.02-.01-.03 0 0 0 0 0 0 0 0-.01 0-.01 0-.01 0-.01 0-.02 0-.01 0-.02.01-.03.02-.01.02-.03.04-.05.06 0 0 0 0 0 .01-.01.02-.01.04 0 .05.01.01.02.01.03.01.01 0 .02 0 .03-.01.02-.02.04-.04.06-.07 0 0 0-.01 0-.01C446.36 713.36 446.36 713.35 446.36 713.34 446.36 713.35 446.36 713.35 446.36 713.34zM445.52 713.12c0-.01 0-.03 0-.04 0-.01 0-.01 0-.02 0-.01-.01-.02-.02-.02 0 0-.01 0-.02 0-.02 0-.03.01-.04.03 0 0 0 .01 0 .01 0 .03 0 .06.01.09 0 .01.01.02.02.03.01 0 .01.01.02.01 0 0 .01 0 .01 0 .02 0 .03-.02.03-.03 0 0 0-.01 0-.01C445.52 713.14 445.52 713.13 445.52 713.12zM446.42 712.96c-.01-.01-.02-.01-.03-.01-.01 0-.01 0-.02.01-.01.01-.02.02-.02.04 0 .01 0 .02 0 .03 0 .02 0 .03 0 .05 0 .01 0 .01 0 .02 0 0 0 0 0 0 0 0 0 .01.01.01 0 0 0 0 0 0 .01.01.02.01.03.01 0 0 0 0 0 0 0 0 0 0 0 0 .02 0 .04-.02.04-.04 0-.03 0-.06-.01-.09C446.44 712.98 446.43 712.97 446.42 712.96zM449.92 712.31c0-.01 0-.02 0-.04 0 0 0 0 0 0 0-.03-.02-.05-.05-.04-.02 0-.05.02-.05.05 0 .03 0 .07.01.1 0 0 0 0 0 0 0 0 0 0 0 0 0 .02.02.04.04.04 0 0 .01 0 .01 0 .02 0 .04-.03.04-.05 0-.01 0-.01 0-.02C449.92 712.33 449.92 712.32 449.92 712.31zM450.12 712.66c-.02-.02-.04-.03-.06-.05-.02-.02-.05-.02-.06 0-.01.01-.01.02-.01.03 0 .01 0 .02.01.03.02.02.05.04.08.06.01.01.02.01.03.01.01 0 .03-.01.04-.02.01-.01.01-.02.01-.03C450.14 712.68 450.13 712.67 450.12 712.66zM450.39 711.7c-.03 0-.07 0-.1.01-.02 0-.04.03-.04.05 0 0 0 0 0 0s0 0 0 0c0 .02.02.04.04.04 0 0 .01 0 .01 0 .03 0 .05-.01.08-.01.02 0 .05-.02.05-.05 0 0 0 0 0 0 0 0 0 0 0 0C450.43 711.72 450.41 711.7 450.39 711.7L450.39 711.7zM450.35 712.79C450.35 712.79 450.35 712.79 450.35 712.79 450.35 712.79 450.35 712.79 450.35 712.79c0 .03.02.05.05.05.03 0 .07 0 .1-.01.02 0 .04-.03.04-.05h0c0 0 0 0 0 0 0-.02-.03-.04-.05-.04-.03 0-.05.01-.08.01C450.37 712.74 450.35 712.76 450.35 712.79zM450.73 712.6c-.01.01-.01.02-.01.03 0 .01 0 .02.01.03.01.01.02.01.03.01.01 0 .02 0 .03-.01.02-.02.04-.05.06-.08.01-.01.01-.02.01-.03 0-.01-.01-.02-.02-.03-.02-.01-.05-.01-.06.01C450.77 712.56 450.75 712.58 450.73 712.6zM450.87 712.22c0 .01 0 .03 0 .04 0 0 0 0 0 0 0 .03.02.05.05.05s.05-.02.05-.05c0-.02 0-.03 0-.05 0 0 0-.01 0-.01 0-.01 0-.03-.01-.04 0 0 0 0 0 0s0 0 0 0c0-.02-.03-.04-.05-.04-.02 0-.04.03-.04.05 0 .01 0 .02 0 .02C450.86 712.21 450.86 712.22 450.87 712.22zM450 712c.02-.02.03-.04.05-.06.01-.01.01-.02.01-.03 0-.01 0-.02-.01-.03-.02-.02-.05-.02-.06 0-.02.02-.04.05-.06.08-.01.01-.01.02-.01.03 0 .01.01.02.02.03.01.01.02.01.03.01C449.98 712.02 449.99 712.01 450 712zM450.66 711.88c.02.02.04.03.06.05.01.01.02.01.03.01.01 0 .02 0 .03-.01.01-.01.01-.02.01-.03 0-.01 0-.02-.01-.03-.02-.02-.05-.04-.08-.06-.02-.01-.05-.01-.06.01-.01.01-.01.02-.01.03C450.64 711.86 450.65 711.87 450.66 711.88zM428.87 712.1c-.03-.01-.06-.02-.09-.02-.05-.01-.1-.01-.15-.01-.56 0-1.01.45-1.01 1.01s.45 1.01 1.01 1.01 1.01-.45 1.01-1.01C429.64 712.6 429.31 712.2 428.87 712.1zM428.63 713.85c-.42 0-.77-.35-.77-.77 0-.43.35-.77.77-.77s.77.34.77.77C429.4 713.5 429.05 713.85 428.63 713.85z" class="colorfff svgShape"/><path fill="#ffffff" d="M429.1 713.04c-.01 0-.01 0-.02 0-.01 0-.02.01-.02.02 0 0 0 .01 0 .01 0 .01 0 .03 0 .04 0 .01 0 .02-.01.03 0 .01 0 .01 0 .01 0 .02.02.03.03.03 0 0 .01 0 .01 0 .01 0 .02 0 .02-.01 0 0 0 0 0 0 0 0 0 0 0 0 .01-.01.01-.01.01-.02 0-.03.01-.06.01-.09 0 0 0-.01 0-.01C429.13 713.05 429.11 713.04 429.1 713.04zM428.72 712.58c-.03-.01-.06-.01-.09-.01-.01 0-.03.01-.03.02 0 0 0 0 0 .01 0 0 0 .01 0 .02 0 0 0 .01 0 .01.01.02.02.03.04.03.01 0 .02 0 .03 0 .01 0 .03 0 .04.01 0 0 0 0 0 0 0 0 0 0 .01 0 .01 0 .02-.01.03-.02 0 0 .01-.01.01-.02C428.76 712.6 428.74 712.58 428.72 712.58zM428.63 713.5c0 0-.01 0-.01 0-.01 0-.02 0-.04 0-.01 0-.02 0-.03 0-.02 0-.04.01-.05.03 0 .02.01.04.03.05.01 0 .01 0 .02 0 .02 0 .05.01.07.01l0 0 0 0c0 0 0 0 0 0 .02 0 .03-.01.03-.02 0 0 0-.01 0-.02C428.67 713.52 428.65 713.5 428.63 713.5zM428.4 712.67c-.01-.01-.02-.02-.04-.02-.01 0-.01 0-.02.01-.01.01-.02.01-.03.02-.01.01-.03.02-.04.03-.02.02-.02.04 0 .06 0 0 0 0 0 0 0 0 0 0 0 0 0 0 0 0 .01 0 .01 0 .01.01.02.01.01 0 .02 0 .02-.01 0 0 0 0 .01 0 .01-.01.02-.02.03-.02.01-.01.02-.02.03-.02 0 0 0 0 0 0 .01-.01.01-.02.02-.03C428.41 712.69 428.4 712.68 428.4 712.67zM428.2 713.08c0-.02 0-.03 0-.05 0-.01 0-.02 0-.02 0-.02 0-.03-.02-.04 0 0-.01-.01-.02-.01-.01 0-.02 0-.03.01-.01.01-.01.02-.02.03 0 .03-.01.06-.01.09 0 .02.02.04.04.04 0 0 0 0 0 0h0c.01 0 .02 0 .03-.01 0 0 0 0 0 0 0 0 .01-.01.01-.01 0 0 0 0 0 0C428.2 713.09 428.2 713.08 428.2 713.08zM428.99 713.4c0 0 0-.01-.01-.01-.02-.02-.04-.02-.06 0-.02.01-.03.03-.05.04 0 0-.01 0-.01.01 0 0 0 0-.01.01s0 0-.01.01c-.01.01-.01.03 0 .04.01.01.02.02.03.02 0 0 0 0 .01 0 0 0 0 0 .01 0 0 0 .01 0 .01-.01.01-.01.01-.01.02-.02.02-.01.03-.02.05-.04.01-.01.01-.01.01-.02C428.99 713.41 428.99 713.4 428.99 713.4zM428.33 713.38c-.02-.02-.03-.04-.05-.06-.01-.01-.02-.02-.03-.02-.01 0-.01 0-.02 0 0 0-.01 0-.01 0 0 0 0 0-.01.01-.01.01-.01.01-.01.02 0 0 0 .01 0 .01 0 0 0 0 0 0 0 0 0 0 0 .01 0 0 0 .01 0 .01.02.02.04.05.06.07.01.01.02.01.03.01.01 0 .02 0 .03-.01C428.34 713.42 428.34 713.4 428.33 713.38 428.33 713.38 428.33 713.38 428.33 713.38zM429.05 712.79c-.01-.01-.01-.01-.02-.02-.01-.02-.03-.03-.04-.05-.01-.01-.03-.02-.04-.01 0 0-.01 0-.01.01 0 0 0 0 0 .01-.01.02-.01.04 0 .05.02.02.03.04.05.06 0 0 0 0 0 0 .01.01.02.02.03.02.01 0 .02 0 .02-.01C429.05 712.83 429.06 712.81 429.05 712.79zM424.14 711.74C424.14 711.74 424.14 711.74 424.14 711.74 424.14 711.74 424.14 711.74 424.14 711.74c0 .03.02.05.05.05.03 0 .06 0 .08.01 0 0 .01 0 .01 0 .02 0 .04-.02.04-.04 0 0 0 0 0 0 0 0 0 0 0 0 0-.02-.01-.05-.04-.05-.03-.01-.06-.01-.1-.01h0C424.16 711.7 424.14 711.72 424.14 711.74zM424.18 712.74c-.03 0-.06 0-.08-.01-.02 0-.05.01-.05.04 0 0 0 0 0 0 0 0 0 0 0 0 0 .02.01.05.04.05.03.01.07.01.1.01.02 0 .05-.02.05-.05 0 0 0 0 0 0 0 0 0 0 0 0C424.22 712.76 424.2 712.74 424.18 712.74zM423.92 711.81c-.01-.02-.04-.03-.06-.01-.03.02-.05.04-.08.06-.01.01-.01.02-.01.03 0 .01 0 .02.01.03.01.01.02.01.03.01s.02 0 .03-.01c.02-.02.04-.04.06-.05.01-.01.02-.02.02-.03C423.93 711.83 423.93 711.82 423.92 711.81zM423.84 712.6c-.02-.02-.04-.04-.05-.06-.01-.02-.04-.03-.06-.01-.01.01-.02.02-.02.03 0 .01 0 .02.01.03.02.03.04.05.06.08.01.01.02.01.03.01.01 0 .02 0 .03-.01.01-.01.01-.02.01-.03C423.86 712.62 423.85 712.61 423.84 712.6zM423.71 712.18c0-.02-.01-.05-.04-.05-.02 0-.05.01-.05.04 0 0 0 0 0 0 0 0 0 0 0 0-.01.03-.01.07-.01.1 0 .03.02.05.05.05s.05-.02.05-.05c0 0 0 0 0 0 0 0 0 0 0 0C423.7 712.24 423.71 712.21 423.71 712.18zM424.44 712.72c.01.01.02.02.04.02.01 0 .02 0 .03-.01.03-.02.05-.04.08-.06.01-.01.01-.02.01-.03 0-.01 0-.02-.01-.03-.02-.02-.05-.02-.06 0-.02.02-.04.04-.06.05-.01.01-.02.02-.02.03C424.43 712.7 424.43 712.71 424.44 712.72zM424.52 711.93c.02.02.04.04.05.06.01.01.02.02.04.02.01 0 .02 0 .03-.01.01-.01.02-.02.02-.03 0-.01 0-.02-.01-.03-.02-.03-.04-.05-.06-.08-.02-.02-.05-.02-.06 0-.01.01-.01.02-.01.03C424.51 711.91 424.51 711.93 424.52 711.93zM424.65 712.36c0 .02.01.05.04.05 0 0 .01 0 .01 0 .02 0 .04-.02.04-.04 0 0 0 0 0 0 0 0 0 0 0 0 .01-.03.01-.06.01-.1 0-.03-.02-.05-.05-.05-.02 0-.04.02-.05.04 0 0 0 0 0 .01C424.66 712.3 424.65 712.33 424.65 712.36z" class="colorfff svgShape"/><path fill="#ffffff" d="M457.25,709.02c0-0.12-0.18-0.16-0.18-0.16l-15.47,1.6c-0.18-1.35-0.6-2.28-1.09-2.93        c5.93-1.11,4.88-1.37,4.88-1.37l-5.66,0.59c-0.85-0.65-1.65-0.68-1.65-0.68h-0.42l-0.32-4.49c0-0.04-0.02-0.06-0.05-0.06        c-0.04,0-0.06,0.02-0.06,0.06l-0.32,4.49h-0.41c0,0-0.81,0.03-1.66,0.68l-5.66-0.59c0,0-1.05,0.26,4.88,1.37        c-0.48,0.65-0.9,1.58-1.09,2.93l-15.47-1.6c0,0-1.87,0.46,6.59,2.28c-0.59,0.04-1.04,0.53-1.04,1.13        c0,0.62,0.5,1.13,1.13,1.13c0.63,0,1.13-0.51,1.13-1.13c0-0.43-0.23-0.8-0.58-1c1.16,0.25,2.5,0.52,4.05,0.81        c0.03,0,0.06,0.01,0.09,0.02c1.24,0.23,2.61,0.48,4.12,0.74c0.65,3.17,3.85,3.26,4.17,3.25c0.31,0.01,3.7-0.08,4.4-3.24        c1.52-0.27,2.9-0.52,4.15-0.76c0.03,0,0.05-0.01,0.08-0.01c1.55-0.29,2.89-0.56,4.05-0.81c-0.35,0.2-0.58,0.57-0.58,1        c0,0.62,0.5,1.13,1.13,1.13c0.63,0,1.13-0.51,1.13-1.13c0-0.6-0.45-1.09-1.04-1.13C456.35,709.88,457.25,709.27,457.25,709.02        z M425.04,712.27c0,0.47-0.38,0.86-0.86,0.86s-0.86-0.39-0.86-0.86c0-0.48,0.38-0.87,0.86-0.87S425.04,711.79,425.04,712.27z         M436.18,709.52h-2.16c-0.11,0-0.19-0.1-0.17-0.21c0.12-0.46,0.32-0.88,0.63-1.25c0.11-0.14,0.29-0.22,0.47-0.22h1.23V709.52z         M438.17,709.52h-1.72v-1.68h1.72V709.52z M440.55,709.52h-2.16v-1.68h1.23c0.18,0,0.36,0.08,0.47,0.22        c0.31,0.37,0.51,0.79,0.63,1.25C440.75,709.42,440.66,709.52,440.55,709.52z M451.25,712.27c0,0.47-0.38,0.86-0.86,0.86        c-0.47,0-0.86-0.39-0.86-0.86c0-0.48,0.39-0.87,0.86-0.87C450.87,711.4,451.25,711.79,451.25,712.27z" class="colorfff svgShape"/><g fill="#000000" class="color000 svgShape"><circle cx="409.35" cy="746.48" r="1.81" fill="#ffffff" class="colorfff svgShape"/><circle cx="420.52" cy="746.48" r="1.81" fill="#ffffff" class="colorfff svgShape"/><circle cx="431.7" cy="746.48" r="1.81" fill="#ffffff" class="colorfff svgShape"/><circle cx="442.87" cy="746.48" r="1.81" fill="#ffffff" class="colorfff svgShape"/><circle cx="454.05" cy="746.48" r="1.81" fill="#ffffff" class="colorfff svgShape"/><circle cx="465.22" cy="746.48" r="1.81" fill="#ffffff" class="colorfff svgShape"/></g></g></g><g fill="#000000" class="color000 svgShape"><path fill="#ffbc99" d="M319.46,774.98c2.21,0.7,4.36,1.31,6.44,1.85c1.05-0.96,1.98-1.8,2.78-2.51     c14.1-12.42,39.59-58.22,62.87-80.59c22.59-21.71,29.16-35.67,25.29-43.36c-4.31-8.56-16.18-8.61-28.13-1.7     c-21.52,11.98-65.13,66.61-85.82,56.31c-0.2-0.1-0.37-0.26-0.55-0.43C293.68,718.94,273.5,760.5,319.46,774.98z" class="colorffbc99 svgShape"/><path fill="#ffd7c2" d="M384.12,656.22c-2.67,6.46,10.45,22.79,17.54,20.74c0.51-0.15,19.78-14.9,11.77-26.27      C405.43,639.31,384.12,656.22,384.12,656.22z" class="colorffd7c2 svgShape"/></g><g fill="#000000" class="color000 svgShape"><path fill="#ffbc99" d="M791.33,849.36c9.21,1.13,15.05-10.39,18.91-25.43c0.05,0.43,0.1,0.87,0.16,1.3l0,0       c0.14,1.16,0.3,2.29,0.49,3.4c1.92,11.75,6.2,21.29,14.88,22.37c8.02,1.03,13.52-7.67,17.34-19.94l8.34-52.34       c0.94-23.91-18.22-31.61-30.46-20.52c-0.47,0.42-0.92,0.87-1.36,1.35c-0.88,0.93-1.7,1.96-2.47,3.12       c-0.04,0.04-0.06,0.1-0.1,0.14c-0.23-2.68-1.91-4.9-3.48-6.82c-7.58-9.28-25.86-7.46-32.86,4.44       c-1.29,2.19-5.08,45.77-4.7,63.24C776.3,836.99,781.89,848.17,791.33,849.36z" class="colorffbc99 svgShape"/><path fill="#ffbc99" d="M892.24,855.01c-2.54,15.95-5.05,24.62-5.56,33.63c-37.6,11.84-74.84,20.96-109.72,27.17     c-19.99-14.96-41.04-38.48-53.21-58.93c-7.42-12.47-23.54-25.2-36.82-35.99c-9.11-7.41-16.89-13.89-19.6-18.75     c0-0.01-0.01-0.01-0.01-0.02c-0.25-0.45-0.46-0.88-0.62-1.3c-3.05-7.98,11.76-15.45,26.41-11.23     c22.23,6.4,53.7,40.48,62.49,35.51c4.81-9.84,0.16-25.31-8.45-42.81c-1.25-2.54-2.59-5.13-3.99-7.75     c-14.38-26.85-35.8-57.05-46.08-78.64c-1.9-3.98-3.42-7.68-4.44-11c-4.93-15.98,10.11-26.84,28.69-2.69     c2.08,2.7,5.17,7.5,8.92,13.45c14.02,22.24,37.19,60.53,50.3,65.16c1.43,0.52,2.74,0.62,3.91,0.26     c16.58-5.15,15.44-7.48,26.54,0.88c4.55,3.42,20.15,1.38,36.12,4.3c0.41-0.85,0.99-1.63,1.7-2.33     c4.82-4.68,15.96-5.26,25.17,5.81c2.63,3.17,5.11,7.29,7.24,12.55c2.17,5.36,3.97,11.89,5.2,19.78     C888.01,812.21,893.65,846.2,892.24,855.01z" class="colorffbc99 svgShape"/><path fill="#ffd7c2" d="M667.33 802.14c-2.29-5.2 13.87-9.57 28.45 8.74L686.83 821C686.83 821 670.69 809.78 667.33 802.14zM706.05 702.35c5.26-.83 11.19-4.62 16.08-9.97 0 0-12.84-23.89-22.45-18.26C688.68 680.56 706.05 702.35 706.05 702.35z" class="colorffd7c2 svgShape"/></g></g><g fill="#000000" class="color000 svgShape"><path fill="#6bc6d0" d="M819.93,375.58v110.31c0,7.31,5.93,13.24,13.24,13.24h143.97c7.31,0,13.24-5.93,13.24-13.24V375.58H819.93z" class="color6bc6d0 svgShape"/><path fill="#386a99" d="M972.33,348.52H837.96c-9.96,0-18.04,8.08-18.04,18.04v9.92h170.44v-9.92    C990.37,356.6,982.29,348.52,972.33,348.52z" class="color386a99 svgShape"/><path fill="#ffffff" d="M856.86 339.95c-4.73 0-8.57 3.84-8.57 8.57 0 4.73 3.84 8.57 8.57 8.57v-1.56c-3.86 0-7.01-3.14-7.01-7.01s3.14-7.01 7.01-7.01 7.01 3.14 7.01 7.01h1.56C865.43 343.79 861.59 339.95 856.86 339.95zM876.33 339.95c-4.73 0-8.57 3.84-8.57 8.57 0 4.73 3.84 8.57 8.57 8.57v-1.56c-3.86 0-7.01-3.14-7.01-7.01s3.14-7.01 7.01-7.01c3.87 0 7.01 3.14 7.01 7.01h1.56C884.9 343.79 881.06 339.95 876.33 339.95zM895.8 339.95c-4.73 0-8.57 3.84-8.57 8.57 0 4.73 3.84 8.57 8.57 8.57v-1.56c-3.86 0-7.01-3.14-7.01-7.01s3.14-7.01 7.01-7.01c3.87 0 7.01 3.14 7.01 7.01h1.56C904.37 343.79 900.53 339.95 895.8 339.95zM914.49 339.95c-4.73 0-8.57 3.84-8.57 8.57 0 4.73 3.84 8.57 8.57 8.57v-1.56c-3.87 0-7.01-3.14-7.01-7.01s3.14-7.01 7.01-7.01 7.01 3.14 7.01 7.01h1.56C923.06 343.79 919.23 339.95 914.49 339.95zM933.97 339.95c-4.73 0-8.57 3.84-8.57 8.57 0 4.73 3.84 8.57 8.57 8.57v-1.56c-3.87 0-7.01-3.14-7.01-7.01s3.14-7.01 7.01-7.01c3.86 0 7.01 3.14 7.01 7.01h1.56C942.53 343.79 938.7 339.95 933.97 339.95zM953.44 339.95c-4.73 0-8.57 3.84-8.57 8.57 0 4.73 3.84 8.57 8.57 8.57v-1.56c-3.86 0-7.01-3.14-7.01-7.01s3.14-7.01 7.01-7.01 7.01 3.14 7.01 7.01H962C962 343.79 958.17 339.95 953.44 339.95z" class="colorfff svgShape"/><rect width="17.09" height="17.09" x="841.8" y="401.73" fill="#e04b45" class="colore04b45 svgShape"/><rect width="17.09" height="17.09" x="869.2" y="401.73" fill="#ffffff" class="colorfff svgShape"/><rect width="17.09" height="17.09" x="896.6" y="401.73" fill="#ffffff" class="colorfff svgShape"/><rect width="17.09" height="17.09" x="924.01" y="401.73" fill="#ffffff" class="colorfff svgShape"/><rect width="17.09" height="17.09" x="951.41" y="401.73" fill="#ffffff" class="colorfff svgShape"/><rect width="17.09" height="17.09" x="841.8" y="424.3" fill="#ffffff" class="colorfff svgShape"/><rect width="17.09" height="17.09" x="869.2" y="424.3" fill="#ffffff" class="colorfff svgShape"/><rect width="17.09" height="17.09" x="896.6" y="424.3" fill="#ffffff" class="colorfff svgShape"/><rect width="17.09" height="17.09" x="924.01" y="424.3" fill="#ffffff" class="colorfff svgShape"/><rect width="17.09" height="17.09" x="951.41" y="424.3" fill="#e04b45" class="colore04b45 svgShape"/><rect width="17.09" height="17.09" x="841.8" y="446.87" fill="#ffffff" class="colorfff svgShape"/><rect width="17.09" height="17.09" x="869.2" y="446.87" fill="#ffffff" class="colorfff svgShape"/><rect width="17.09" height="17.09" x="896.6" y="446.87" fill="#ffffff" class="colorfff svgShape"/><rect width="17.09" height="17.09" x="924.01" y="446.87" fill="#ffffff" class="colorfff svgShape"/><rect width="17.09" height="17.09" x="951.41" y="446.87" fill="#e04b45" class="colore04b45 svgShape"/><path fill="#ffffff" d="M854.48 356.14c0-1.32 1.07-2.38 2.38-2.38 1.32 0 2.38 1.07 2.38 2.38 0 1.32-1.07 2.38-2.38 2.38C855.54 358.52 854.48 357.46 854.48 356.14zM873.95 356.14c0-1.32 1.07-2.38 2.38-2.38 1.32 0 2.38 1.07 2.38 2.38 0 1.32-1.07 2.38-2.38 2.38C875.02 358.52 873.95 357.46 873.95 356.14zM893.42 356.14c0-1.32 1.07-2.38 2.38-2.38 1.32 0 2.38 1.07 2.38 2.38 0 1.32-1.07 2.38-2.38 2.38C894.49 358.52 893.42 357.46 893.42 356.14z" class="colorfff svgShape"/><circle cx="915.27" cy="356.14" r="2.38" fill="#ffffff" class="colorfff svgShape"/><path fill="#ffffff" d="M932.36 356.14c0-1.32 1.07-2.38 2.38-2.38 1.32 0 2.38 1.07 2.38 2.38 0 1.32-1.07 2.38-2.38 2.38C933.43 358.52 932.36 357.46 932.36 356.14zM951.83 356.14c0-1.32 1.07-2.38 2.38-2.38 1.32 0 2.38 1.07 2.38 2.38 0 1.32-1.07 2.38-2.38 2.38C952.9 358.52 951.83 357.46 951.83 356.14z" class="colorfff svgShape"/></g><g fill="#000000" class="color000 svgShape"><polygon fill="#386a99" points="1008.42 502.58 1008.42 502.58 1008.42 502.58" class="color386a99 svgShape"/><path fill="#386a99" d="M1043.17 501.33c-.51-8.65-6.43-16.6-14.53-19.65.01 0 .01.01.02.01-19.87-8.4-39.59 16.32-27.18 33.79h0v0c6.79 8.06 13.12 17.32 17.81 26.11.48.91 1.79.89 2.25-.03C1027.29 527.62 1043.88 517.62 1043.17 501.33zM1021.82 488.59c17.85 1.6 16.67 28.81-1.35 28.76C1000.81 517.2 1002.11 486.93 1021.82 488.59zM1025.99 550.43c-.36-2.04-1.98-3.73-3.99-4.2 0 0 0 0 .01.01-5.45-1.5-9 6.23-4.43 9.42 0 0-.01 0-.01 0C1021.25 558.58 1027 555.06 1025.99 550.43z" class="color386a99 svgShape"/></g></svg>