<svg xmlns="http://www.w3.org/2000/svg" xmlns:xlink="http://www.w3.org/1999/xlink" version="1.1" id="Layer_1" x="0px" y="0px" width="100%" viewBox="0 0 1920 1920" enable-background="new 0 0 1920 1920" xml:space="preserve">

<path fill="#0E2243" opacity="1.000000" stroke="none" d=" M924.704956,1056.891602   C924.705017,1056.891602 924.278748,1056.911743 923.811401,1057.128418   C920.729370,1059.177979 918.114624,1061.010986 915.499878,1062.843994   C909.407715,1066.655151 903.315491,1070.466431 896.639404,1074.537842   C894.258850,1076.052856 892.462158,1077.307617 890.665405,1078.562500   C890.187439,1078.853271 889.709412,1079.144043 888.691528,1079.667236   C885.984253,1081.436401 883.816772,1082.973145 881.649292,1084.509766   C881.649292,1084.509888 881.255798,1084.683960 880.697388,1084.793091   C877.975403,1085.946411 875.811707,1086.990601 873.648010,1088.034790   C873.655945,1007.058655 873.663879,926.082581 873.803955,844.247437   C874.793579,838.329224 871.045654,839.643372 868.535522,839.642090   C791.848755,839.602905 715.162048,839.621460 638.475342,839.539246   C636.342285,839.536926 634.210327,838.528809 632.113098,837.612915   C632.069336,836.489746 631.990234,835.743225 631.911194,834.996765   C631.990967,828.025757 632.135925,821.054871 632.139709,814.083801   C632.159851,776.700012 632.144836,739.316284 632.295776,701.158813   C632.619812,699.480469 632.790161,698.575745 632.960449,697.671082   C771.690613,697.655457 910.420715,697.638306 1049.150879,697.625061   C1104.942871,697.619751 1160.734863,697.659851 1216.526611,697.544495   C1220.515015,697.536255 1222.605713,698.456299 1224.135620,702.531860   C1233.581665,727.695740 1236.166260,753.243958 1229.349609,780.158081   C1223.709106,800.403870 1214.434082,818.111389 1203.099609,834.878967   C1200.749268,838.355713 1198.351807,840.626587 1194.020874,840.163330   C1191.631348,840.105896 1189.241699,840.048462 1185.955444,839.987915   C1154.500122,839.975037 1123.941406,839.944214 1093.382812,839.966492   C1081.930298,839.974854 1070.477905,840.106750 1059.025391,840.182312   C1058.265869,840.120056 1057.506470,840.057800 1055.939453,839.992920   C1053.020386,839.990173 1050.908936,839.990173 1048.596436,839.990173   C1048.480835,841.769287 1048.323242,843.068848 1048.322876,844.368469   C1048.310913,882.433472 1048.311523,920.498413 1048.329468,958.563416   C1048.330078,959.712524 1048.536743,960.861572 1048.647339,962.010620   C1048.523071,966.047485 1048.398804,970.084412 1047.973633,974.726196   C1046.953125,975.940125 1046.233643,976.549072 1045.514160,977.158020   C1045.514160,977.158020 1045.298096,977.221436 1044.904785,977.387573   C1038.915039,981.492981 1033.318848,985.432251 1027.722656,989.371643   C1027.204834,989.628845 1026.686890,989.885986 1025.672119,990.476807   C1011.967407,999.650330 998.759644,1008.490051 985.551880,1017.329834   C985.551880,1017.329834 985.440918,1017.394470 985.086914,1017.567627   C977.111938,1022.795044 969.491028,1027.849243 961.870056,1032.903442   C961.870056,1032.903442 961.943787,1032.978271 961.584778,1032.981201   C950.841309,1039.786865 940.456848,1046.589600 930.072388,1053.392334   C929.744202,1053.312012 929.462769,1053.393311 928.793091,1053.899658   C927.140381,1055.072632 925.922668,1055.982056 924.704956,1056.891602  z"/>
<path fill="#0196FE" opacity="1.000000" stroke="none" d=" M1266.958008,895.053162   C1266.834229,895.604919 1266.710449,896.156677 1266.028076,896.887451   C1263.455811,897.255249 1261.442139,897.444031 1259.640625,897.612915   C1259.951660,900.412720 1261.319092,903.573914 1260.329102,905.559875   C1257.586792,911.060242 1253.735229,915.996033 1250.596802,921.317017   C1249.546875,923.097046 1249.326416,925.366394 1248.726807,927.412109   C1248.726807,927.412109 1248.688354,927.550537 1248.281738,927.508789   C1246.624512,928.402588 1245.050293,929.108276 1244.189819,930.320679   C1242.304810,932.976318 1240.781738,935.888977 1239.110962,938.696655   C1238.758301,938.265808 1238.405762,937.834961 1238.053101,937.404114   C1236.459229,938.248535 1234.106689,938.715454 1233.453613,940.028076   C1232.531616,941.881531 1232.866089,944.360168 1232.655396,946.659668   C1230.647583,946.072571 1229.215088,945.653687 1228.918579,945.566956   C1228.289185,948.169922 1228.094360,950.372070 1227.215820,952.255249   C1226.121338,954.601624 1224.329468,955.890381 1221.739136,953.658752   C1221.421265,953.384949 1219.842407,953.838989 1219.724731,954.223755   C1219.487427,955.000122 1219.693115,956.022705 1220.005493,956.831970   C1220.563965,958.278992 1221.336792,959.643250 1222.019897,961.042114   C1222.019897,961.042114 1222.000244,960.998535 1221.657227,961.000671   C1219.280518,962.551941 1217.246948,964.101074 1215.017090,965.799805   C1213.246582,963.244141 1211.297485,961.301208 1209.772217,965.264893   C1210.522827,967.428772 1211.645142,970.265320 1210.736938,971.274414   C1205.557617,977.029297 1200.001343,982.461670 1194.371216,987.790222   C1185.401123,996.279663 1176.272217,1004.601440 1167.539673,1012.689392   C1166.020874,1012.348816 1164.527832,1012.013977 1163.034668,1011.679077   C1162.875732,1013.024963 1162.790039,1014.385132 1162.529419,1015.710999   C1162.380737,1016.467834 1162.141357,1017.568481 1161.609131,1017.826660   C1159.103516,1019.042114 1156.482544,1020.019653 1153.519653,1021.239746   C1153.613525,1021.499207 1154.139038,1022.951965 1154.951660,1025.198608   C1152.122559,1025.370239 1149.866211,1025.507202 1148.351685,1025.599121   C1148.125977,1027.423584 1147.936035,1028.958740 1147.746094,1030.493896   C1146.187134,1029.766846 1144.628296,1029.039673 1142.623779,1028.104736   C1138.255249,1032.104614 1139.550781,1041.619873 1130.690186,1041.391113   C1130.516357,1042.751831 1130.381714,1043.806396 1130.224609,1045.036377   C1128.134155,1044.759155 1126.406616,1044.530029 1124.306030,1044.251465   C1125.154785,1048.923096 1123.330566,1051.046021 1118.953003,1051.302490   C1117.787842,1051.370605 1116.605713,1052.449829 1115.575562,1053.250488   C1113.451050,1054.901611 1111.423584,1056.677612 1109.159668,1058.566284   C1109.275635,1058.693359 1110.030518,1059.521118 1111.593018,1061.234375   C1107.115723,1063.433716 1103.227173,1065.278320 1099.415283,1067.269409   C1098.615234,1067.687256 1098.108521,1068.655151 1097.446045,1069.350098   C1096.167358,1070.692017 1095.024780,1072.223389 1093.555786,1073.311646   C1090.428223,1075.628662 1086.322876,1077.101196 1084.092163,1080.039062   C1080.964478,1084.158081 1078.070557,1085.057495 1072.885620,1081.312866   C1076.130981,1089.418091 1071.476440,1089.425293 1066.427368,1089.169434   C1068.974731,1093.563354 1065.664551,1095.046387 1063.297852,1096.832886   C1058.990356,1100.084106 1054.273682,1102.858398 1050.294922,1106.458496   C1047.363403,1109.111328 1045.116821,1111.499512 1042.149170,1107.953125   C1041.204712,1110.303467 1040.926270,1113.218384 1039.329712,1114.533325   C1035.281128,1117.867798 1030.326294,1120.118286 1026.359375,1123.529419   C1024.058228,1125.508301 1022.785400,1126.688110 1020.386902,1124.117676   C1019.970642,1123.671509 1018.706848,1124.016235 1017.834473,1123.995605   C1018.002441,1124.848389 1018.039062,1125.758545 1018.378418,1126.536377   C1018.670105,1127.204956 1019.307617,1127.722534 1020.664978,1129.359497   C1016.607422,1130.708496 1013.310669,1131.804565 1009.685852,1133.009766   C1012.113831,1139.253540 1006.487854,1137.380981 1002.609619,1137.279541   C1003.402954,1142.273071 1000.273132,1143.677979 996.761414,1145.143433   C993.208984,1146.625488 989.639893,1148.314575 986.540466,1150.552979   C984.296204,1152.173950 983.109375,1155.218506 980.922180,1156.966675   C975.012573,1161.689819 966.509155,1162.850708 962.560852,1170.468628   C962.181458,1171.200684 959.421509,1170.789185 957.771484,1170.742065   C956.602783,1170.708862 955.442200,1170.394531 954.448547,1170.233521   C954.910034,1172.979004 955.803223,1175.426147 955.297668,1175.760864   C952.476807,1177.628540 949.317505,1178.985107 946.948120,1180.177124   C943.391968,1183.241699 940.264771,1185.936646 937.140198,1188.629395   C935.746643,1188.188232 934.443359,1187.775757 934.003662,1187.636597   C932.275635,1189.795776 931.252380,1191.591309 929.760681,1192.816772   C927.525696,1194.652832 924.296936,1195.595581 922.669006,1197.791504   C918.641968,1203.223877 913.526733,1207.027832 907.748108,1210.269897   C905.799194,1211.363281 904.261292,1213.215576 902.600647,1214.789673   C900.706665,1216.584839 899.424988,1219.872681 895.846863,1217.297363   C895.710999,1217.199463 894.645386,1218.393433 894.006531,1218.992676   C894.000000,1219.000000 893.986206,1219.014648 893.620178,1219.033691   C892.365112,1220.204712 891.242981,1221.249756 890.651367,1222.538208   C890.037964,1223.874390 890.354797,1226.373657 889.535828,1226.741577   C887.085815,1227.841919 884.279297,1228.148438 881.393921,1228.815308   C881.640381,1229.482422 882.174438,1230.927734 883.155823,1233.583740   C879.554932,1233.583740 876.721558,1233.583740 873.469604,1233.583740   C874.552490,1235.212646 875.314819,1236.359375 876.352844,1237.920654   C872.913757,1240.368896 869.727417,1242.637207 865.998779,1245.291382   C865.969788,1245.521240 866.345520,1248.067749 865.405701,1248.720581   C863.941956,1249.737549 861.584717,1249.468262 859.618652,1249.742432   C861.785889,1255.743530 859.195007,1258.907227 851.885925,1258.078125   C852.653809,1260.256104 853.309937,1262.117065 853.966064,1263.978149   C853.546509,1263.821167 853.126953,1263.664185 852.707397,1263.507202   C849.305603,1269.454590 845.903809,1275.402100 842.273132,1281.749634   C842.281860,1281.749634 840.914307,1281.749634 839.546753,1281.749634   C839.698608,1282.978638 839.862671,1284.206177 839.998840,1285.436890   C840.119263,1286.525024 840.447327,1287.656982 840.270447,1288.699463   C839.476440,1293.379150 838.244263,1298.000732 837.707947,1302.704468   C836.637451,1312.093384 836.288879,1321.368652 839.438538,1330.679932   C840.646545,1334.251221 845.483582,1338.956787 838.341125,1342.885498   C842.331299,1346.343262 845.809692,1349.357544 849.434387,1352.498657   C849.326233,1353.999390 849.181519,1356.007568 849.036865,1358.015747   C849.346924,1358.083130 849.657043,1358.150513 849.967102,1358.217896   C850.618652,1357.214966 851.270203,1356.211914 852.679932,1354.041870   C853.594177,1355.572266 854.180786,1356.563354 854.776306,1357.549194   C856.289551,1360.054321 857.408264,1362.952148 859.410950,1364.973389   C862.907776,1368.502563 866.787964,1371.718384 870.835571,1374.605713   C872.678467,1375.920166 874.955688,1378.400879 877.820984,1375.496094   C878.347046,1374.962769 880.372620,1375.435913 881.427307,1375.982422   C885.004700,1377.836304 888.240601,1380.860107 892.003174,1381.737427   C899.458374,1383.475952 907.147400,1384.480103 914.795044,1385.064087   C927.674011,1386.047852 940.443054,1388.773804 953.558228,1386.188232   C961.634888,1384.596069 970.036987,1384.610840 978.303955,1384.072632   C979.664734,1383.984131 981.074707,1384.796265 982.474915,1385.139038   C985.636536,1385.913330 988.806213,1386.654297 991.972656,1387.408936   C992.093323,1386.822754 992.213989,1386.236572 992.334717,1385.650391   C990.566833,1385.125122 988.799011,1384.599731 986.451355,1383.902222   C987.555969,1382.846558 987.861145,1382.287720 988.244568,1382.227783   C997.536316,1380.771484 1006.839172,1379.387085 1016.133789,1377.949097   C1021.515930,1377.116211 1026.991211,1376.611938 1032.238281,1375.244507   C1039.760620,1373.284180 1047.104858,1370.644165 1054.551636,1368.381836   C1055.214844,1368.180298 1056.083984,1368.784546 1056.839478,1368.735352   C1059.025635,1368.592896 1061.478271,1368.877930 1063.335327,1367.979980   C1071.273926,1364.142212 1078.595825,1358.522217 1088.328491,1360.858887   C1089.886841,1361.233032 1091.651123,1360.748779 1093.320190,1360.661255   C1093.306763,1360.249390 1093.293213,1359.837524 1093.279785,1359.425659   C1091.188843,1359.209351 1089.098022,1358.993042 1087.007080,1358.776611   C1093.968872,1355.427490 1101.127197,1353.203857 1108.281494,1350.967285   C1109.364502,1350.628662 1110.866089,1350.558350 1111.430908,1349.806152   C1115.175659,1344.818970 1120.791382,1344.820801 1126.107300,1343.857788   C1127.286133,1343.644165 1129.361938,1342.465088 1129.284912,1342.125122   C1128.174561,1337.229614 1132.603394,1338.305420 1134.672607,1337.068604   C1139.900269,1333.943970 1145.343628,1331.178711 1150.557129,1328.031860   C1155.460449,1325.072388 1160.180420,1321.809326 1165.607788,1318.271240   C1166.476074,1323.225586 1158.850342,1323.869873 1163.468750,1328.805176   C1161.300293,1328.490479 1159.898193,1327.504639 1158.541138,1327.563354   C1157.533936,1327.606934 1155.639160,1329.529297 1155.748047,1329.726318   C1158.981445,1335.578247 1154.618408,1334.864990 1151.270142,1335.059814   C1148.924805,1335.196167 1146.581543,1335.368774 1144.237427,1335.525146   C1144.257690,1336.091064 1144.278076,1336.656982 1144.298462,1337.222778   C1146.060303,1337.673584 1147.822266,1338.124390 1149.584229,1338.575195   C1149.750488,1339.067383 1149.916626,1339.559570 1150.082886,1340.051636   C1147.399048,1341.407104 1144.715210,1342.762573 1141.957642,1344.155151   C1142.788574,1347.173218 1138.446411,1352.815186 1133.901855,1354.036987   C1132.688110,1354.363403 1131.270874,1354.718872 1130.441284,1355.552734   C1126.719360,1359.294434 1123.175781,1363.213501 1120.047852,1366.555420   C1117.590576,1365.296265 1115.914673,1364.437378 1114.238770,1363.578613   C1114.490723,1365.226318 1114.742554,1366.874146 1115.084839,1369.113037   C1114.192017,1369.834595 1112.827393,1371.597046 1111.075317,1372.164917   C1109.377808,1372.715210 1107.282349,1372.037598 1105.114990,1371.881592   C1108.143433,1381.019531 1100.581787,1376.053223 1097.764771,1377.401978   C1098.686523,1380.953613 1097.116333,1382.663940 1092.477905,1385.050781   C1086.393311,1388.181641 1080.511475,1391.717773 1074.625000,1395.218384   C1070.402954,1397.729248 1066.517944,1400.882080 1062.126709,1403.016724   C1053.592163,1407.165527 1044.789062,1410.758301 1036.132202,1414.659302   C1028.610718,1418.048828 1021.143311,1421.558472 1013.635437,1424.978760   C1012.737122,1425.387939 1011.750549,1425.739014 1010.778320,1425.828247   C1005.334656,1426.327148 999.880371,1426.710571 994.438232,1427.224609   C993.965088,1427.269287 993.554321,1427.974976 992.781921,1428.675171   C994.198853,1429.552246 995.247681,1430.201660 996.296570,1430.851074   C993.214233,1432.287842 990.260864,1432.449341 987.412720,1433.083252   C982.072754,1434.271851 976.395447,1434.918457 971.581299,1437.270264   C964.098938,1440.925293 956.781128,1443.262329 948.479980,1441.182861   C947.624268,1440.968506 946.628418,1441.313599 945.697571,1441.399170   C945.417358,1441.788330 945.137085,1442.177490 944.856812,1442.566650   C945.994202,1442.816650 947.131531,1443.066650 948.268921,1443.316650   C938.389709,1445.534668 929.450867,1447.133789 920.441162,1447.922119   C908.557129,1448.962036 896.623718,1449.545288 884.698730,1449.956787   C879.754150,1450.127441 874.781250,1449.183838 869.812866,1449.043945   C865.079346,1448.910767 861.824951,1442.865112 856.370422,1445.793823   C856.186523,1445.892578 855.446228,1445.364258 855.257629,1444.983521   C852.687195,1439.792358 848.485352,1440.832275 844.085632,1441.786743   C838.597778,1442.977173 833.487000,1440.108643 831.994202,1435.418335   C829.617371,1435.760864 826.894165,1437.018433 824.961426,1436.260498   C820.243103,1434.410034 815.832092,1431.727417 811.419312,1429.169556   C809.606873,1428.118774 808.244019,1425.613770 806.442261,1425.345703   C800.076721,1424.398560 797.026245,1418.511230 791.698181,1416.135376   C791.019226,1415.832642 790.798096,1414.503052 790.357849,1413.635376   C792.764404,1414.027710 794.663940,1414.337280 796.563416,1414.646973   C792.279602,1409.007812 790.101013,1408.594360 785.864746,1411.980225   C785.500671,1410.125610 785.606628,1408.331543 784.812683,1407.133911   C783.408691,1405.016235 783.616638,1400.030396 779.520142,1401.914062   C776.476990,1403.313232 775.361694,1402.384155 774.634521,1400.246948   C773.904053,1398.099854 774.000427,1395.671509 773.713745,1393.187500   C772.434631,1393.632568 770.981079,1394.138306 768.711914,1394.927856   C768.711914,1391.415039 768.711914,1388.529907 768.711914,1385.644653   C768.461182,1385.581909 768.210388,1385.519165 767.959656,1385.456421   C767.361389,1386.538574 766.763184,1387.620850 765.962280,1389.069702   C761.385193,1383.705566 757.531738,1379.653564 757.845581,1373.335205   C757.901062,1372.217896 756.851868,1371.003906 756.198914,1369.902100   C754.824768,1367.583374 753.078552,1365.435791 752.033997,1362.984131   C750.815613,1360.124268 750.877563,1356.526489 749.171814,1354.101562   C743.064087,1345.418457 744.572083,1334.991089 742.285767,1325.487427   C740.693787,1318.870117 741.865662,1311.559570 742.030640,1304.564087   C742.086609,1302.189209 743.616699,1299.656738 743.132996,1297.496216   C741.430298,1289.889526 744.424927,1283.056396 746.070312,1276.033691   C747.154297,1271.407104 749.225220,1267.019775 750.479492,1262.423096   C751.785522,1257.636841 752.641357,1252.727783 753.648804,1248.080933   C755.642578,1248.374023 757.080994,1248.585327 760.510193,1249.089233   C755.435974,1243.694458 756.732727,1240.026978 760.450439,1236.728882   C760.670715,1236.533447 760.678650,1236.113525 760.824036,1235.816772   C763.632874,1230.084473 766.381226,1224.320190 769.335144,1218.663330   C769.763062,1217.843750 771.162415,1217.501587 772.148376,1217.010864   C773.347351,1216.414062 774.584656,1215.894165 775.805298,1215.340942   C774.928833,1214.421509 774.052368,1213.501953 772.843018,1212.233154   C774.274048,1210.223511 775.754028,1208.145142 776.910217,1206.521362   C779.130249,1207.158447 780.648865,1207.594360 782.167419,1208.030151   C781.409668,1206.225098 780.651917,1204.419922 779.577942,1201.861572   C782.601929,1198.929199 786.219421,1195.428223 789.825928,1191.915894   C790.294800,1191.459106 791.066956,1190.961426 791.091492,1190.453369   C791.457336,1182.886963 799.205444,1180.873291 802.497375,1175.397705   C804.373413,1172.277222 808.510376,1170.515991 811.358032,1168.349121   C812.055603,1166.911987 812.427429,1165.133179 813.512695,1164.114136   C816.040894,1161.739868 818.935791,1159.759766 821.639282,1157.567139   C825.147827,1154.721313 828.584900,1151.787109 832.108093,1148.959839   C835.422546,1146.300049 838.737671,1143.626465 842.230957,1141.217896   C842.837402,1140.799805 844.382935,1141.544678 845.399231,1141.977051   C846.376160,1142.392822 847.229187,1143.099854 848.136719,1143.678833   C848.457764,1143.460205 848.778809,1143.241577 849.099915,1143.022949   C848.295166,1141.157104 847.490479,1139.291260 846.379639,1136.715820   C848.709290,1136.715820 850.797241,1137.069946 852.680603,1136.601562   C854.136414,1136.239502 855.335876,1134.846558 856.649292,1133.911987   C853.946838,1131.041992 856.432434,1129.926880 858.459229,1128.781250   C860.521606,1127.615601 863.364014,1125.170410 864.662231,1125.793091   C869.216553,1127.977295 870.272034,1125.825317 871.181702,1122.173462   C871.434143,1121.160278 872.329407,1119.841919 873.228882,1119.532227   C878.344482,1117.770264 881.912781,1110.683228 888.823364,1114.867554   C889.146240,1115.063110 889.900452,1114.546143 890.468262,1114.356201   C889.176697,1112.736206 888.082275,1111.363647 887.685181,1110.865601   C890.379822,1107.930786 892.419800,1105.709106 894.505859,1103.491333   C894.551941,1103.495239 894.635925,1103.530518 895.025940,1103.648193   C899.747070,1103.058472 903.408142,1101.439941 904.931152,1096.865479   C905.001038,1096.911621 904.843872,1096.854004 905.261475,1096.912598   C907.880920,1097.283203 910.082825,1097.595093 912.342834,1097.915161   C914.437622,1096.157959 917.953491,1094.621948 918.937500,1092.098511   C921.203186,1086.288452 927.469116,1086.309692 931.153870,1082.474731   C934.099731,1079.408936 939.656250,1078.851440 944.247253,1077.107300   C943.570007,1072.862793 944.001892,1072.530151 950.521484,1072.549194   C951.698547,1070.746704 952.347290,1068.830200 953.683167,1067.891846   C956.873291,1065.651367 960.464417,1063.992065 963.751038,1061.876587   C967.839844,1059.244751 971.704102,1056.262085 975.813049,1053.664673   C981.006104,1050.382080 985.290466,1044.941650 992.628052,1046.665161   C992.750916,1044.137939 992.853333,1042.031738 992.977722,1039.957886   C992.999695,1039.990234 992.932129,1039.951050 993.337769,1039.991455   C996.220032,1040.369141 998.696533,1040.706421 1000.940979,1041.011963   C1000.396851,1038.779663 1000.005432,1037.173828 999.650879,1035.595703   C999.687744,1035.623535 999.694641,1035.531494 1000.084229,1035.671875   C1001.861511,1035.464600 1003.359863,1035.341553 1004.614807,1034.723999   C1007.499756,1033.304077 1010.324036,1031.736816 1013.057373,1030.042969   C1014.538513,1029.125000 1015.648254,1027.572632 1017.168396,1026.761475   C1019.035339,1025.765259 1021.112915,1025.052612 1023.182678,1024.588867   C1024.445190,1024.305908 1025.864258,1024.722412 1027.213135,1024.824707   C1027.266113,1024.551025 1027.319214,1024.277344 1027.372192,1024.003784   C1026.323120,1023.284241 1025.274170,1022.564819 1024.225098,1021.845337   C1024.420166,1021.303345 1024.615234,1020.761414 1024.810303,1020.219421   C1026.298706,1020.716370 1027.777710,1021.244080 1029.279053,1021.698303   C1030.139404,1021.958618 1031.035889,1022.099487 1031.916138,1022.294189   C1032.015869,1021.279541 1032.259277,1020.251343 1032.165527,1019.254822   C1032.101074,1018.567627 1031.570068,1017.924255 1030.667358,1016.068787   C1034.397705,1015.203674 1037.453369,1014.495056 1040.898926,1013.696045   C1040.618652,1012.342712 1040.260864,1010.615051 1039.935059,1008.889038   C1039.967041,1008.890686 1039.910278,1008.911804 1040.258423,1008.918701   C1041.028809,1008.440491 1041.451050,1007.955322 1042.022949,1007.288208   C1042.172729,1007.106323 1042.620850,1006.960876 1042.806885,1007.362549   C1044.946289,1008.171448 1046.899414,1008.578735 1050.103760,1009.246948   C1048.061890,1006.772278 1047.097900,1005.604004 1046.214722,1004.339111   C1046.295532,1004.242615 1046.537598,1004.173218 1046.876709,1004.377808   C1049.249023,1004.759766 1051.282227,1004.937195 1053.315552,1005.114563   C1057.189087,1000.313232 1061.750244,996.024536 1066.757568,992.342773   C1070.376953,989.681763 1074.772461,988.095215 1078.493530,985.549683   C1084.047729,981.750244 1088.727783,976.462891 1095.466187,975.581787   C1095.890625,973.383362 1096.520752,971.264648 1097.938232,970.128052   C1101.415894,967.339478 1105.407715,965.197021 1108.920044,962.446350   C1116.936157,956.168640 1124.788940,949.682251 1132.699951,943.287231   C1134.184448,943.829285 1135.633789,944.358459 1137.270630,944.955994   C1136.952881,942.164368 1136.690186,939.856201 1136.472046,937.525513   C1136.516602,937.502930 1136.591553,937.436829 1136.985352,937.598022   C1138.745728,937.405701 1140.462646,937.456665 1141.418701,936.628906   C1145.655273,932.960938 1149.547852,928.894287 1153.800293,925.246338   C1160.175415,919.777344 1167.005005,914.815369 1173.151123,909.109741   C1177.709229,904.878357 1181.488281,899.807739 1185.528931,895.208130   C1187.281494,895.839661 1188.717773,896.357178 1191.392334,897.320984   C1189.835938,894.960022 1189.029297,893.736450 1187.526855,891.457397   C1191.050903,889.879333 1194.103027,888.512634 1198.196411,886.679688   C1197.575684,885.563538 1196.495239,883.620972 1195.459229,881.621582   C1195.503662,881.564819 1195.634277,881.504150 1195.987427,881.624512   C1197.670776,880.860962 1199.244751,880.200623 1200.292480,879.057739   C1208.695557,869.891785 1216.781738,860.471985 1223.285767,849.795959   C1223.746582,849.039551 1225.522339,849.203674 1226.460205,848.592529   C1228.171997,847.476990 1229.714111,846.101196 1231.327026,844.833984   C1231.056641,844.442139 1230.786255,844.050232 1230.515869,843.658386   C1229.713623,843.739258 1228.911499,843.820129 1228.028931,843.909119   C1228.309570,841.691895 1228.554688,839.755859 1228.846313,837.801270   C1228.892822,837.782715 1228.790161,837.794556 1229.133545,837.899353   C1230.423218,838.491089 1231.369507,838.977966 1233.307373,839.975159   C1230.748291,832.727051 1236.100952,832.949097 1238.889160,832.475891   C1238.069458,829.050659 1237.445679,826.444031 1236.802246,823.875977   C1236.782715,823.914490 1236.793091,823.827026 1237.194092,823.881287   C1239.204102,824.886292 1240.813110,825.837036 1242.332764,826.734985   C1245.662109,822.380737 1248.947998,817.458984 1245.082153,811.212769   C1244.881348,810.888306 1245.078491,810.206177 1245.269653,809.768799   C1246.502075,806.947693 1247.927002,804.202515 1249.017822,801.329590   C1250.770508,796.713379 1252.734253,792.114197 1253.834106,787.329773   C1255.119629,781.736755 1256.089478,775.970581 1256.285645,770.248230   C1256.744385,756.869202 1256.616821,743.470764 1256.822510,730.081726   C1256.876343,726.580200 1257.368286,723.086914 1257.481323,719.584106   C1257.525879,718.201477 1257.572144,716.363647 1256.781616,715.487915   C1253.306274,711.637878 1251.056030,707.775208 1255.801880,701.940186   C1253.058472,702.529114 1251.735962,702.813049 1250.407471,703.098267   C1248.943848,697.829102 1245.432007,692.363281 1251.816284,687.740234   C1242.804932,682.399536 1237.146118,673.751343 1239.145020,668.027710   C1243.532349,673.127930 1248.181030,677.779541 1251.912354,683.077393   C1255.783691,688.574036 1258.302002,695.039246 1262.285278,700.436401   C1265.456177,704.732727 1267.667358,708.810364 1266.489990,713.608459   C1268.273804,714.054504 1269.745239,714.422424 1271.216553,714.790405   C1270.682739,716.507080 1270.148804,718.223816 1269.521240,720.242126   C1270.763428,720.319153 1272.218384,720.409363 1273.608521,720.495544   C1274.914795,725.843079 1276.122803,730.787598 1277.291138,735.570129   C1278.311035,737.517517 1279.767456,739.335815 1280.241089,741.381653   C1281.707153,747.715393 1282.823730,754.131165 1284.028809,760.523987   C1285.064209,766.017151 1286.529663,771.487305 1286.925049,777.030457   C1287.633667,786.963928 1287.691162,796.944275 1287.987427,806.906067   C1288.011597,807.721130 1287.760864,808.541870 1287.666138,809.363281   C1286.696289,817.770081 1285.740967,826.178528 1284.735596,834.580994   C1284.693604,834.932434 1284.199341,835.229736 1283.593140,835.918945   C1283.166138,834.349670 1282.851440,833.192810 1282.536743,832.035950   C1281.562500,837.794495 1281.747925,843.639282 1280.646606,849.230652   C1279.528320,854.908264 1277.140381,860.335938 1275.317749,865.845337   C1274.205322,865.767273 1272.732056,865.663879 1271.258789,865.560486   C1270.836792,865.787598 1270.414673,866.014709 1269.992676,866.241882   C1276.725464,870.355591 1271.204712,875.085999 1271.801392,879.526489   C1271.867798,880.021667 1270.145996,881.370056 1269.838623,881.208618   C1266.393921,879.399719 1265.733887,882.678589 1265.710815,884.147705   C1265.653931,887.775391 1266.484375,891.417114 1266.958008,895.053162  z"/>
<path fill="#0E2243" opacity="1.000000" stroke="none" d=" M1043.884155,1346.707275   C1043.161865,1346.805542 1042.439453,1346.903809 1041.187012,1346.912109   C1040.353027,1346.720581 1040.092529,1346.787720 1039.875610,1347.023804   C1039.703125,1347.036865 1039.530518,1347.050049 1038.895508,1347.473145   C1031.620972,1349.267578 1024.834961,1350.798096 1017.992065,1352.008179   C1000.669678,1355.070923 983.321899,1357.989868 965.609863,1360.900513   C964.491760,1360.965942 963.748047,1361.097168 962.563110,1361.158081   C951.080688,1361.468506 940.039429,1361.849243 928.611694,1362.105957   C927.150146,1361.983154 926.075134,1361.984497 924.670898,1361.834717   C922.892639,1361.541626 921.443726,1361.399536 919.637573,1361.135498   C918.531616,1360.986450 917.782837,1360.959717 916.713135,1360.732910   C902.154053,1357.943726 888.551941,1353.698730 877.268616,1344.200195   C875.428772,1342.651123 873.892029,1339.608276 873.855652,1337.230835   C873.573120,1318.754395 873.600464,1300.270630 873.799683,1281.792114   C873.826050,1279.350342 874.710754,1276.319336 876.311218,1274.594482   C884.104492,1266.195435 891.538086,1257.217163 900.450195,1250.147339   C929.248413,1227.301636 958.517029,1205.041260 987.845337,1182.874268   C1007.349792,1168.132324 1027.265991,1153.935181 1046.997925,1139.494141   C1047.456299,1140.938843 1048.314575,1142.383057 1048.315796,1143.828125   C1048.369751,1209.347290 1048.355835,1274.866577 1048.292114,1340.385742   C1048.290649,1341.942139 1047.631714,1343.498169 1046.749268,1345.484497   C1045.440674,1346.178955 1044.662476,1346.443115 1043.884155,1346.707275  z"/>
<path fill="#112544" opacity="1.000000" stroke="none" d=" M1052.362793,620.991516   C1052.396362,619.926147 1052.429810,618.860779 1052.639160,617.043701   C1052.736816,613.792419 1052.658691,611.292969 1052.580566,608.793457   C1052.756958,595.508301 1052.933472,582.223145 1053.246826,568.247009   C1053.303101,566.701416 1053.222412,565.846802 1053.141724,564.992188   C1053.134521,564.222229 1053.127197,563.452332 1053.198242,562.162964   C1053.177856,560.763367 1053.079102,559.883057 1052.980347,559.002808   C1053.000244,553.537842 1053.092773,548.071167 1052.970825,542.609375   C1052.949707,541.664368 1052.250610,540.419006 1051.471680,539.858032   C1046.732300,536.444275 1041.803467,533.291809 1037.089233,529.845093   C1033.682739,527.354492 1030.266357,524.789124 1027.281860,521.826477   C1019.566956,514.167969 1011.961853,506.389099 1004.557678,498.430603   C999.007202,492.464630 998.863159,484.807587 999.109375,477.263977   C999.219788,473.881531 1005.049744,470.604095 1010.832397,470.080505   C1021.050720,469.155273 1030.210815,472.336304 1038.269897,478.129974   C1051.085205,487.342957 1063.401978,497.248901 1076.200439,506.486389   C1077.913940,507.723175 1081.369629,507.377869 1083.741455,506.737976   C1101.278076,502.007294 1118.744385,497.016174 1137.001709,491.972595   C1149.173584,488.538086 1160.576416,485.237946 1171.979248,481.937775   C1183.448486,478.691559 1194.914429,475.433868 1206.397949,472.239075   C1206.878418,472.105408 1207.521973,472.557983 1208.556396,473.230286   C1215.014404,478.491241 1221.005615,483.259369 1227.335693,488.297211   C1212.631348,496.119873 1198.594360,503.587646 1184.557251,511.055389   C1184.557251,511.055389 1184.207031,511.184723 1183.850464,511.523468   C1174.636597,516.508911 1165.779297,521.155579 1156.921997,525.802246   C1155.716797,526.307190 1154.511719,526.812134 1152.771973,527.649597   C1141.702515,533.509277 1131.167603,539.036377 1119.968018,544.912231   C1128.969727,553.133179 1137.356812,560.849426 1145.821289,568.479736   C1147.721680,570.192993 1149.892944,571.605713 1151.939575,573.156799   C1152.425903,573.751221 1152.912109,574.345581 1153.792725,575.362610   C1162.363770,583.547424 1170.457520,591.401245 1178.819336,598.958618   C1179.893799,599.929810 1182.517578,599.899048 1184.155518,599.418457   C1194.495972,596.385376 1204.742310,593.032288 1215.070190,589.954956   C1216.632568,589.489380 1218.912598,589.245544 1220.081543,590.042297   C1224.157715,592.820618 1227.891724,596.100830 1232.013184,599.396057   C1227.434570,602.665466 1223.167847,605.712402 1218.901001,608.759277   C1212.604370,613.121643 1206.307739,617.484009 1199.907349,621.918213   C1202.042236,625.544556 1204.005493,628.879395 1206.641846,633.357666   C1201.984619,631.548157 1198.622192,630.241760 1194.714233,628.723389   C1190.011719,641.300110 1185.443237,653.518188 1180.731079,666.120544   C1176.530884,662.874878 1172.548462,660.127197 1169.019043,656.886230   C1167.829468,655.793945 1167.253784,653.432190 1167.311523,651.680786   C1167.668213,640.870483 1168.407104,630.071960 1168.693359,619.260864   C1168.739502,617.523071 1167.637695,614.995605 1166.248047,614.092773   C1144.908203,600.228638 1123.433228,586.572327 1101.984253,572.876343   C1101.433105,572.524475 1100.819824,572.270142 1099.564209,571.625916   C1090.451660,610.958435 1081.403320,650.013611 1072.207031,689.707275   C1065.462646,684.907776 1059.209351,680.457764 1052.551758,675.577637   C1051.929688,674.428650 1051.711670,673.709839 1051.493652,672.990967   C1051.589844,671.278198 1051.686035,669.565369 1051.793701,667.100464   C1051.743774,665.896118 1051.682251,665.443909 1051.620728,664.991760   C1051.781860,655.968445 1051.942993,646.945190 1052.109863,637.092773   C1052.053589,635.508850 1051.991699,634.754150 1051.929688,633.999390   C1052.036987,631.295105 1052.144409,628.590881 1052.416992,625.257202   C1052.509277,623.415710 1052.436035,622.203613 1052.362793,620.991516  z"/>
<path fill="#2A98E0" opacity="1.000000" stroke="none" d=" M894.013062,1218.985352   C894.645386,1218.393433 895.710999,1217.199463 895.846863,1217.297363   C899.424988,1219.872681 900.706665,1216.584839 902.600647,1214.789673   C904.261292,1213.215576 905.799194,1211.363281 907.748108,1210.269897   C913.526733,1207.027832 918.641968,1203.223877 922.669006,1197.791504   C924.296936,1195.595581 927.525696,1194.652832 929.760681,1192.816772   C931.252380,1191.591309 932.275635,1189.795776 934.003662,1187.636597   C934.443359,1187.775757 935.746643,1188.188232 937.140198,1188.629395   C940.264771,1185.936646 943.391968,1183.241699 946.948120,1180.177124   C949.317505,1178.985107 952.476807,1177.628540 955.297668,1175.760864   C955.803223,1175.426147 954.910034,1172.979004 954.448547,1170.233521   C955.442200,1170.394531 956.602783,1170.708862 957.771484,1170.742065   C959.421509,1170.789185 962.181458,1171.200684 962.560852,1170.468628   C966.509155,1162.850708 975.012573,1161.689819 980.922180,1156.966675   C983.109375,1155.218506 984.296204,1152.173950 986.540466,1150.552979   C989.639893,1148.314575 993.208984,1146.625488 996.761414,1145.143433   C1000.273132,1143.677979 1003.402954,1142.273071 1002.609619,1137.279541   C1006.487854,1137.380981 1012.113831,1139.253540 1009.685852,1133.009766   C1013.310669,1131.804565 1016.607422,1130.708496 1020.664978,1129.359497   C1019.307617,1127.722534 1018.670105,1127.204956 1018.378418,1126.536377   C1018.039062,1125.758545 1018.002441,1124.848389 1017.834473,1123.995605   C1018.706848,1124.016235 1019.970642,1123.671509 1020.386902,1124.117676   C1022.785400,1126.688110 1024.058228,1125.508301 1026.359375,1123.529419   C1030.326294,1120.118286 1035.281128,1117.867798 1039.329712,1114.533325   C1040.926270,1113.218384 1041.204712,1110.303467 1042.149170,1107.953125   C1045.116821,1111.499512 1047.363403,1109.111328 1050.294922,1106.458496   C1054.273682,1102.858398 1058.990356,1100.084106 1063.297852,1096.832886   C1065.664551,1095.046387 1068.974731,1093.563354 1066.427368,1089.169434   C1071.476440,1089.425293 1076.130981,1089.418091 1072.885620,1081.312866   C1078.070557,1085.057495 1080.964478,1084.158081 1084.092163,1080.039062   C1086.322876,1077.101196 1090.428223,1075.628662 1093.555786,1073.311646   C1095.024780,1072.223389 1096.167358,1070.692017 1097.446045,1069.350098   C1098.108521,1068.655151 1098.615234,1067.687256 1099.415283,1067.269409   C1103.227173,1065.278320 1107.115723,1063.433716 1111.593018,1061.234375   C1110.030518,1059.521118 1109.275635,1058.693359 1109.159668,1058.566284   C1111.423584,1056.677612 1113.451050,1054.901611 1115.575562,1053.250488   C1116.605713,1052.449829 1117.787842,1051.370605 1118.953003,1051.302490   C1123.330566,1051.046021 1125.154785,1048.923096 1124.306030,1044.251465   C1126.406616,1044.530029 1128.134155,1044.759155 1130.224609,1045.036377   C1130.381714,1043.806396 1130.516357,1042.751831 1130.690186,1041.391113   C1139.550781,1041.619873 1138.255249,1032.104614 1142.623779,1028.104736   C1144.628296,1029.039673 1146.187134,1029.766846 1147.746094,1030.493896   C1147.936035,1028.958740 1148.125977,1027.423584 1148.351685,1025.599121   C1149.866211,1025.507202 1152.122559,1025.370239 1154.951660,1025.198608   C1154.139038,1022.951965 1153.613525,1021.499207 1153.519653,1021.239746   C1156.482544,1020.019653 1159.103516,1019.042114 1161.609131,1017.826660   C1162.141357,1017.568481 1162.380737,1016.467834 1162.529419,1015.710999   C1162.790039,1014.385132 1162.875732,1013.024963 1163.034668,1011.679077   C1164.527832,1012.013977 1166.020874,1012.348816 1167.539673,1012.689392   C1176.272217,1004.601440 1185.401123,996.279663 1194.371216,987.790222   C1200.001343,982.461670 1205.557617,977.029297 1210.736938,971.274414   C1211.645142,970.265320 1210.522827,967.428772 1209.772217,965.264893   C1211.297485,961.301208 1213.246582,963.244141 1215.017090,965.799805   C1217.246948,964.101074 1219.280518,962.551941 1221.678711,961.011353   C1219.100830,964.970093 1216.526123,969.274536 1213.136963,972.794617   C1206.676758,979.504395 1199.864502,985.889587 1192.995483,992.188354   C1180.016724,1004.089905 1167.027100,1015.986267 1153.788452,1027.595581   C1143.813599,1036.342773 1133.426147,1044.618530 1123.272705,1053.164062   C1122.168823,1054.093262 1121.400146,1055.420776 1119.976074,1056.782959   C1119.232422,1057.199463 1118.988647,1057.396484 1118.744995,1057.593506   C1118.744995,1057.593628 1118.485840,1057.451172 1118.091309,1057.607910   C1116.425171,1058.809570 1115.153564,1059.854492 1113.881958,1060.899292   C1113.881958,1060.899292 1114.006348,1060.957764 1113.637207,1061.033569   C1102.459229,1070.044067 1091.650269,1078.978760 1080.541138,1088.058228   C1076.494141,1091.135376 1072.747070,1094.067749 1068.644775,1097.009521   C1056.848633,1105.116577 1045.307373,1113.076172 1033.985718,1121.337036   C997.819397,1147.726074 961.595337,1174.039673 925.671692,1200.756348   C904.839233,1216.249512 884.348938,1232.253784 866.425293,1251.185059   C858.146545,1259.929199 851.169434,1269.616455 847.325867,1281.302612   C847.310059,1281.361938 847.276733,1281.491699 846.976135,1281.667480   C846.083557,1283.217163 845.462708,1284.579224 844.903809,1285.966309   C831.813232,1318.453979 841.585815,1349.197876 871.241638,1367.897217   C890.238586,1379.875488 911.483398,1384.191040 933.586487,1384.895508   C958.189209,1385.679688 982.388550,1381.975708 1006.441711,1377.434204   C1028.729370,1373.226074 1050.980957,1368.719849 1072.140991,1360.152344   C1072.140991,1360.152344 1072.047729,1360.139648 1072.468872,1360.204102   C1073.385742,1360.234253 1073.908447,1360.290405 1074.373413,1360.152588   C1094.984985,1354.035400 1113.965698,1344.105103 1133.237061,1334.865601   C1134.074951,1334.463867 1134.467529,1333.133545 1135.349487,1332.163208   C1135.842651,1331.819580 1136.053833,1331.548584 1136.296631,1331.293823   C1136.328125,1331.310181 1136.398560,1331.300659 1136.398560,1331.300659   C1139.263428,1330.334961 1142.526489,1329.950806 1144.926636,1328.306641   C1157.907593,1319.414673 1170.803589,1310.384521 1183.446289,1301.020508   C1187.864502,1297.748047 1191.478027,1293.389160 1196.003906,1289.290405   C1196.673584,1288.707886 1196.798462,1288.361450 1196.923340,1288.014893   C1196.923340,1288.014893 1197.131470,1287.740601 1197.445190,1287.432617   C1198.628540,1286.131104 1199.498291,1285.137817 1200.368042,1284.144531   C1200.673828,1284.158691 1200.906738,1284.035156 1201.386230,1283.427002   C1202.516724,1282.526611 1203.327881,1281.973389 1204.139038,1281.420166   C1204.270508,1281.586182 1204.401855,1281.752075 1204.533325,1281.918091   C1202.616089,1284.885132 1200.698853,1287.852295 1198.781738,1290.819336   C1198.781738,1290.819336 1198.783813,1290.942139 1198.506348,1291.019043   C1197.787109,1292.043823 1197.345459,1292.991455 1196.903809,1293.939209   C1196.903809,1293.939209 1196.975464,1293.995850 1196.654297,1294.025635   C1195.809082,1294.666626 1195.284912,1295.277954 1194.760864,1295.889282   C1194.436157,1295.941650 1194.196411,1296.112915 1193.693848,1296.792480   C1192.172852,1298.738770 1190.999512,1300.295776 1189.826172,1301.852661   C1189.826172,1301.852661 1189.959595,1301.982910 1189.606689,1302.037598   C1188.796021,1303.045410 1188.338501,1303.998657 1187.880981,1304.951904   C1182.395874,1310.878174 1177.096802,1316.991089 1171.382568,1322.687500   C1162.579346,1331.463135 1153.800415,1340.307129 1144.442749,1348.470581   C1133.926880,1357.644409 1123.036987,1366.441528 1111.828735,1374.753784   C1102.151489,1381.930298 1091.923340,1388.393921 1081.706177,1394.802246   C1074.114746,1399.563721 1066.151367,1403.732178 1057.754761,1408.473633   C1048.723389,1412.803589 1040.291016,1416.824707 1031.858521,1420.845825   C1031.858521,1420.845825 1031.904053,1420.797974 1031.511719,1420.804199   C1029.047119,1421.849854 1026.974731,1422.889282 1024.902466,1423.928711   C1024.902466,1423.928711 1024.992920,1423.964478 1024.578247,1423.968140   C1014.403198,1427.617676 1004.642822,1431.263428 994.882446,1434.909180   C994.882446,1434.909180 994.983704,1434.943115 994.547607,1434.938843   C990.365601,1436.201294 986.619690,1437.468018 982.873840,1438.734863   C975.819702,1440.455811 968.815857,1442.432373 961.698425,1443.831055   C953.416077,1445.458740 945.021423,1446.505371 936.699707,1447.944458   C929.990479,1449.104858 923.317322,1450.474365 915.828857,1451.890625   C901.018677,1452.070801 887.007812,1452.111450 872.996948,1452.152100   C846.969604,1448.600220 822.448975,1440.766602 800.481079,1426.041504   C777.296448,1410.500732 759.378479,1390.495361 748.701172,1364.352905   C743.919312,1352.645020 740.364258,1340.524414 739.328674,1328.067261   C738.412109,1317.042236 739.734436,1305.829956 740.082886,1294.700928   C740.518921,1280.773560 744.511169,1267.591919 749.091919,1254.641235   C757.586731,1230.624634 770.128357,1208.762451 786.493164,1189.273682   C795.815063,1178.172363 805.605286,1167.380249 816.011658,1157.302979   C823.059570,1150.477905 831.439392,1144.992065 839.418396,1139.174683   C848.028198,1132.897583 856.864929,1126.932007 865.917908,1120.564575   C868.521973,1118.901855 870.810791,1117.505127 873.423950,1116.090088   C874.536194,1115.421509 875.324097,1114.771240 876.471680,1114.103027   C882.707581,1110.552612 888.583679,1107.020020 894.459839,1103.487427   C892.419800,1105.709106 890.379822,1107.930786 887.685181,1110.865601   C888.082275,1111.363647 889.176697,1112.736206 890.468262,1114.356201   C889.900452,1114.546143 889.146240,1115.063110 888.823364,1114.867554   C881.912781,1110.683228 878.344482,1117.770264 873.228882,1119.532227   C872.329407,1119.841919 871.434143,1121.160278 871.181702,1122.173462   C870.272034,1125.825317 869.216553,1127.977295 864.662231,1125.793091   C863.364014,1125.170410 860.521606,1127.615601 858.459229,1128.781250   C856.432434,1129.926880 853.946838,1131.041992 856.649292,1133.911987   C855.335876,1134.846558 854.136414,1136.239502 852.680603,1136.601562   C850.797241,1137.069946 848.709290,1136.715820 846.379639,1136.715820   C847.490479,1139.291260 848.295166,1141.157104 849.099915,1143.022949   C848.778809,1143.241577 848.457764,1143.460205 848.136719,1143.678833   C847.229187,1143.099854 846.376160,1142.392822 845.399231,1141.977051   C844.382935,1141.544678 842.837402,1140.799805 842.230957,1141.217896   C838.737671,1143.626465 835.422546,1146.300049 832.108093,1148.959839   C828.584900,1151.787109 825.147827,1154.721313 821.639282,1157.567139   C818.935791,1159.759766 816.040894,1161.739868 813.512695,1164.114136   C812.427429,1165.133179 812.055603,1166.911987 811.358032,1168.349121   C808.510376,1170.515991 804.373413,1172.277222 802.497375,1175.397705   C799.205444,1180.873291 791.457336,1182.886963 791.091492,1190.453369   C791.066956,1190.961426 790.294800,1191.459106 789.825928,1191.915894   C786.219421,1195.428223 782.601929,1198.929199 779.577942,1201.861572   C780.651917,1204.419922 781.409668,1206.225098 782.167419,1208.030151   C780.648865,1207.594360 779.130249,1207.158447 776.910217,1206.521362   C775.754028,1208.145142 774.274048,1210.223511 772.843018,1212.233154   C774.052368,1213.501953 774.928833,1214.421509 775.805298,1215.340942   C774.584656,1215.894165 773.347351,1216.414062 772.148376,1217.010864   C771.162415,1217.501587 769.763062,1217.843750 769.335144,1218.663330   C766.381226,1224.320190 763.632874,1230.084473 760.824036,1235.816772   C760.678650,1236.113525 760.670715,1236.533447 760.450439,1236.728882   C756.732727,1240.026978 755.435974,1243.694458 760.510193,1249.089233   C757.080994,1248.585327 755.642578,1248.374023 753.648804,1248.080933   C752.641357,1252.727783 751.785522,1257.636841 750.479492,1262.423096   C749.225220,1267.019775 747.154297,1271.407104 746.070312,1276.033691   C744.424927,1283.056396 741.430298,1289.889526 743.132996,1297.496216   C743.616699,1299.656738 742.086609,1302.189209 742.030640,1304.564087   C741.865662,1311.559570 740.693787,1318.870117 742.285767,1325.487427   C744.572083,1334.991089 743.064087,1345.418457 749.171814,1354.101562   C750.877563,1356.526489 750.815613,1360.124268 752.033997,1362.984131   C753.078552,1365.435791 754.824768,1367.583374 756.198914,1369.902100   C756.851868,1371.003906 757.901062,1372.217896 757.845581,1373.335205   C757.531738,1379.653564 761.385193,1383.705566 765.962280,1389.069702   C766.763184,1387.620850 767.361389,1386.538574 767.959656,1385.456421   C768.210388,1385.519165 768.461182,1385.581909 768.711914,1385.644653   C768.711914,1388.529907 768.711914,1391.415039 768.711914,1394.927856   C770.981079,1394.138306 772.434631,1393.632568 773.713745,1393.187500   C774.000427,1395.671509 773.904053,1398.099854 774.634521,1400.246948   C775.361694,1402.384155 776.476990,1403.313232 779.520142,1401.914062   C783.616638,1400.030396 783.408691,1405.016235 784.812683,1407.133911   C785.606628,1408.331543 785.500671,1410.125610 785.864746,1411.980225   C790.101013,1408.594360 792.279602,1409.007812 796.563416,1414.646973   C794.663940,1414.337280 792.764404,1414.027710 790.357849,1413.635376   C790.798096,1414.503052 791.019226,1415.832642 791.698181,1416.135376   C797.026245,1418.511230 800.076721,1424.398560 806.442261,1425.345703   C808.244019,1425.613770 809.606873,1428.118774 811.419312,1429.169556   C815.832092,1431.727417 820.243103,1434.410034 824.961426,1436.260498   C826.894165,1437.018433 829.617371,1435.760864 831.994202,1435.418335   C833.487000,1440.108643 838.597778,1442.977173 844.085632,1441.786743   C848.485352,1440.832275 852.687195,1439.792358 855.257629,1444.983521   C855.446228,1445.364258 856.186523,1445.892578 856.370422,1445.793823   C861.824951,1442.865112 865.079346,1448.910767 869.812866,1449.043945   C874.781250,1449.183838 879.754150,1450.127441 884.698730,1449.956787   C896.623718,1449.545288 908.557129,1448.962036 920.441162,1447.922119   C929.450867,1447.133789 938.389709,1445.534668 948.268921,1443.316650   C947.131531,1443.066650 945.994202,1442.816650 944.856812,1442.566650   C945.137085,1442.177490 945.417358,1441.788330 945.697571,1441.399170   C946.628418,1441.313599 947.624268,1440.968506 948.479980,1441.182861   C956.781128,1443.262329 964.098938,1440.925293 971.581299,1437.270264   C976.395447,1434.918457 982.072754,1434.271851 987.412720,1433.083252   C990.260864,1432.449341 993.214233,1432.287842 996.296570,1430.851074   C995.247681,1430.201660 994.198853,1429.552246 992.781921,1428.675171   C993.554321,1427.974976 993.965088,1427.269287 994.438232,1427.224609   C999.880371,1426.710571 1005.334656,1426.327148 1010.778320,1425.828247   C1011.750549,1425.739014 1012.737122,1425.387939 1013.635437,1424.978760   C1021.143311,1421.558472 1028.610718,1418.048828 1036.132202,1414.659302   C1044.789062,1410.758301 1053.592163,1407.165527 1062.126709,1403.016724   C1066.517944,1400.882080 1070.402954,1397.729248 1074.625000,1395.218384   C1080.511475,1391.717773 1086.393311,1388.181641 1092.477905,1385.050781   C1097.116333,1382.663940 1098.686523,1380.953613 1097.764771,1377.401978   C1100.581787,1376.053223 1108.143433,1381.019531 1105.114990,1371.881592   C1107.282349,1372.037598 1109.377808,1372.715210 1111.075317,1372.164917   C1112.827393,1371.597046 1114.192017,1369.834595 1115.084839,1369.113037   C1114.742554,1366.874146 1114.490723,1365.226318 1114.238770,1363.578613   C1115.914673,1364.437378 1117.590576,1365.296265 1120.047852,1366.555420   C1123.175781,1363.213501 1126.719360,1359.294434 1130.441284,1355.552734   C1131.270874,1354.718872 1132.688110,1354.363403 1133.901855,1354.036987   C1138.446411,1352.815186 1142.788574,1347.173218 1141.957642,1344.155151   C1144.715210,1342.762573 1147.399048,1341.407104 1150.082886,1340.051636   C1149.916626,1339.559570 1149.750488,1339.067383 1149.584229,1338.575195   C1147.822266,1338.124390 1146.060303,1337.673584 1144.298462,1337.222778   C1144.278076,1336.656982 1144.257690,1336.091064 1144.237427,1335.525146   C1146.581543,1335.368774 1148.924805,1335.196167 1151.270142,1335.059814   C1154.618408,1334.864990 1158.981445,1335.578247 1155.748047,1329.726318   C1155.639160,1329.529297 1157.533936,1327.606934 1158.541138,1327.563354   C1159.898193,1327.504639 1161.300293,1328.490479 1163.468750,1328.805176   C1158.850342,1323.869873 1166.476074,1323.225586 1165.607788,1318.271240   C1160.180420,1321.809326 1155.460449,1325.072388 1150.557129,1328.031860   C1145.343628,1331.178711 1139.900269,1333.943970 1134.672607,1337.068604   C1132.603394,1338.305420 1128.174561,1337.229614 1129.284912,1342.125122   C1129.361938,1342.465088 1127.286133,1343.644165 1126.107300,1343.857788   C1120.791382,1344.820801 1115.175659,1344.818970 1111.430908,1349.806152   C1110.866089,1350.558350 1109.364502,1350.628662 1108.281494,1350.967285   C1101.127197,1353.203857 1093.968872,1355.427490 1087.007080,1358.776611   C1089.098022,1358.993042 1091.188843,1359.209351 1093.279785,1359.425659   C1093.293213,1359.837524 1093.306763,1360.249390 1093.320190,1360.661255   C1091.651123,1360.748779 1089.886841,1361.233032 1088.328491,1360.858887   C1078.595825,1358.522217 1071.273926,1364.142212 1063.335327,1367.979980   C1061.478271,1368.877930 1059.025635,1368.592896 1056.839478,1368.735352   C1056.083984,1368.784546 1055.214844,1368.180298 1054.551636,1368.381836   C1047.104858,1370.644165 1039.760620,1373.284180 1032.238281,1375.244507   C1026.991211,1376.611938 1021.515930,1377.116211 1016.133789,1377.949097   C1006.839172,1379.387085 997.536316,1380.771484 988.244568,1382.227783   C987.861145,1382.287720 987.555969,1382.846558 986.451355,1383.902222   C988.799011,1384.599731 990.566833,1385.125122 992.334717,1385.650391   C992.213989,1386.236572 992.093323,1386.822754 991.972656,1387.408936   C988.806213,1386.654297 985.636536,1385.913330 982.474915,1385.139038   C981.074707,1384.796265 979.664734,1383.984131 978.303955,1384.072632   C970.036987,1384.610840 961.634888,1384.596069 953.558228,1386.188232   C940.443054,1388.773804 927.674011,1386.047852 914.795044,1385.064087   C907.147400,1384.480103 899.458374,1383.475952 892.003174,1381.737427   C888.240601,1380.860107 885.004700,1377.836304 881.427307,1375.982422   C880.372620,1375.435913 878.347046,1374.962769 877.820984,1375.496094   C874.955688,1378.400879 872.678467,1375.920166 870.835571,1374.605713   C866.787964,1371.718384 862.907776,1368.502563 859.410950,1364.973389   C857.408264,1362.952148 856.289551,1360.054321 854.776306,1357.549194   C854.180786,1356.563354 853.594177,1355.572266 852.679932,1354.041870   C851.270203,1356.211914 850.618652,1357.214966 849.967102,1358.217896   C849.657043,1358.150513 849.346924,1358.083130 849.036865,1358.015747   C849.181519,1356.007568 849.326233,1353.999390 849.434387,1352.498657   C845.809692,1349.357544 842.331299,1346.343262 838.341125,1342.885498   C845.483582,1338.956787 840.646545,1334.251221 839.438538,1330.679932   C836.288879,1321.368652 836.637451,1312.093384 837.707947,1302.704468   C838.244263,1298.000732 839.476440,1293.379150 840.270447,1288.699463   C840.447327,1287.656982 840.119263,1286.525024 839.998840,1285.436890   C839.862671,1284.206177 839.698608,1282.978638 839.546753,1281.749634   C840.914307,1281.749634 842.281860,1281.749634 842.273132,1281.749634   C845.903809,1275.402100 849.305603,1269.454590 852.707397,1263.507202   C853.126953,1263.664185 853.546509,1263.821167 853.966064,1263.978149   C853.309937,1262.117065 852.653809,1260.256104 851.885925,1258.078125   C859.195007,1258.907227 861.785889,1255.743530 859.618652,1249.742432   C861.584717,1249.468262 863.941956,1249.737549 865.405701,1248.720581   C866.345520,1248.067749 865.969788,1245.521240 865.998779,1245.291382   C869.727417,1242.637207 872.913757,1240.368896 876.352844,1237.920654   C875.314819,1236.359375 874.552490,1235.212646 873.469604,1233.583740   C876.721558,1233.583740 879.554932,1233.583740 883.155823,1233.583740   C882.174438,1230.927734 881.640381,1229.482422 881.393921,1228.815308   C884.279297,1228.148438 887.085815,1227.841919 889.535828,1226.741577   C890.354797,1226.373657 890.037964,1223.874390 890.651367,1222.538208   C891.242981,1221.249756 892.365112,1220.204712 893.617798,1219.378540   C894.521118,1220.306641 895.060852,1220.909180 895.600586,1221.511597   C895.919250,1220.994019 896.237976,1220.476440 896.556763,1219.958862   C895.708862,1219.634399 894.860962,1219.309814 894.013062,1218.985352  M843.267883,1344.101685   C843.773193,1344.047729 844.278503,1343.993774 844.783813,1343.939819   C844.665527,1343.493042 844.547241,1343.046265 844.428955,1342.599487   C843.997925,1342.900635 843.566895,1343.201782 843.267883,1344.101685  M1006.958313,1427.180176   C1006.564392,1427.276611 1006.170471,1427.373047 1005.776489,1427.469360   C1005.859863,1427.591309 1005.960144,1427.826538 1006.023926,1427.816895   C1006.424072,1427.756958 1006.816101,1427.642822 1006.958313,1427.180176  z"/>

<path fill="#2A98E0" opacity="1.000000" stroke="none" d=" M1237.194092,823.881287   C1237.866333,821.537598 1238.939453,819.248169 1240.420166,817.243896   C1241.042847,818.846619 1241.258179,820.164124 1241.473389,821.481689   C1242.051636,821.264771 1242.629883,821.047791 1243.208130,820.830811   C1242.400024,819.409973 1241.591797,817.989197 1240.783691,816.568359   C1242.859741,810.844727 1244.955933,805.128418 1247.008545,799.396362   C1261.345703,759.359558 1258.201538,720.289917 1239.893555,682.325439   C1234.645020,671.441589 1228.049072,661.207520 1222.031738,650.342163   C1221.992554,650.008667 1221.953857,650.045959 1221.953857,650.045898   C1225.036621,652.327881 1228.119263,654.609863 1231.504639,657.027466   C1231.807251,657.163086 1231.822632,657.136963 1231.986816,657.432007   C1239.662354,666.226196 1247.160889,674.736755 1254.693481,683.217041   C1256.742920,685.524292 1258.895020,687.740356 1261.000000,689.998230   C1263.817749,695.692810 1266.809937,701.308899 1269.414795,707.099243   C1273.944946,717.169312 1279.004028,727.098083 1282.392822,737.555542   C1285.284180,746.477783 1286.577393,756.003479 1287.775757,765.364868   C1288.994019,774.881165 1289.777344,784.522278 1289.792480,794.110229   C1289.832764,819.555298 1285.503662,844.390076 1277.566040,868.538025   C1274.658691,877.382324 1270.906250,885.948730 1267.248779,894.847534   C1266.484375,891.417114 1265.653931,887.775391 1265.710815,884.147705   C1265.733887,882.678589 1266.393921,879.399719 1269.838623,881.208618   C1270.145996,881.370056 1271.867798,880.021667 1271.801392,879.526489   C1271.204712,875.085999 1276.725464,870.355591 1269.992676,866.241882   C1270.414673,866.014709 1270.836792,865.787598 1271.258789,865.560486   C1272.732056,865.663879 1274.205322,865.767273 1275.317749,865.845337   C1277.140381,860.335938 1279.528320,854.908264 1280.646606,849.230652   C1281.747925,843.639282 1281.562500,837.794495 1282.536743,832.035950   C1282.851440,833.192810 1283.166138,834.349670 1283.593140,835.918945   C1284.199341,835.229736 1284.693604,834.932434 1284.735596,834.580994   C1285.740967,826.178528 1286.696289,817.770081 1287.666138,809.363281   C1287.760864,808.541870 1288.011597,807.721130 1287.987427,806.906067   C1287.691162,796.944275 1287.633667,786.963928 1286.925049,777.030457   C1286.529663,771.487305 1285.064209,766.017151 1284.028809,760.523987   C1282.823730,754.131165 1281.707153,747.715393 1280.241089,741.381653   C1279.767456,739.335815 1278.311035,737.517517 1277.291138,735.570129   C1276.122803,730.787598 1274.914795,725.843079 1273.608521,720.495544   C1272.218384,720.409363 1270.763428,720.319153 1269.521240,720.242126   C1270.148804,718.223816 1270.682739,716.507080 1271.216553,714.790405   C1269.745239,714.422424 1268.273804,714.054504 1266.489990,713.608459   C1267.667358,708.810364 1265.456177,704.732727 1262.285278,700.436401   C1258.302002,695.039246 1255.783691,688.574036 1251.912354,683.077393   C1248.181030,677.779541 1243.532349,673.127930 1239.145020,668.027710   C1237.146118,673.751343 1242.804932,682.399536 1251.816284,687.740234   C1245.432007,692.363281 1248.943848,697.829102 1250.407471,703.098267   C1251.735962,702.813049 1253.058472,702.529114 1255.801880,701.940186   C1251.056030,707.775208 1253.306274,711.637878 1256.781616,715.487915   C1257.572144,716.363647 1257.525879,718.201477 1257.481323,719.584106   C1257.368286,723.086914 1256.876343,726.580200 1256.822510,730.081726   C1256.616821,743.470764 1256.744385,756.869202 1256.285645,770.248230   C1256.089478,775.970581 1255.119629,781.736755 1253.834106,787.329773   C1252.734253,792.114197 1250.770508,796.713379 1249.017822,801.329590   C1247.927002,804.202515 1246.502075,806.947693 1245.269653,809.768799   C1245.078491,810.206177 1244.881348,810.888306 1245.082153,811.212769   C1248.947998,817.458984 1245.662109,822.380737 1242.332764,826.734985   C1240.813110,825.837036 1239.204102,824.886292 1237.194092,823.881287  M1234.954224,666.362976   C1235.500977,666.274902 1236.047607,666.186890 1236.594360,666.098816   C1235.482788,664.735352 1234.371216,663.371887 1233.259644,662.008423   C1232.875854,662.363098 1232.492188,662.717712 1232.108398,663.072388   C1232.884399,664.032104 1233.660400,664.991821 1234.954224,666.362976  M1268.900635,887.817017   C1268.809082,886.392151 1268.717529,884.967285 1268.625854,883.542419   C1267.997559,883.741272 1267.369263,883.940125 1266.740845,884.139038   C1267.377197,885.587280 1268.013428,887.035583 1268.900635,887.817017  z"/>

<path fill="#2A98E0" opacity="1.000000" stroke="none" d=" M1222.330322,960.912231   C1221.336792,959.643250 1220.563965,958.278992 1220.005493,956.831970   C1219.693115,956.022705 1219.487427,955.000122 1219.724731,954.223755   C1219.842407,953.838989 1221.421265,953.384949 1221.739136,953.658752   C1224.329468,955.890381 1226.121338,954.601624 1227.215820,952.255249   C1228.094360,950.372070 1228.289185,948.169922 1228.918579,945.566956   C1229.215088,945.653687 1230.647583,946.072571 1232.655396,946.659668   C1232.866089,944.360168 1232.531616,941.881531 1233.453613,940.028076   C1234.106689,938.715454 1236.459229,938.248535 1238.053101,937.404114   C1238.405762,937.834961 1238.758301,938.265808 1239.110962,938.696655   C1240.781738,935.888977 1242.304810,932.976318 1244.189819,930.320679   C1245.050293,929.108276 1246.624512,928.402588 1248.255127,927.575623   C1241.364380,939.811707 1232.777466,950.905640 1222.330322,960.912231  z"/>

<path fill="#2A98E0" opacity="1.000000" stroke="none" d=" M1248.989746,927.242310   C1249.326416,925.366394 1249.546875,923.097046 1250.596802,921.317017   C1253.735229,915.996033 1257.586792,911.060242 1260.329102,905.559875   C1261.319092,903.573914 1259.951660,900.412720 1259.640625,897.612915   C1261.442139,897.444031 1263.455811,897.255249 1265.785034,897.039795   C1263.785889,902.039551 1261.781128,907.240417 1259.073120,912.045105   C1256.141479,917.246887 1252.554199,922.079163 1248.989746,927.242310  z"/>

<path fill="#2A98E0" opacity="1.000000" stroke="none" d=" M905.261475,1096.912598   C912.808044,1091.516968 920.715088,1086.092285 928.748535,1080.861572   C944.737488,1070.451050 960.796021,1060.147461 977.015808,1049.523438   C982.224670,1046.169678 987.243530,1043.092285 992.609009,1039.970215   C992.853333,1042.031738 992.750916,1044.137939 992.628052,1046.665161   C985.290466,1044.941650 981.006104,1050.382080 975.813049,1053.664673   C971.704102,1056.262085 967.839844,1059.244751 963.751038,1061.876587   C960.464417,1063.992065 956.873291,1065.651367 953.683167,1067.891846   C952.347290,1068.830200 951.698547,1070.746704 950.521484,1072.549194   C944.001892,1072.530151 943.570007,1072.862793 944.247253,1077.107300   C939.656250,1078.851440 934.099731,1079.408936 931.153870,1082.474731   C927.469116,1086.309692 921.203186,1086.288452 918.937500,1092.098511   C917.953491,1094.621948 914.437622,1096.157959 912.342834,1097.915161   C910.082825,1097.595093 907.880920,1097.283203 905.261475,1096.912598  z"/>
<path fill="#2A98E0" opacity="1.000000" stroke="none" d=" M1126.407471,944.901917   C1129.685791,942.338928 1132.744141,940.018311 1136.114990,937.622864   C1136.690186,939.856201 1136.952881,942.164368 1137.270630,944.955994   C1135.633789,944.358459 1134.184448,943.829285 1132.699951,943.287231   C1124.788940,949.682251 1116.936157,956.168640 1108.920044,962.446350   C1105.407715,965.197021 1101.415894,967.339478 1097.938232,970.128052   C1096.520752,971.264648 1095.890625,973.383362 1095.466187,975.581787   C1088.727783,976.462891 1084.047729,981.750244 1078.493530,985.549683   C1074.772461,988.095215 1070.376953,989.681763 1066.757568,992.342773   C1061.750244,996.024536 1057.189087,1000.313232 1053.315552,1005.114563   C1051.282227,1004.937195 1049.249023,1004.759766 1046.876709,1004.377808   C1057.733521,996.198669 1068.979980,988.293823 1080.109009,980.226868   C1088.436523,974.190674 1096.612549,967.945435 1105.016724,961.501648   C1112.180908,955.854736 1119.184204,950.499451 1126.407471,944.901917  z"/>
<path fill="#2A98E0" opacity="1.000000" stroke="none" d=" M1143.963867,930.421265   C1147.052612,927.692749 1149.978271,925.254944 1153.044678,922.514709   C1166.582275,909.215210 1179.979370,896.218018 1193.512451,882.918335   C1194.075073,882.339172 1194.501709,882.062500 1195.171631,881.732117   C1196.495239,883.620972 1197.575684,885.563538 1198.196411,886.679688   C1194.103027,888.512634 1191.050903,889.879333 1187.526855,891.457397   C1189.029297,893.736450 1189.835938,894.960022 1191.392334,897.320984   C1188.717773,896.357178 1187.281494,895.839661 1185.528931,895.208130   C1181.488281,899.807739 1177.709229,904.878357 1173.151123,909.109741   C1167.005005,914.815369 1160.175415,919.777344 1153.800293,925.246338   C1149.547852,928.894287 1145.655273,932.960938 1141.418701,936.628906   C1140.462646,937.456665 1138.745728,937.405701 1136.985352,937.598022   C1138.994629,935.195190 1141.397705,932.953552 1143.963867,930.421265  z"/>
<path fill="#2A98E0" opacity="1.000000" stroke="none" d=" M1000.084229,1035.671997   C1010.635864,1028.091431 1021.570312,1020.641418 1032.523804,1013.219421   C1034.713989,1011.735291 1036.976685,1010.357849 1039.554688,1008.909302   C1040.260864,1010.615051 1040.618652,1012.342712 1040.898926,1013.696045   C1037.453369,1014.495056 1034.397705,1015.203674 1030.667358,1016.068787   C1031.570068,1017.924255 1032.101074,1018.567627 1032.165527,1019.254822   C1032.259277,1020.251343 1032.015869,1021.279541 1031.916138,1022.294189   C1031.035889,1022.099487 1030.139404,1021.958618 1029.279053,1021.698303   C1027.777710,1021.244080 1026.298706,1020.716370 1024.810303,1020.219421   C1024.615234,1020.761414 1024.420166,1021.303345 1024.225098,1021.845337   C1025.274170,1022.564819 1026.323120,1023.284241 1027.372192,1024.003784   C1027.319214,1024.277344 1027.266113,1024.551025 1027.213135,1024.824707   C1025.864258,1024.722412 1024.445190,1024.305908 1023.182678,1024.588867   C1021.112915,1025.052612 1019.035339,1025.765259 1017.168396,1026.761475   C1015.648254,1027.572632 1014.538513,1029.125000 1013.057373,1030.042969   C1010.324036,1031.736816 1007.499756,1033.304077 1004.614807,1034.723999   C1003.359863,1035.341553 1001.861511,1035.464600 1000.084229,1035.671997  z"/>
<path fill="#2A98E0" opacity="1.000000" stroke="none" d=" M1195.987549,881.624512   C1204.782227,869.708069 1213.965942,857.939331 1223.049316,846.093689   C1224.962769,843.598450 1226.508545,840.821289 1228.511841,837.996948   C1228.554688,839.755859 1228.309570,841.691895 1228.028931,843.909119   C1228.911499,843.820129 1229.713623,843.739258 1230.515869,843.658386   C1230.786255,844.050232 1231.056641,844.442139 1231.327026,844.833984   C1229.714111,846.101196 1228.171997,847.476990 1226.460205,848.592529   C1225.522339,849.203674 1223.746582,849.039551 1223.285767,849.795959   C1216.781738,860.471985 1208.695557,869.891785 1200.292480,879.057739   C1199.244751,880.200623 1197.670776,880.860962 1195.987549,881.624512  z"/>
<path fill="#2A98E0" opacity="1.000000" stroke="none" d=" M1229.133545,837.899353   C1231.282471,833.273987 1233.774658,828.753357 1236.544434,824.035095   C1237.445679,826.444031 1238.069458,829.050659 1238.889160,832.475891   C1236.100952,832.949097 1230.748291,832.727051 1233.307373,839.975159   C1231.369507,838.977966 1230.423218,838.491089 1229.133545,837.899353  z"/>
<path fill="#2A98E0" opacity="1.000000" stroke="none" d=" M895.025940,1103.648193   C897.812988,1101.325439 900.989990,1099.120483 904.514160,1096.867432   C903.408142,1101.439941 899.747070,1103.058472 895.025940,1103.648193  z"/>
<path fill="#2A98E0" opacity="1.000000" stroke="none" d=" M993.337830,1039.991455   C994.940674,1038.535156 996.949158,1037.119141 999.285828,1035.635498   C1000.005432,1037.173828 1000.396851,1038.779663 1000.940979,1041.011963   C998.696533,1040.706421 996.220032,1040.369141 993.337830,1039.991455  z"/>
<path fill="#2A98E0" opacity="1.000000" stroke="none" d=" M1042.806885,1007.362549   C1043.616333,1006.150757 1044.611816,1005.340637 1045.870605,1004.483093   C1047.097900,1005.604004 1048.061890,1006.772278 1050.103760,1009.246948   C1046.899414,1008.578735 1044.946289,1008.171448 1042.806885,1007.362549  z"/>
<path fill="#2A98E0" opacity="1.000000" stroke="none" d=" M1040.258423,1008.918762   C1040.352905,1008.472900 1040.795532,1008.033997 1041.555664,1007.532593   C1041.451050,1007.955322 1041.028809,1008.440491 1040.258423,1008.918762  z"/>

<path fill="#0196FE" opacity="1.000000" stroke="none" d=" M894.006531,1218.992676   C894.860962,1219.309814 895.708862,1219.634399 896.556763,1219.958862   C896.237976,1220.476440 895.919250,1220.994019 895.600586,1221.511597   C895.060852,1220.909180 894.521118,1220.306641 893.983765,1219.359375   C893.986206,1219.014648 894.000000,1219.000000 894.006531,1218.992676  z"/>
<path fill="#0196FE" opacity="1.000000" stroke="none" d=" M843.201904,1343.802246   C843.566895,1343.201782 843.997925,1342.900635 844.428955,1342.599487   C844.547241,1343.046265 844.665527,1343.493042 844.783813,1343.939697   C844.278503,1343.993774 843.773193,1344.047729 843.201904,1343.802246  z"/>

<path fill="#0196FE" opacity="1.000000" stroke="none" d=" M1007.084595,1427.363403   C1006.816101,1427.642822 1006.424072,1427.756958 1006.023926,1427.816895   C1005.960144,1427.826538 1005.859863,1427.591309 1005.776489,1427.469482   C1006.170471,1427.373047 1006.564392,1427.276611 1007.084595,1427.363403  z"/>

<path fill="#2A98E0" opacity="1.000000" stroke="none" d=" M1222.012451,649.990662   C1221.512573,649.741272 1220.986328,649.521606 1220.490234,649.247437   C1220.462524,649.232178 1220.683594,648.766663 1220.788818,648.510742   C1221.199219,648.829407 1221.609741,649.148010 1221.987061,649.756287   C1221.953857,650.045959 1221.992554,650.008667 1222.012451,649.990662  z"/>

<path fill="#0196FE" opacity="1.000000" stroke="none" d=" M1234.695312,666.157227   C1233.660400,664.991821 1232.884399,664.032104 1232.108398,663.072388   C1232.492188,662.717712 1232.875854,662.363098 1233.259644,662.008423   C1234.371216,663.371887 1235.482788,664.735352 1236.594360,666.098816   C1236.047607,666.186890 1235.500977,666.274902 1234.695312,666.157227  z"/>
<path fill="#0196FE" opacity="1.000000" stroke="none" d=" M1268.775146,888.150452   C1268.013428,887.035583 1267.377197,885.587280 1266.740845,884.139038   C1267.369263,883.940125 1267.997559,883.741272 1268.625854,883.542419   C1268.717529,884.967285 1268.809082,886.392151 1268.775146,888.150452  z"/>
<path fill="#0196FE" opacity="1.000000" stroke="none" d=" M1240.774170,816.620911   C1241.591797,817.989197 1242.400024,819.409973 1243.208130,820.830811   C1242.629883,821.047791 1242.051636,821.264771 1241.473389,821.481689   C1241.258179,820.164124 1241.042847,818.846619 1240.743164,817.108521   C1240.658813,816.688049 1240.764648,816.673462 1240.774170,816.620911  z"/>





</svg>